<?xml version="1.0" encoding="UTF-8"?>
<svg id="_레이어_2" data-name="레이어 2" xmlns="http://www.w3.org/2000/svg" viewBox="0 0 435.83 93.17">
  <defs>
    <style>
      .cls-1 {
        fill: #fff;
      }
    </style>
  </defs>
  <g id="_레이어_1-2" data-name="레이어 1">
    <path class="cls-1" d="m110.59,89.77c0-1.88-8.82-3.4-19.69-3.4s-19.69,1.52-19.69,3.4,8.82,3.4,19.69,3.4,19.69-1.52,19.69-3.4"/>
    <path class="cls-1" d="m121.78,40.52c-.52.14-.98-.64-.93-1.73.04-1.1.56-2.04,1.06-2.09.5-.05.81.73.78,1.74-.03,1.01-.38,1.95-.9,2.09m-2.35,5.98c-.71.2-1.26-.52-1.15-1.62.1-1.1.81-2.13,1.49-2.26.69-.14,1.1.6,1.02,1.65-.08,1.04-.65,2.04-1.36,2.24m-1.96-5.22c-.83.11-1.53-.76-1.47-1.96.05-1.2.83-2.22,1.66-2.27.83-.04,1.4.84,1.35,1.98-.05,1.13-.7,2.14-1.53,2.25m-1.29,11.17c-.86.21-1.47-.42-1.31-1.46.16-1.04,1.04-2.06,1.89-2.24.85-.18,1.36.51,1.21,1.51-.15,1.01-.93,1.98-1.79,2.19m-2.11-4.85c-.97.16-1.72-.64-1.61-1.82.11-1.17,1.03-2.24,2.01-2.34.98-.11,1.62.73,1.51,1.86-.11,1.13-.94,2.15-1.91,2.31m-4.05,6.02c-1.06.16-1.84-.54-1.69-1.6.14-1.07,1.18-2.08,2.26-2.22,1.08-.14,1.79.63,1.62,1.68-.16,1.05-1.13,1.99-2.19,2.15m-.69,6.27c-.26.71-1.26,1.32-2.25,1.44-.99.11-1.64-.28-1.42-.95.22-.68,1.26-1.4,2.29-1.55,1.03-.15,1.64.36,1.38,1.07m-5.44-2.41c.15-.88,1.22-1.76,2.36-1.88,1.14-.13,1.87.54,1.67,1.43-.2.89-1.22,1.66-2.32,1.78-1.09.12-1.87-.44-1.72-1.32m-2.7,5.21c-1.06.07-1.82-.32-1.69-.97.13-.64,1.17-1.3,2.3-1.39,1.13-.09,1.87.44,1.67,1.1-.2.67-1.22,1.19-2.28,1.26m-4.09,2.37c-.98.02-1.71-.19-1.63-.57.08-.37,1.02-.78,2.09-.82,1.07-.04,1.79.32,1.62.72-.17.4-1.11.65-2.09.67m-4.79-3.1c.01-.63.98-1.23,2.16-1.26,1.18-.03,2.05.53,1.95,1.17-.1.64-1.07,1.09-2.16,1.12-1.09.02-1.97-.4-1.96-1.03m-1.53,3.56c-.98,0-1.83-.22-1.88-.59-.05-.37.78-.74,1.86-.74,1.08,0,1.93.38,1.88.74-.04.37-.88.58-1.86.58m-5.71-3.67c-.11-.64.75-1.19,1.93-1.16,1.18.03,2.16.64,2.18,1.27.02.63-.85,1.04-1.94,1.02-1.09-.03-2.06-.49-2.17-1.12m-.61,3.19c-.98-.02-1.91-.28-2.1-.68-.18-.4.53-.76,1.6-.71,1.07.04,2.01.46,2.1.83.09.38-.63.58-1.61.56m-4.12-2.38c-1.06-.07-2.07-.6-2.28-1.27-.21-.66.52-1.19,1.64-1.1,1.12.09,2.16.76,2.3,1.4.14.65-.61,1.04-1.67.97m-4.44-3.91c-1.08-.13-2.11-.9-2.31-1.78-.2-.89.52-1.55,1.65-1.42,1.13.13,2.2,1,2.36,1.89.16.89-.61,1.44-1.69,1.32m-1.54,2.65c-.99-.12-1.99-.73-2.25-1.44-.26-.71.33-1.21,1.35-1.06,1.02.15,2.06.88,2.29,1.56.23.68-.4,1.07-1.39.95m-5.04-9.97c-.17-1.04.53-1.81,1.6-1.67,1.07.14,2.1,1.15,2.25,2.22.15,1.07-.62,1.76-1.67,1.6-1.05-.16-2.01-1.1-2.18-2.14m.06,6.34c-.95-.18-1.87-1.02-2.09-1.91-.22-.89.34-1.51,1.3-1.32.96.18,1.95,1.1,2.16,2,.21.89-.42,1.42-1.37,1.24m-3.98-5.36c-.85-.21-1.62-1.18-1.78-2.18-.15-1,.35-1.69,1.19-1.51.84.18,1.71,1.2,1.88,2.23.17,1.04-.43,1.67-1.29,1.46m-2.84-13.38c-.05-1.13.51-2.01,1.33-1.97.82.04,1.59,1.06,1.64,2.26.06,1.2-.63,2.07-1.45,1.95-.83-.11-1.47-1.11-1.52-2.24m-.41,7.45c-.7-.2-1.28-1.19-1.36-2.23-.08-1.04.33-1.78,1.01-1.65.68.13,1.38,1.15,1.49,2.25.11,1.1-.44,1.82-1.14,1.62m-2.36-5.96c-.52-.14-.89-1.06-.92-2.07-.03-1.01.28-1.79.79-1.74.5.05,1.02.98,1.06,2.08.04,1.1-.41,1.87-.93,1.73m-1.49-5.55c-.34-.04-.53-.85-.53-1.79,0-.95.2-1.76.54-1.81.34-.05.69.75.68,1.79,0,1.04-.36,1.86-.7,1.82m1.56-9.17c.53-.15.98.61.92,1.7-.05,1.09-.58,2.03-1.09,2.09-.51.06-.81-.71-.78-1.71.04-1.01.41-1.94.94-2.08m2.43-5.92c.7-.2,1.24.49,1.12,1.58-.11,1.09-.83,2.1-1.51,2.24-.69.14-1.1-.58-1-1.61.09-1.03.68-2.01,1.39-2.22m.5,13.24c0,1.16-.62,2.08-1.28,2.04-.67-.04-1.13-.94-1.12-2.02,0-1.08.48-1.99,1.14-2.04.67-.05,1.27.85,1.26,2.02m1.39-8.13c.82-.12,1.5.73,1.43,1.92-.06,1.19-.84,2.21-1.66,2.26-.82.05-1.37-.82-1.32-1.94.06-1.12.72-2.12,1.54-2.24m-.38-8.8c.16-.99.94-1.94,1.8-2.15.85-.22,1.45.4,1.27,1.41-.17,1.01-1.05,2.02-1.89,2.21-.84.19-1.34-.48-1.18-1.46m3.82,2.55c.96-.16,1.69.61,1.57,1.76-.12,1.15-1.04,2.21-2.01,2.32-.97.12-1.59-.7-1.47-1.81.12-1.1.95-2.11,1.91-2.28m-.12-8.08c.22-.87,1.14-1.69,2.09-1.88.95-.19,1.57.32,1.36,1.19-.21.87-1.2,1.77-2.16,1.96-.96.19-1.51-.4-1.29-1.27m5.83,3.73c-.15,1.04-1.18,2.04-2.25,2.18-1.07.14-1.75-.6-1.58-1.62.18-1.02,1.13-1.94,2.18-2.11,1.05-.16,1.8.51,1.65,1.55m-1.15-8.25c.26-.69,1.24-1.3,2.22-1.43.98-.13,1.61.25,1.39.92-.22.66-1.25,1.39-2.27,1.54-1.02.16-1.6-.33-1.35-1.02m5.58,2.9c-.16.86-1.22,1.72-2.34,1.85-1.12.13-1.84-.51-1.63-1.37.21-.87,1.22-1.62,2.3-1.75,1.07-.13,1.84.41,1.68,1.27m2.71-5.13c1.05-.08,1.8.31,1.66.95-.13.63-1.16,1.29-2.28,1.38-1.12.1-1.84-.42-1.64-1.07.2-.65,1.21-1.18,2.26-1.26m4.07-2.46c.98-.03,1.7.2,1.61.59-.09.39-1.02.81-2.09.86-1.06.05-1.77-.31-1.6-.72.17-.41,1.1-.7,2.07-.73m4.71,3.13c-.02.62-.99,1.22-2.16,1.25-1.17.03-2.02-.51-1.91-1.14.11-.63,1.07-1.09,2.15-1.12,1.08-.03,1.95.39,1.92,1.01m1.59-3.23c.98,0,1.81.24,1.86.63.04.38-.8.77-1.88.77-1.08,0-1.91-.38-1.86-.76.05-.39.89-.63,1.88-.63m5.6,3.32c.1.63-.77,1.18-1.94,1.15-1.17-.03-2.13-.62-2.14-1.24-.01-.62.86-1.04,1.95-1.02,1.08.02,2.04.48,2.13,1.11m.72-3.24c.98.02,1.9.31,2.06.72.16.41-.56.77-1.63.73-1.06-.04-1.99-.46-2.07-.85-.07-.39.66-.62,1.64-.59m4.02,2.44c1.05.07,2.05.6,2.25,1.25.19.65-.54,1.16-1.67,1.07-1.12-.09-2.15-.74-2.27-1.37-.12-.63.64-1.02,1.69-.95m4.36,3.84c1.08.12,2.1.88,2.3,1.74.2.86-.53,1.51-1.66,1.38-1.13-.13-2.19-.98-2.34-1.84-.15-.86.62-1.4,1.71-1.28m1.12-3.2c.99.12,1.97.73,2.22,1.42.25.69-.35,1.18-1.38,1.03-1.03-.15-2.05-.87-2.26-1.53-.21-.66.43-1.04,1.42-.92m5.45,10.37c.17,1.02-.53,1.77-1.61,1.63-1.08-.14-2.11-1.14-2.26-2.18-.15-1.04.62-1.71,1.68-1.55,1.06.16,2.02,1.08,2.19,2.11m-.03-6.17c.96.19,1.88,1,2.09,1.88.22.87-.35,1.46-1.32,1.27-.97-.19-1.96-1.09-2.16-1.96-.21-.87.43-1.38,1.39-1.19m3.98,5.26c.86.22,1.64,1.17,1.8,2.16.16.99-.35,1.66-1.2,1.47-.85-.19-1.73-1.2-1.9-2.21-.17-1.02.44-1.63,1.3-1.41m-3.04,19.11c0-1.27.84-2.26,1.81-2.22.98.04,1.71,1.04,1.72,2.24,0,1.2-.72,2.2-1.7,2.22-.97.03-1.82-.98-1.83-2.24m-3.65,6.67c.05-1.28,1.02-2.36,2.13-2.39,1.1-.03,1.91.95,1.85,2.17-.05,1.23-.94,2.28-2.04,2.37-1.1.09-1.99-.87-1.94-2.15m-1.83,4.33c1.2-.08,2.05.85,1.95,2.04-.1,1.19-1.11,2.22-2.29,2.33-1.18.11-2.1-.77-2.02-1.99.08-1.22,1.16-2.3,2.36-2.38m-3.86-1.76c-1.29.05-2.33-.97-2.3-2.3.03-1.33,1.13-2.44,2.43-2.46,1.3-.02,2.29,1.03,2.25,2.33-.04,1.3-1.09,2.38-2.38,2.44m-.5,8.22c1.25-.08,2.13.76,2,1.83-.13,1.07-1.2,1.98-2.4,2.07-1.2.1-2.13-.66-2.04-1.74.09-1.08,1.19-2.08,2.44-2.16m-3.94-1.59c-1.31.05-2.35-.88-2.32-2.13.03-1.25,1.17-2.32,2.51-2.36,1.34-.04,2.36.96,2.29,2.19-.07,1.23-1.17,2.25-2.48,2.3m-.51,7.27c1.24-.07,2.12.65,1.99,1.53-.13.88-1.18,1.59-2.35,1.65-1.17.06-2.08-.54-2.01-1.42.06-.88,1.13-1.7,2.37-1.76m-6.2-3.25c0-1.09,1.1-2.04,2.43-2.07,1.33-.03,2.35.88,2.28,1.96-.07,1.09-1.15,1.95-2.42,1.98-1.27.03-2.3-.78-2.3-1.87m-1.79,3.45c1.27,0,2.28.77,2.24,1.65-.03.88-1.03,1.52-2.23,1.52-1.2,0-2.2-.65-2.24-1.53-.04-.88.95-1.65,2.23-1.64m-6.52-3.57c-.07-1.08.94-1.99,2.27-1.96,1.33.03,2.43.99,2.44,2.08.01,1.09-1.01,1.9-2.28,1.86-1.27-.04-2.35-.9-2.43-1.98m-1.45,3.35c1.23.07,2.31.89,2.38,1.77.07.88-.83,1.47-1.99,1.41-1.17-.07-2.21-.77-2.35-1.65-.14-.88.74-1.59,1.97-1.53m-3.02-9.56c-.07-1.23.93-2.22,2.27-2.18,1.34.04,2.47,1.11,2.5,2.36.04,1.25-1,2.18-2.3,2.12-1.3-.06-2.4-1.07-2.47-2.3m-1.44,3.88c1.24.09,2.34,1.08,2.44,2.16.09,1.08-.82,1.83-2.01,1.73-1.2-.1-2.26-1.01-2.39-2.08-.14-1.07.73-1.91,1.97-1.82m-2.89-10.63c-.04-1.29.94-2.34,2.23-2.32,1.29.02,2.39,1.13,2.42,2.46.03,1.33-1.01,2.35-2.28,2.3-1.28-.05-2.32-1.14-2.36-2.43m-1.46,4.18c1.19.08,2.26,1.15,2.34,2.37.08,1.22-.83,2.09-1.99,1.98-1.17-.11-2.17-1.14-2.27-2.32-.1-1.18.74-2.11,1.93-2.03m-5.76-4.54c-.05-1.22.74-2.2,1.83-2.17,1.09.03,2.06,1.1,2.11,2.38.05,1.28-.83,2.23-1.92,2.15-1.09-.09-1.96-1.14-2.02-2.36m-1.12,3.92c.96.11,1.88,1.17,1.99,2.34.11,1.17-.63,1.97-1.59,1.81-.96-.16-1.78-1.17-1.9-2.3-.11-1.12.53-1.96,1.49-1.85m1.45-10.35c0,1.26-.85,2.26-1.81,2.24-.96-.03-1.68-1.02-1.68-2.21,0-1.19.74-2.19,1.7-2.23.96-.04,1.79.95,1.78,2.21m3.66-6.65c-.06,1.27-1.04,2.34-2.12,2.39-1.09.04-1.87-.92-1.81-2.13.07-1.21.95-2.26,2.04-2.36,1.08-.09,1.96.84,1.9,2.11m1.85-4.28c-1.19.08-2.02-.82-1.9-1.99.12-1.17,1.12-2.18,2.28-2.29,1.16-.11,2.06.73,1.97,1.93-.09,1.2-1.16,2.27-2.35,2.35m1.82,10.9c0,1.33-1.02,2.4-2.22,2.38-1.2-.02-2.13-1.08-2.13-2.36,0-1.28.95-2.35,2.15-2.38,1.2-.03,2.21,1.03,2.2,2.36m1.98-9.19c1.27-.06,2.3.94,2.26,2.26-.04,1.32-1.14,2.43-2.43,2.45-1.29.03-2.26-1.01-2.21-2.29.05-1.28,1.1-2.36,2.37-2.42m.57-8.06c-1.23.09-2.09-.73-1.95-1.77.14-1.05,1.2-1.93,2.38-2.03,1.18-.1,2.09.62,1.99,1.68-.1,1.06-1.2,2.03-2.43,2.12m3.88,1.52c1.29-.06,2.32.85,2.28,2.07-.04,1.22-1.17,2.29-2.5,2.33-1.33.04-2.32-.93-2.24-2.14.08-1.21,1.18-2.2,2.47-2.26m.57-7.09c-1.23.07-2.09-.62-1.95-1.48.14-.86,1.18-1.55,2.34-1.62,1.15-.07,2.05.51,1.97,1.37-.07.85-1.13,1.66-2.36,1.73m6.1,3.13c-.02,1.06-1.11,2-2.43,2.03-1.32.03-2.32-.84-2.24-1.9.08-1.06,1.15-1.9,2.41-1.94,1.26-.03,2.27.75,2.26,1.81m1.8-3.36c-1.26,0-2.25-.74-2.21-1.6.04-.85,1.04-1.49,2.22-1.49,1.18,0,2.17.63,2.21,1.48.04.85-.96,1.61-2.22,1.61m6.45,3.46c.07,1.06-.94,1.94-2.26,1.91-1.32-.03-2.41-.96-2.41-2.02,0-1.06,1.02-1.85,2.28-1.82,1.26.03,2.33.87,2.4,1.93m1.46-3.27c-1.23-.06-2.29-.87-2.35-1.72-.06-.86.84-1.44,2-1.38,1.16.06,2.2.75,2.33,1.61.13.86-.75,1.55-1.98,1.49m2.99,9.35c.07,1.21-.93,2.19-2.27,2.15-1.34-.04-2.46-1.1-2.5-2.32-.03-1.23,1-2.14,2.3-2.08,1.3.06,2.39,1.05,2.47,2.26m1.45-3.8c-1.24-.09-2.34-1.06-2.43-2.12-.09-1.06.83-1.79,2.02-1.69,1.19.1,2.25.98,2.39,2.03.13,1.04-.74,1.86-1.98,1.78m-6,17.27c0-1.38,1.12-2.47,2.48-2.46,1.36.01,2.45,1.12,2.45,2.47,0,1.35-1.08,2.46-2.45,2.47-1.37.01-2.49-1.1-2.49-2.47m-4.48,7.09c0-1.35,1.15-2.47,2.55-2.48,1.4,0,2.51,1.09,2.49,2.43-.02,1.34-1.15,2.43-2.53,2.45-1.38.02-2.51-1.05-2.5-2.4m-1.92,4.46c1.39,0,2.5,1.05,2.48,2.3-.02,1.25-1.13,2.23-2.47,2.23-1.35,0-2.46-.99-2.48-2.24-.02-1.25,1.09-2.3,2.47-2.29m-4.48-6.93c1.4,0,2.54,1.12,2.55,2.47,0,1.35-1.12,2.42-2.5,2.4-1.38-.02-2.5-1.11-2.53-2.45-.02-1.34,1.08-2.43,2.48-2.43m-1.92-4.61c0,1.37-1.12,2.48-2.48,2.47-1.36-.01-2.43-1.11-2.43-2.46,0-1.35,1.09-2.45,2.44-2.47,1.35-.02,2.47,1.08,2.47,2.46m4.48-7.06c0,1.34-1.15,2.45-2.55,2.46-1.39.01-2.49-1.08-2.46-2.4.03-1.33,1.15-2.4,2.53-2.42,1.37-.02,2.49,1.03,2.48,2.36m1.93-4.4c-1.38,0-2.48-1.03-2.46-2.25.03-1.23,1.13-2.19,2.47-2.19,1.34,0,2.44.96,2.46,2.18.02,1.23-1.09,2.26-2.47,2.26m2.54,11.45c0,1.38-1.15,2.5-2.56,2.5s-2.56-1.12-2.56-2.5,1.15-2.49,2.56-2.49c1.41,0,2.55,1.11,2.56,2.49m-.63-7.06c0-1.34,1.12-2.39,2.49-2.37,1.37.02,2.5,1.09,2.53,2.42.03,1.33-1.08,2.42-2.48,2.41-1.4,0-2.54-1.12-2.54-2.46m13.4.27c.05,1.29-.93,2.33-2.23,2.3-1.3-.02-2.41-1.13-2.44-2.45-.03-1.32,1-2.32,2.28-2.27,1.28.06,2.33,1.13,2.38,2.42m1.45-4.14c-1.2-.08-2.27-1.15-2.36-2.35-.08-1.2.83-2.05,2-1.94,1.17.11,2.18,1.12,2.29,2.29.11,1.17-.73,2.08-1.93,2m2.52,10.95c0,1.29-.94,2.35-2.15,2.37s-2.24-1.05-2.24-2.39c0-1.34,1.01-2.4,2.22-2.37,1.21.03,2.16,1.09,2.17,2.38m2.39-12.61c-.12-1.15.62-1.93,1.59-1.77.97.16,1.8,1.17,1.92,2.28.12,1.11-.52,1.93-1.5,1.81-.97-.12-1.91-1.17-2.02-2.33m.92,6.2c.06,1.22-.73,2.18-1.83,2.14-1.1-.04-2.09-1.12-2.14-2.39-.06-1.27.83-2.21,1.92-2.12,1.1.09,1.99,1.14,2.05,2.36m5.68.55c.06,1.12-.5,2-1.33,1.94-.83-.05-1.61-1.08-1.68-2.27-.06-1.19.62-2.05,1.46-1.92.84.12,1.49,1.13,1.55,2.25m.37-7.37c.71.2,1.29,1.19,1.39,2.22.09,1.03-.33,1.75-1.01,1.61-.69-.15-1.4-1.17-1.51-2.25-.11-1.09.43-1.78,1.14-1.58m1.88,13.3c0,1.08-.46,1.99-1.13,2.03-.67.04-1.28-.88-1.29-2.05,0-1.17.6-2.07,1.27-2.03.67.05,1.14.96,1.14,2.05m.53-7.36c.52.15.89,1.08.92,2.09.03,1.01-.27,1.78-.77,1.71-.5-.06-1.03-1.01-1.08-2.1-.05-1.09.4-1.85.93-1.7m1.51,9.19c-.32.04-.68-.77-.68-1.82,0-1.05.34-1.85.67-1.79.32.05.49.84.5,1.76,0-.02,0-.03,0-.05C123.73,14.8,108.93,0,90.67,0s-33.05,14.8-33.05,33.06,14.8,33.06,33.05,33.06c8.48,0,16.19-3.22,22.04-8.47-.17.08-.35.15-.53.19-.96.18-1.6-.35-1.4-1.24.21-.89,1.2-1.81,2.17-2,.97-.19,1.54.43,1.33,1.32-.04.16-.12.32-.21.48,5.78-5.79,9.38-13.72,9.61-22.49-.07.59-.22,1.02-.45,1.05"/>
    <path class="cls-1" d="m83.35,68.64c1.51,2.57,2.51,5.06,2.92,7.36l2.36,13.16c.11.6.92,1.1,1.95,1.16,1.21.07,2.27-.43,2.4-1.11l2.37-13.21c.41-2.29,1.4-4.78,2.91-7.35-2.32.88-4.82,1.36-7.45,1.36s-5.13-.5-7.46-1.37"/>
    <path class="cls-1" d="m97.25,65.05c.73-.03,1.39-.2,1.72-.45-.57.16-1.14.33-1.72.45"/>
    <path class="cls-1" d="m83.51,64.81c-.35-.06-.67-.17-1-.27.34.3,1.1.49,1.93.51.14,0,.27,0,.4-.02-.45-.07-.9-.14-1.33-.22"/>
    <path class="cls-1" d="m428.05,76.84h1.3v10.52h6.48v1.23h-7.78v-11.75Zm-1.71,1.21h-7.03v4.01h6.29v1.21h-6.29v4.11h7.11v1.21h-8.41v-11.75h8.33v1.21Zm-11.01-1.21h1.4l-4.95,11.83h-1.15l-4.95-11.83h1.45l4.1,10.12,4.11-10.12Zm-14.19,1.48l-2.63,5.99h5.25l-2.62-5.99Zm5.88,10.27h-1.4l-1.35-3.11h-6.27l-1.37,3.11h-1.33l5.25-11.83h1.22l5.25,11.83Zm-14.6-9.91c-.52-.41-1.24-.61-2.18-.61h-3.56v4.78h3.55c.43,0,.83-.06,1.19-.17.36-.11.68-.27.94-.48.26-.21.47-.46.62-.77.15-.3.22-.65.22-1.03,0-.74-.26-1.32-.77-1.73m.89,9.91l-3.34-4.57h-3.29v4.57h-1.3v-11.75h4.95c.64,0,1.21.08,1.72.25.51.17.95.4,1.31.71.36.31.64.68.84,1.11.2.43.3.91.3,1.44,0,.49-.08.93-.23,1.32-.15.39-.37.72-.65,1.01-.28.29-.61.52-1,.71-.38.19-.8.32-1.25.4l3.54,4.8h-1.6Zm-13.26,0h-1.3v-10.52h-3.87v-1.23h9.04v1.23h-3.87v10.52Zm-6.49-6.51c-.12-.29-.29-.54-.49-.74-.21-.21-.45-.38-.73-.5-.28-.13-.58-.19-.89-.19s-.61.06-.89.19c-.28.13-.52.29-.73.5-.21.21-.37.46-.49.74-.12.29-.18.59-.18.91s.06.63.18.91c.12.29.29.54.49.74.21.21.45.38.73.5s.58.19.89.19.61-.06.89-.19.52-.29.73-.5c.21-.21.37-.46.49-.74.12-.29.19-.59.19-.91s-.06-.63-.19-.91m-6.17-4.03h-7.03v4.01h6.29v1.21h-6.29v4.11h7.11v1.21h-8.41v-11.75h8.33v1.21Zm-12.25,10.21c-.78.35-1.67.53-2.64.53-.91,0-1.73-.16-2.44-.47-.72-.31-1.33-.74-1.84-1.29-.51-.55-.9-1.19-1.17-1.93-.27-.74-.4-1.53-.4-2.37s.14-1.58.42-2.32c.28-.74.67-1.39,1.18-1.95.5-.56,1.11-1.01,1.82-1.34.71-.33,1.49-.49,2.36-.49.48,0,.92.03,1.32.1.4.07.77.17,1.12.3.35.13.67.3.97.49.3.2.6.42.88.66l-.84,1.01c-.22-.2-.45-.38-.69-.54-.24-.16-.5-.3-.78-.42-.28-.12-.59-.21-.92-.28-.33-.07-.71-.1-1.11-.1-.64,0-1.22.13-1.76.39-.54.26-1,.61-1.38,1.04-.38.44-.69.95-.9,1.54-.22.59-.33,1.21-.33,1.87,0,.71.11,1.36.32,1.96.21.6.52,1.12.91,1.55.39.44.87.78,1.43,1.03.56.25,1.19.37,1.89.37.66,0,1.28-.12,1.86-.35.58-.23,1.07-.51,1.46-.83v-2.93h-3.51v-1.18h4.76v4.67c-.54.49-1.2.91-1.98,1.26m-11.53-11.42h1.27v11.75h-1.04l-7.44-9.63v9.63h-1.27v-11.75h1.22l7.26,9.42v-9.42Zm-15.63,1.48l-2.63,5.99h5.25l-2.62-5.99Zm5.88,10.27h-1.4l-1.35-3.11h-6.27l-1.37,3.11h-1.33l5.25-11.83h1.22l5.25,11.83Zm-14.6-9.91c-.52-.41-1.24-.61-2.18-.61h-3.56v4.78h3.55c.43,0,.83-.06,1.19-.17.36-.11.68-.27.94-.48.26-.21.47-.46.62-.77s.22-.65.22-1.03c0-.74-.26-1.32-.78-1.73m.89,9.91l-3.34-4.57h-3.29v4.57h-1.3v-11.75h4.95c.64,0,1.21.08,1.72.25.51.17.95.4,1.31.71.36.31.64.68.84,1.11.2.43.3.91.3,1.44,0,.49-.08.93-.23,1.32-.15.39-.37.72-.65,1.01-.28.29-.61.52-.99.71-.38.19-.8.32-1.25.4l3.54,4.8h-1.6Zm-15.81-.33c-.79.35-1.67.53-2.64.53-.91,0-1.73-.16-2.44-.47-.72-.31-1.33-.74-1.84-1.29-.51-.55-.9-1.19-1.17-1.93-.27-.74-.4-1.53-.4-2.37s.14-1.58.42-2.32c.28-.74.67-1.39,1.18-1.95.51-.56,1.11-1.01,1.82-1.34.71-.33,1.49-.49,2.36-.49.48,0,.92.03,1.32.1.4.07.77.17,1.12.3.35.13.67.3.97.49.3.2.6.42.88.66l-.84,1.01c-.22-.2-.45-.38-.69-.54-.24-.16-.5-.3-.78-.42-.28-.12-.59-.21-.92-.28-.33-.07-.7-.1-1.11-.1-.64,0-1.22.13-1.76.39-.54.26-1,.61-1.38,1.04-.39.44-.69.95-.9,1.54-.22.59-.33,1.21-.33,1.87,0,.71.11,1.36.32,1.96.21.6.52,1.12.91,1.55.4.44.87.78,1.43,1.03.56.25,1.19.37,1.89.37.66,0,1.28-.12,1.86-.35.58-.23,1.07-.51,1.46-.83v-2.93h-3.51v-1.18h4.76v4.67c-.54.49-1.2.91-1.98,1.26m-11.53-11.42h1.27v11.75h-1.04l-7.44-9.63v9.63h-1.27v-11.75h1.22l7.26,9.42v-9.42Zm-10.86,11.75h-1.3v-11.75h1.3v11.75Zm-4.1-11.75h1.4l-4.95,11.83h-1.15l-4.95-11.83h1.45l4.1,10.12,4.11-10.12Zm-11.06,11.75h-1.3v-11.75h1.3v11.75Zm-5.29-9.91c-.52-.41-1.24-.61-2.18-.61h-3.56v4.78h3.55c.43,0,.83-.06,1.19-.17.36-.11.68-.27.94-.48.26-.21.47-.46.62-.77.15-.3.22-.65.22-1.03,0-.74-.26-1.32-.78-1.73m.89,9.91l-3.34-4.57h-3.29v4.57h-1.3v-11.75h4.95c.64,0,1.21.08,1.72.25.51.17.95.4,1.31.71.36.31.64.68.84,1.11.2.43.3.91.3,1.44,0,.49-.08.93-.23,1.32-.15.39-.37.72-.65,1.01-.28.29-.61.52-.99.71-.38.19-.8.32-1.25.4l3.54,4.8h-1.6Zm-11.38-7.69c-.23-.57-.54-1.07-.95-1.48-.41-.42-.91-.75-1.51-.99-.59-.24-1.25-.36-1.98-.36h-2.7v9.3h2.7c.72,0,1.38-.12,1.98-.35.59-.24,1.09-.56,1.51-.98.41-.42.73-.91.95-1.47.22-.56.34-1.17.34-1.83s-.11-1.26-.34-1.83m1.24,4.12c-.3.72-.72,1.35-1.26,1.87s-1.19.94-1.94,1.24c-.75.3-1.58.45-2.48.45h-4v-11.75h4c.9,0,1.73.15,2.48.44.75.3,1.4.71,1.94,1.23s.96,1.15,1.26,1.86.44,1.49.44,2.32-.15,1.6-.44,2.32m-11.82-2.95c-.12-.29-.29-.54-.49-.74-.2-.21-.45-.38-.73-.5-.28-.13-.58-.19-.89-.19s-.61.06-.89.19c-.28.13-.52.29-.73.5s-.37.46-.49.74c-.12.29-.18.59-.18.91s.06.63.18.91c.12.29.29.54.49.74s.45.38.73.5c.28.13.58.19.89.19s.61-.06.89-.19c.28-.13.53-.29.73-.5.21-.21.37-.46.49-.74.12-.29.18-.59.18-.91s-.06-.63-.18-.91m-6.17-4.03h-7.03v4.01h6.29v1.21h-6.29v4.11h7.11v1.21h-8.41v-11.75h8.33v1.21Zm-16.74,2.47c.09.23.25.43.48.61.23.19.55.35.95.5.41.15.93.3,1.56.43,1.28.29,2.23.69,2.84,1.21.61.52.91,1.23.91,2.14,0,.5-.1.96-.29,1.38-.19.42-.46.77-.81,1.06-.34.29-.75.52-1.24.67-.48.16-1.01.24-1.58.24-.92,0-1.76-.15-2.53-.46-.76-.3-1.49-.77-2.18-1.41l.81-.97c.6.56,1.21.98,1.83,1.25.61.27,1.32.41,2.12.41s1.4-.18,1.87-.55c.47-.37.7-.86.7-1.46,0-.28-.04-.53-.13-.75-.09-.22-.24-.42-.46-.6-.22-.18-.52-.34-.92-.49-.39-.15-.89-.29-1.49-.42-.66-.14-1.23-.31-1.72-.5-.49-.19-.89-.42-1.21-.69-.32-.27-.56-.58-.71-.94-.15-.36-.23-.79-.23-1.28s.09-.9.28-1.29c.19-.39.45-.73.79-1.02s.74-.51,1.2-.67c.46-.16.96-.24,1.51-.24.84,0,1.58.12,2.21.36.63.24,1.24.59,1.84,1.07l-.76,1.02c-.54-.45-1.08-.77-1.62-.97-.54-.2-1.11-.3-1.7-.3-.37,0-.71.05-1.01.15-.3.1-.56.23-.77.4-.21.17-.38.37-.49.61-.12.23-.17.49-.17.76s.04.53.13.76m-5.01-1.84c-.52-.41-1.24-.61-2.18-.61h-3.56v4.78h3.55c.43,0,.82-.06,1.19-.17.36-.11.68-.27.94-.48.26-.21.47-.46.62-.77.15-.3.22-.65.22-1.03,0-.74-.26-1.32-.77-1.73m.89,9.91l-3.34-4.57h-3.29v4.57h-1.3v-11.75h4.95c.64,0,1.21.08,1.72.25.51.17.95.4,1.31.71.36.31.64.68.84,1.11.2.43.3.91.3,1.44,0,.49-.08.93-.23,1.32-.15.39-.37.72-.65,1.01-.28.29-.61.52-1,.71-.38.19-.8.32-1.25.4l3.54,4.8h-1.6Zm-10.02-5.02c0,.86-.11,1.62-.35,2.27-.23.65-.56,1.19-.98,1.63-.42.44-.93.76-1.51.98s-1.24.33-1.97.33-1.36-.11-1.95-.33-1.09-.54-1.51-.97c-.42-.43-.75-.96-.98-1.6-.23-.64-.35-1.37-.35-2.2v-6.83h1.3v6.75c0,1.27.31,2.25.93,2.94.62.68,1.48,1.02,2.59,1.02s1.91-.32,2.54-.97c.62-.65.94-1.62.94-2.9v-6.83h1.3v6.73Zm-12.86-2.74c-.23-.59-.54-1.11-.95-1.54-.41-.44-.89-.78-1.44-1.04-.55-.26-1.16-.39-1.82-.39s-1.26.13-1.82.38c-.55.25-1.03.6-1.42,1.03-.4.44-.71.95-.93,1.54-.23.59-.34,1.22-.34,1.89s.11,1.3.34,1.9c.22.59.54,1.11.95,1.54.41.44.89.78,1.44,1.04.55.26,1.16.39,1.82.39s1.26-.13,1.82-.38c.55-.25,1.03-.6,1.42-1.03.39-.44.7-.95.93-1.54.23-.59.34-1.22.34-1.89s-.11-1.3-.34-1.9m1.26,4.19c-.29.73-.69,1.38-1.2,1.94-.52.56-1.14,1-1.86,1.33-.72.33-1.52.49-2.4.49s-1.68-.16-2.39-.49c-.72-.33-1.34-.76-1.85-1.32-.52-.55-.91-1.2-1.19-1.93-.28-.73-.42-1.51-.42-2.32s.14-1.59.43-2.33c.29-.73.68-1.38,1.2-1.94.52-.56,1.14-1.01,1.86-1.34.72-.33,1.52-.49,2.4-.49s1.68.16,2.39.49c.72.33,1.34.76,1.85,1.32.52.55.91,1.2,1.19,1.93.28.73.42,1.51.42,2.32s-.14,1.59-.43,2.32m-12.7,2.55c-.32.25-.67.47-1.04.65-.37.18-.77.32-1.2.42-.43.1-.9.15-1.43.15-.83,0-1.6-.16-2.3-.47-.7-.31-1.31-.74-1.83-1.28-.52-.54-.92-1.18-1.21-1.92-.29-.74-.44-1.53-.44-2.38s.15-1.63.44-2.37c.29-.74.69-1.39,1.21-1.94.52-.55,1.13-.99,1.84-1.31.71-.32,1.49-.48,2.34-.48.53,0,1,.05,1.42.13.42.09.81.22,1.18.38.36.16.7.36,1,.59.31.23.6.48.89.76l-.89.97c-.49-.47-1.02-.86-1.59-1.16-.57-.3-1.24-.45-2.03-.45-.64,0-1.23.12-1.77.37-.54.25-1.01.59-1.42,1.02-.4.44-.71.95-.94,1.54-.23.59-.34,1.22-.34,1.9s.11,1.32.34,1.91c.22.59.54,1.11.94,1.54.4.44.87.78,1.42,1.03.54.25,1.13.38,1.77.38.79,0,1.47-.15,2.04-.44.57-.3,1.13-.71,1.68-1.25l.86.86c-.3.31-.61.6-.93.85m-14.42-9.51h-6.98v4.2h6.24v1.21h-6.24v5.12h-1.3v-11.75h8.28v1.23Zm-17.48-1.23h1.3v10.52h6.48v1.23h-7.78v-11.75Zm-3.45,3.99c-.23-.59-.54-1.11-.95-1.54-.41-.44-.89-.78-1.44-1.04-.55-.26-1.16-.39-1.82-.39s-1.26.13-1.82.38c-.55.25-1.03.6-1.42,1.03-.4.44-.71.95-.93,1.54-.23.59-.34,1.22-.34,1.89s.11,1.3.34,1.9c.22.59.54,1.11.95,1.54.4.44.89.78,1.44,1.04.55.26,1.16.39,1.82.39s1.26-.13,1.82-.38c.55-.25,1.03-.6,1.42-1.03.4-.44.71-.95.93-1.54.22-.59.34-1.22.34-1.89s-.11-1.3-.34-1.9m1.26,4.19c-.29.73-.69,1.38-1.2,1.94-.51.56-1.13,1-1.86,1.33-.72.33-1.53.49-2.4.49s-1.68-.16-2.39-.49c-.72-.33-1.34-.76-1.85-1.32-.51-.55-.91-1.2-1.19-1.93-.28-.73-.42-1.51-.42-2.32s.14-1.59.43-2.33c.29-.73.69-1.38,1.2-1.94.51-.56,1.13-1.01,1.86-1.34.72-.33,1.52-.49,2.4-.49s1.68.16,2.39.49c.72.33,1.34.76,1.85,1.32.51.55.91,1.2,1.19,1.93.28.73.42,1.51.42,2.32s-.14,1.59-.43,2.32m-14.74,3.24c-.79.35-1.67.53-2.64.53-.91,0-1.73-.16-2.44-.47-.72-.31-1.33-.74-1.84-1.29s-.9-1.19-1.17-1.93c-.27-.74-.4-1.53-.4-2.37s.14-1.58.42-2.32c.28-.74.67-1.39,1.18-1.95.51-.56,1.11-1.01,1.82-1.34.71-.33,1.49-.49,2.36-.49.48,0,.93.03,1.33.1.4.07.77.17,1.12.3.35.13.67.3.97.49.3.2.6.42.88.66l-.84,1.01c-.22-.2-.45-.38-.69-.54-.24-.16-.5-.3-.78-.42-.28-.12-.59-.21-.92-.28-.34-.07-.71-.1-1.11-.1-.64,0-1.22.13-1.76.39-.54.26-1,.61-1.38,1.04-.38.44-.69.95-.91,1.54-.22.59-.33,1.21-.33,1.87,0,.71.11,1.36.32,1.96.21.6.52,1.12.91,1.55.39.44.87.78,1.43,1.03.56.25,1.19.37,1.89.37.66,0,1.28-.12,1.86-.35.58-.23,1.07-.51,1.46-.83v-2.93h-3.51v-1.18h4.76v4.67c-.54.49-1.2.91-1.98,1.26"/>
    <path class="cls-1" d="m430.12,58.5c-1.68,1.33-3.51,2.47-5.51,3.42-1.99.95-4.18,1.68-6.55,2.17-2.37.49-5.03.74-7.98.74-4.45,0-8.58-.81-12.4-2.43-3.82-1.62-7.11-3.83-9.88-6.63-2.77-2.8-4.94-6.11-6.5-9.93s-2.34-7.89-2.34-12.22v-.17c0-4.34.78-8.4,2.34-12.18,1.56-3.79,3.73-7.11,6.5-9.97,2.77-2.86,6.1-5.12,9.97-6.76,3.87-1.65,8.15-2.47,12.83-2.47,2.83,0,5.42.23,7.76.69,2.34.46,4.47,1.1,6.37,1.91,1.91.81,3.67,1.79,5.29,2.95,1.62,1.16,3.12,2.43,4.51,3.82l-8.5,9.8c-2.37-2.14-4.78-3.82-7.24-5.03-2.46-1.21-5.22-1.82-8.28-1.82-2.54,0-4.9.49-7.07,1.47-2.17.98-4.03,2.34-5.59,4.07-1.56,1.73-2.77,3.74-3.64,6.03-.87,2.28-1.3,4.73-1.3,7.33v.17c0,2.6.43,5.06,1.3,7.37.87,2.31,2.07,4.34,3.6,6.07,1.53,1.73,3.38,3.11,5.55,4.12,2.17,1.01,4.55,1.52,7.15,1.52,3.47,0,6.4-.64,8.8-1.91,2.4-1.27,4.78-3.01,7.15-5.2l8.5,8.58c-1.56,1.68-3.18,3.18-4.85,4.51m-61.38,5.29l-29.39-38.58v38.58h-13.18V3.09h12.31l28.44,37.37V3.09h13.18v60.69h-11.36Zm-72.14-45.09l-8.06,19.68h16.13l-8.06-19.68Zm18.38,45.09l-5.55-13.61h-25.66l-5.55,13.61h-13.61l26.01-61.12h12.31l26.01,61.12h-13.96Zm-57.31-18.47c0-2.02-.78-3.63-2.34-4.81-1.56-1.18-4.08-1.78-7.54-1.78h-15.43v13.35h15.87c2.95,0,5.26-.53,6.94-1.6,1.68-1.07,2.51-2.73,2.51-4.99v-.17Zm-3.38-24.28c0-2.02-.75-3.57-2.25-4.64-1.5-1.07-3.67-1.6-6.5-1.6h-13.18v12.83h12.31c2.95,0,5.29-.51,7.02-1.52,1.73-1.01,2.6-2.64,2.6-4.9v-.17Zm14.96,33.38c-1.07,2.08-2.6,3.82-4.59,5.2-1.99,1.39-4.39,2.43-7.18,3.12-2.8.69-5.9,1.04-9.3,1.04h-28.82V3.09h28.13c6.23,0,11.12,1.42,14.67,4.25,3.55,2.83,5.32,6.65,5.32,11.45v.17c0,1.73-.22,3.27-.65,4.6-.43,1.33-1.01,2.53-1.72,3.6-.72,1.07-1.55,2.01-2.5,2.82-.95.81-1.97,1.5-3.06,2.08,3.51,1.33,6.27,3.14,8.29,5.42,2.01,2.28,3.02,5.45,3.02,9.49v.17c0,2.78-.53,5.2-1.6,7.28M179.3,15.14v13.09h28.96v12.05h-28.96v23.5h-13.35V3.09h46.21v12.05h-32.86Zm-56.62,48.64V3.09h13.35v48.64h30.26v12.05h-43.61Zm-75.99-1.78c-4.31,1.88-9.23,2.82-14.78,2.82-4.74,0-9.06-.78-12.96-2.34-3.9-1.56-7.25-3.73-10.06-6.5-2.81-2.77-4.99-6.07-6.55-9.88-1.56-3.82-2.34-7.98-2.34-12.48v-.17c0-4.34.79-8.4,2.39-12.18,1.59-3.79,3.8-7.11,6.63-9.97,2.83-2.86,6.18-5.12,10.06-6.76,3.87-1.65,8.12-2.47,12.75-2.47,2.72,0,5.19.19,7.41.56,2.22.38,4.29.91,6.2,1.6,1.91.69,3.7,1.56,5.37,2.6,1.68,1.04,3.29,2.22,4.86,3.55l-8.41,10.14c-1.16-.98-2.31-1.85-3.47-2.6-1.16-.75-2.35-1.39-3.6-1.91-1.24-.52-2.59-.92-4.03-1.21-1.45-.29-3.03-.43-4.77-.43-2.43,0-4.7.51-6.81,1.52-2.11,1.01-3.96,2.38-5.55,4.08-1.59,1.71-2.83,3.71-3.73,6-.9,2.29-1.34,4.74-1.34,7.34v.17c0,2.78.45,5.34,1.34,7.69.89,2.35,2.17,4.39,3.81,6.13,1.65,1.74,3.58,3.08,5.81,4.04,2.22.96,4.69,1.43,7.41,1.43,4.97,0,9.16-1.22,12.57-3.67v-8.73h-13.44v-11.53h26.36v26.36c-3.12,2.66-6.84,4.93-11.14,6.81"/>
  </g>
</svg>