<?xml version="1.0" encoding="utf-8"?>
<!-- Generator: Adobe Illustrator 26.0.3, SVG Export Plug-In . SVG Version: 6.00 Build 0)  -->
<svg version="1.1" id="Layer_1" xmlns="http://www.w3.org/2000/svg" xmlns:xlink="http://www.w3.org/1999/xlink" x="0px" y="0px"
	 viewBox="0 0 16 16" style="enable-background:new 0 0 16 16;" xml:space="preserve">
<style type="text/css">
	.st0{fill:#FFFFFF;}
</style>
<path class="st0" d="M10.087,8.025l5.466-5.483c0.596-0.598,0.596-1.495,0-2.093c-0.596-0.598-1.491-0.598-2.087,0L8,5.931
	L2.534,0.449c-0.596-0.498-1.491-0.498-2.087,0c-0.596,0.598-0.596,1.495,0,2.093l5.466,5.483l-5.466,5.483
	c-0.596,0.598-0.596,1.495,0,2.093C0.745,15.9,1.143,16,1.441,16s0.795-0.1,0.994-0.399L8,10.118l5.466,5.483
	C13.764,15.9,14.161,16,14.46,16s0.795-0.1,0.994-0.399c0.596-0.598,0.596-1.495,0-2.093L10.087,8.025z"/>
</svg>
