<?xml version="1.0" encoding="utf-8"?>
<!-- Generator: Adobe Illustrator 26.0.3, SVG Export Plug-In . SVG Version: 6.00 Build 0)  -->
<svg version="1.1" id="Layer_1" xmlns="http://www.w3.org/2000/svg" xmlns:xlink="http://www.w3.org/1999/xlink" x="0px" y="0px"
	 viewBox="0 0 20 20" style="enable-background:new 0 0 20 20;" xml:space="preserve">
<style type="text/css">
	.st0{fill:#FFFFFF;}
</style>
<path class="st0" d="M3.96,6v12h12V6H3.96z M7.32,15.36C7.32,15.76,7,16,6.68,16c-0.32,0-0.64-0.32-0.64-0.64V8.64
	C6.04,8.24,6.36,8,6.68,8s0.64,0.32,0.64,0.64V15.36z M10.68,15.36c0,0.4-0.32,0.64-0.64,0.64c-0.4,0-0.64-0.32-0.64-0.64V8.64
	C9.4,8.24,9.72,8,10.04,8c0.4,0,0.64,0.32,0.64,0.64V15.36z M13.96,15.36c0,0.4-0.32,0.64-0.64,0.64s-0.64-0.32-0.64-0.64V8.64
	C12.68,8.24,13,8,13.32,8s0.64,0.32,0.64,0.64V15.36z M16.68,3.36v1.36H3.32V3.36h3.84C7.8,3.36,8.28,2.64,8.28,2h3.52
	c0,0.64,0.48,1.36,1.12,1.36H16.68z"/>
</svg>
