<?xml version="1.0" encoding="utf-8"?>
<!-- Generator: Adobe Illustrator 26.0.3, SVG Export Plug-In . SVG Version: 6.00 Build 0)  -->
<svg version="1.1" id="Layer_1" xmlns="http://www.w3.org/2000/svg" xmlns:xlink="http://www.w3.org/1999/xlink" x="0px" y="0px"
	 viewBox="0 0 20 16.667" style="enable-background:new 0 0 20 16.667;" xml:space="preserve">
<style type="text/css">
	.st0{fill:#70368B;}
</style>
<path class="st0" d="M4.167,1.667h-2.5V0.833h2.5V1.667z M10.833,6.667c-1.378,0-2.5,1.122-2.5,2.5s1.122,2.5,2.5,2.5
	s2.5-1.122,2.5-2.5S12.212,6.667,10.833,6.667z M20,2.5v14.167H0V2.5h4.942c0.557,0,1.077-0.278,1.387-0.742L7.5,0h6.667
	l1.172,1.757C15.648,2.222,16.168,2.5,16.725,2.5H20z M4.167,5.833C4.167,5.373,3.794,5,3.333,5S2.5,5.373,2.5,5.833
	s0.372,0.833,0.833,0.833S4.167,6.293,4.167,5.833z M15,9.167C15,6.866,13.134,5,10.833,5S6.667,6.866,6.667,9.167
	s1.866,4.167,4.167,4.167S15,11.467,15,9.167z"/>
</svg>
