<?xml version="1.0" encoding="utf-8"?>
<!-- Generator: Adobe Illustrator 26.0.3, SVG Export Plug-In . SVG Version: 6.00 Build 0)  -->
<svg version="1.1" id="Layer_1" xmlns="http://www.w3.org/2000/svg" xmlns:xlink="http://www.w3.org/1999/xlink" x="0px" y="0px"
	 viewBox="0 0 38 40" style="enable-background:new 0 0 38 40;" xml:space="preserve">
<style type="text/css">
	.st0{fill:#743D90;}
	.st1{fill:none;}
</style>
<g>
	<g>
		<path class="st0" d="M28.626,0H9.373C7.495,0,5.967,1.666,5.967,3.714v32.572C5.967,38.334,7.495,40,9.373,40h19.253
			c1.879,0,3.407-1.666,3.407-3.714V3.714C32.033,1.666,30.505,0,28.626,0z M9.373,2h19.253c0.776,0,1.407,0.769,1.407,1.714v2.619
			H7.967V3.714C7.967,2.769,8.597,2,9.373,2z M7.967,30.4V8.333h22.067V30.4H7.967z M28.626,38H9.373
			c-0.776,0-1.407-0.769-1.407-1.714V32.4h22.067v3.886C30.033,37.231,29.403,38,28.626,38z"/>
		<path class="st0" d="M22.8,34.2h-7.6c-0.552,0-1,0.447-1,1s0.448,1,1,1h7.6c0.553,0,1-0.447,1-1S23.353,34.2,22.8,34.2z"/>
	</g>
	<rect class="st1" width="38" height="40"/>
</g>
</svg>
