<?xml version="1.0" encoding="utf-8"?>
<!-- Generator: Adobe Illustrator 26.0.3, SVG Export Plug-In . SVG Version: 6.00 Build 0)  -->
<svg version="1.1" id="Layer_1" xmlns="http://www.w3.org/2000/svg" xmlns:xlink="http://www.w3.org/1999/xlink" x="0px" y="0px"
	 viewBox="0 0 38 40" style="enable-background:new 0 0 38 40;" xml:space="preserve">
<style type="text/css">
	.st0{fill:#743D90;}
	.st1{fill:none;}
</style>
<g>
	<g>
		<path class="st0" d="M35.261,3.05H2.739C1.229,3.05,0,4.279,0,5.789v21.417c0,1.51,1.229,2.739,2.739,2.739h10.6
			c-0.013,0.098-0.03,0.194-0.03,0.295v4.414c0,1.266,1.03,2.295,2.295,2.295h6.79c1.266,0,2.295-1.03,2.295-2.295V30.24
			c0-0.101-0.017-0.197-0.03-0.295h10.6c1.51,0,2.739-1.229,2.739-2.739V5.789C38,4.279,36.771,3.05,35.261,3.05z M22.69,30.24
			v4.414c0,0.163-0.132,0.295-0.295,0.295h-6.79c-0.163,0-0.295-0.132-0.295-0.295V30.24c0-0.163,0.132-0.295,0.295-0.295h6.79
			C22.558,29.945,22.69,30.077,22.69,30.24z M36,27.206c0,0.407-0.331,0.738-0.738,0.738H22.395h-6.79H2.739
			C2.332,27.945,2,27.613,2,27.206V5.789c0-0.407,0.331-0.738,0.738-0.738h32.522C35.668,5.051,36,5.382,36,5.789V27.206z"/>
		<rect x="7.211" y="12.075" class="st0" width="1.668" height="8.545"/>
		<rect x="10.583" y="16.467" class="st0" width="3.697" height="1.452"/>
		<path class="st0" d="M19.296,12.075h-3.312v8.545h1.668v-3.217h1.644c0.857,0,1.549-0.265,2.077-0.792
			c0.496-0.496,0.744-1.12,0.744-1.872c0-0.759-0.248-1.388-0.744-1.884C20.853,12.335,20.161,12.075,19.296,12.075z M20.113,15.591
			c-0.224,0.208-0.525,0.313-0.901,0.313h-1.56v-2.34h1.56c0.376,0,0.677,0.107,0.901,0.323c0.224,0.216,0.336,0.5,0.336,0.852
			C20.449,15.1,20.336,15.383,20.113,15.591z"/>
		<rect x="23.377" y="14.367" class="st0" width="1.561" height="6.253"/>
		<rect x="23.377" y="12.028" class="st0" width="1.561" height="1.272"/>
		<path class="st0" d="M31.263,14.847c-0.176-0.176-0.39-0.312-0.642-0.407c-0.252-0.097-0.53-0.145-0.834-0.145
			c-0.632,0-1.153,0.216-1.56,0.649v-0.576h-1.525v6.253h1.56V16.84c0-0.4,0.112-0.699,0.337-0.9c0.176-0.16,0.411-0.24,0.708-0.24
			c0.287,0,0.524,0.084,0.708,0.252c0.216,0.2,0.323,0.496,0.323,0.888v3.781H31.9v-3.997c0-0.368-0.048-0.698-0.145-0.99
			C31.659,15.341,31.495,15.079,31.263,14.847z"/>
	</g>
	<rect x="0" class="st1" width="38" height="40"/>
</g>
</svg>
