<?xml version="1.0" encoding="utf-8"?>
<!-- Generator: Adobe Illustrator 26.0.3, SVG Export Plug-In . SVG Version: 6.00 Build 0)  -->
<svg version="1.1" id="Layer_1" xmlns="http://www.w3.org/2000/svg" xmlns:xlink="http://www.w3.org/1999/xlink" x="0px" y="0px"
	 viewBox="0 0 24 24" style="enable-background:new 0 0 24 24;" xml:space="preserve">
<style type="text/css">
	.st0{fill:#CCCCCC;}
</style>
<path class="st0" d="M24,13.903v-3.805c-1.931-0.687-2.712-0.782-3.123-1.774c-0.409-0.988,0.074-1.618,0.952-3.465l-2.687-2.688
	c-1.758,0.833-2.466,1.368-3.467,0.952C14.689,2.714,14.583,1.918,13.901,0h-3.802C9.406,1.939,9.316,2.712,8.324,3.124
	C7.325,3.536,6.6,2.999,4.859,2.171L2.17,4.859c0.882,1.853,1.364,2.475,0.953,3.466C2.712,9.316,1.906,9.42,0,10.098v3.804
	c1.931,0.686,2.711,0.782,3.123,1.773c0.414,1-0.08,1.628-0.953,3.465l2.689,2.689c1.735-0.82,2.461-1.371,3.466-0.952
	c0.988,0.41,1.092,1.205,1.773,3.123h3.803c0.705-1.98,0.797-2.716,1.785-3.126c0.989-0.415,1.728,0.135,3.456,0.955l2.688-2.689
	c-0.91-1.903-1.357-2.489-0.954-3.464C21.287,14.685,22.094,14.58,24,13.903z M12,16.333c-2.39,0-4.333-1.943-4.333-4.333
	S9.61,7.666,12,7.666S16.333,9.61,16.333,12S14.39,16.333,12,16.333z"/>
</svg>
