<?xml version="1.0" encoding="utf-8"?>
<!-- Generator: Adobe Illustrator 26.0.3, SVG Export Plug-In . SVG Version: 6.00 Build 0)  -->
<svg version="1.1" id="Layer_1" xmlns="http://www.w3.org/2000/svg" xmlns:xlink="http://www.w3.org/1999/xlink" x="0px" y="0px"
	 viewBox="0 0 24 24" style="enable-background:new 0 0 24 24;" xml:space="preserve">
<style type="text/css">
	.st0{fill:#FFFFFF;}
</style>
<path class="st0" d="M13.514,2.444L2.699,13.229c-0.449,0.449-0.678,1.074-0.625,1.707l0.393,4.696c0.041,0.479,0.422,0.86,0.9,0.9
	l4.697,0.394c0.633,0.053,1.258-0.177,1.707-0.626L21.646,8.456c0.196-0.196,0.195-0.512,0-0.707L18.11,4.213
	c-0.195-0.195-0.511-0.196-0.707,0l-8.878,8.848c-0.162,0.162-0.253,0.382-0.253,0.611v0.725c0,0.184,0.148,0.332,0.332,0.332h0.725
	c0.229,0,0.448-0.092,0.61-0.254l7.11-7.08l1.415,1.415l-7.386,7.354c-0.375,0.375-0.885,0.586-1.414,0.586H7.25
	c-0.555,0-1-0.448-1-1v-2.414c0-0.53,0.211-1.039,0.586-1.414l9.506-9.477c0.781-0.781,2.049-0.781,2.829-0.001l4.243,4.243
	C23.805,7.078,24,7.589,24,8.101s-0.196,1.025-0.587,1.416l-12.35,12.319C10.315,22.583,9.303,23,8.253,23
	c-0.257,0-6.243-0.467-6.499-0.487c-0.664-0.052-1.212-0.574-1.268-1.267C0.467,21.004,0,15,0,14.747
	c0-1.05,0.416-2.062,1.164-2.811L12.1,1C12.1,1,13.514,2.444,13.514,2.444z"/>
</svg>
