<?xml version="1.0" encoding="utf-8"?>
<!-- Generator: Adobe Illustrator 26.0.3, SVG Export Plug-In . SVG Version: 6.00 Build 0)  -->
<!DOCTYPE svg PUBLIC "-//W3C//DTD SVG 1.1//EN" "http://www.w3.org/Graphics/SVG/1.1/DTD/svg11.dtd" [
	<!ENTITY ns_extend "http://ns.adobe.com/Extensibility/1.0/">
	<!ENTITY ns_ai "http://ns.adobe.com/AdobeIllustrator/10.0/">
	<!ENTITY ns_graphs "http://ns.adobe.com/Graphs/1.0/">
	<!ENTITY ns_vars "http://ns.adobe.com/Variables/1.0/">
	<!ENTITY ns_imrep "http://ns.adobe.com/ImageReplacement/1.0/">
	<!ENTITY ns_sfw "http://ns.adobe.com/SaveForWeb/1.0/">
	<!ENTITY ns_custom "http://ns.adobe.com/GenericCustomNamespace/1.0/">
	<!ENTITY ns_adobe_xpath "http://ns.adobe.com/XPath/1.0/">
]>
<svg version="1.1" id="Layer_1" xmlns:x="&ns_extend;" xmlns:i="&ns_ai;" xmlns:graph="&ns_graphs;"
	 xmlns="http://www.w3.org/2000/svg" xmlns:xlink="http://www.w3.org/1999/xlink" x="0px" y="0px" viewBox="0 0 24 24"
	 style="enable-background:new 0 0 24 24;" xml:space="preserve">
<style type="text/css">
	.st0{fill:#FFFFFF;}
	.st1{fill:#743D90;}
</style>
<metadata>
	<sfw  xmlns="&ns_sfw;">
		<slices></slices>
		<sliceSourceBounds  bottomLeftOrigin="true" height="22" width="24" x="0" y="-23"></sliceSourceBounds>
	</sfw>
</metadata>
<g>
	<path class="st0" d="M12,22.411C2.002,16.165,0.5,10.711,0.5,8.003C0.5,3.535,3.664,1.5,6.603,1.5c2.298,0,4.232,1.22,4.928,3.107
		L12,5.881l0.469-1.273C13.175,2.691,15.056,1.5,17.377,1.5c2.949,0,6.123,2.035,6.123,6.503C23.5,10.711,21.998,16.165,12,22.411z"
		/>
	<path class="st1" d="M6.603,2c1.66,0,3.703,0.731,4.459,2.781L12,7.328l0.938-2.548c0.755-2.05,2.788-2.78,4.439-2.78
		C20.085,2.001,23,3.879,23,8.003c0,2.581-1.444,7.771-11,13.818C2.444,15.774,1,10.584,1,8.003c0-1.899,0.613-3.472,1.773-4.548
		C3.77,2.53,5.166,2,6.603,2 M6.603,1C3.381,1,0,3.258,0,8.003C0,12.071,3.06,17.484,12,23c8.94-5.516,12-10.929,12-14.997
		c0-4.729-3.394-7.002-6.622-7.002c-2.314,0-4.543,1.167-5.378,3.434C11.167,2.173,8.926,1,6.603,1L6.603,1z"/>
</g>
</svg>
