<?xml version="1.0" encoding="utf-8"?>
<!-- Generator: Adobe Illustrator 26.0.3, SVG Export Plug-In . SVG Version: 6.00 Build 0)  -->
<svg version="1.1" id="Layer_1" xmlns="http://www.w3.org/2000/svg" xmlns:xlink="http://www.w3.org/1999/xlink" x="0px" y="0px"
	 viewBox="0 0 16.7 20" style="enable-background:new 0 0 16.7 20;" xml:space="preserve">
<style type="text/css">
	.st0{fill:#CCCCCC;}
</style>
<path class="st0" d="M0.8,5v15h15V5H0.8z M5,16.7c0,0.5-0.4,0.8-0.8,0.8s-0.8-0.4-0.8-0.8V8.3c0-0.5,0.4-0.8,0.8-0.8S5,7.9,5,8.3
	V16.7z M9.2,16.7c0,0.5-0.4,0.8-0.8,0.8c-0.5,0-0.8-0.4-0.8-0.8V8.3c0-0.5,0.4-0.8,0.8-0.8c0.5,0,0.8,0.4,0.8,0.8V16.7z M13.3,16.7
	c0,0.5-0.4,0.8-0.8,0.8s-0.8-0.4-0.8-0.8V8.3c0-0.5,0.4-0.8,0.8-0.8s0.8,0.4,0.8,0.8V16.7z M16.7,1.7v1.7H0V1.7h4.8
	c0.8,0,1.4-0.9,1.4-1.7h4.4c0,0.8,0.6,1.7,1.4,1.7H16.7z"/>
</svg>
