<?xml version="1.0" encoding="utf-8"?>
<!-- Generator: Adobe Illustrator 26.0.3, SVG Export Plug-In . SVG Version: 6.00 Build 0)  -->
<svg version="1.1" id="Layer_1" xmlns="http://www.w3.org/2000/svg" xmlns:xlink="http://www.w3.org/1999/xlink" x="0px" y="0px"
	 viewBox="0 0 300 62.297" style="enable-background:new 0 0 300 62.297;" xml:space="preserve">
<style type="text/css">
	.st0{fill:#58595B;}
	.st1{fill-rule:evenodd;clip-rule:evenodd;fill:#333333;}
</style>
<g>
	<path class="st0" d="M103.302,30.614l0.11-1.032l0.037-0.368l0.147-0.48l0.037-0.367l0.037-0.37l0.037-0.333v-0.256l0.037-0.518
		v-0.589l0.037-0.331V25.75l0.037-0.294l0.074-0.295l0.11-0.296l0.075-0.112V24.35l-0.038-0.074l-0.258-0.073h-0.258l-0.957-0.074
		l-0.995-0.112l-0.887-0.074l-0.477,0.038h-0.222l-0.368-0.11l-0.296-0.038h-0.366l-0.149,0.038l-0.147,0.146v0.147l-0.074,0.077
		c-0.049,0.095-0.073,0.133-0.073,0.109v0.368L98.4,25.75v0.883l-0.074,0.296l-0.074,0.626l-0.147,0.773l-0.15,0.59l-0.035,0.59
		v0.405l0.109,0.333l0.038,0.368v0.331l0.038,0.221v0.296l-0.038,0.663l-0.186,0.884l-0.219,0.297l-0.112,0.368l-0.219,0.11
		l-0.038,0.147l-0.147,0.111l-0.368,0.294l-0.331,0.184l-0.368,0.074h-0.221l-0.11-0.037l-0.184-0.147l-0.113-0.074l-0.074-0.147
		l-0.147-0.184l-0.071-0.258l-0.038-0.113l-0.075-0.291l-0.074-0.368l-0.184-0.665l-0.037-0.405l0.074-0.701l0.077-0.443
		l0.071-0.331l0.038-0.222l0.11-0.256l0.184-0.738l0.186-0.517l0.035-1.069v-5.343l0.109-0.738l0.184-0.848l-0.035-0.515
		l0.035-0.885v-0.552l0.075-0.589v-0.149l0.072-0.258l0.04-0.182l0.109-0.15l0.149-0.259l0.184-0.107h0.738l0.147,0.147l0.109,0.219
		l0.111,0.15l0.074,0.182v1.107l0.112,1.066l0.074,0.333l0.11,1.179l0.035,0.075l0.184,0.146h0.445l0.886,0.038h0.882l0.478,0.035
		l0.589,0.038l0.555,0.112l0.848,0.219l0.589,0.035l0.405-0.035l0.184-0.074l0.147-0.146l0.149-0.224l0.073-0.221v-0.959
		l-0.073-0.221v-0.222l-0.112-0.994c-0.074-0.442-0.109-0.822-0.109-1.143l0.072-0.699c0.049-0.075,0.086-0.135,0.111-0.186
		l0.112-0.11l0.149-0.109l0.218-0.112l0.221-0.037l0.185-0.037l0.147,0.074l0.222,0.073l0.071,0.039l0.15,0.072l0.184,0.147
		l0.073,0.038l0.111,0.107l0.075,0.15l0.111,0.183l0.073,0.554l-0.112,0.517l-0.035,0.331l-0.077,0.184l-0.035,0.554v0.662
		l0.075,0.664l0.037,0.293v1.328l-0.112,0.664l0.035,0.92v0.443l-0.035,0.223l-0.037,0.994v0.443l0.037,0.514l0.294,0.925
		l0.074,0.92l0.037,0.44l0.221,2.101v0.59l0.038,0.368v0.442l-0.147,0.85l-0.442,1.546l-0.075,0.077l-0.037,0.181l-0.111,0.147
		l-0.371,0.555l-0.44,0.331l-0.554,0.037l-0.442-0.113l-0.368-0.255l-0.037-0.147l-0.11-0.147l-0.037-0.187l-0.074-0.221v-0.294
		l-0.035-0.147l-0.038-0.147v-0.294c-0.025-0.294-0.049-0.466-0.074-0.515l-0.037-0.258l-0.037-0.405l-0.037-0.629l-0.037-0.406
		v-0.589L103.302,30.614 M84.283,29.03l1.475-0.112h0.478l1.584,0.147l1.77,0.184l0.739,0.038l0.515-0.11l0.515-0.112l0.442-0.109
		l0.186-0.077l0.221,0.038l0.034,0.112l0.112,0.109l0.111,0.075l0.038,0.109l0.037,0.369l-0.037,0.221l-0.149,0.258l-0.221,0.147
		l-0.184,0.223l-0.112,0.149l-0.072,0.144c-0.098,0.052-0.173,0.118-0.222,0.202c-0.047,0.089-0.109,0.143-0.182,0.169l-0.258,0.111
		l-0.334-0.037H90.66l-0.222-0.112l-0.107-0.035l-0.186-0.074l-0.112-0.038l-0.219,0.038l-0.15,0.038l-0.182,0.035h-0.224
		l-0.663,0.073l-0.515,0.037l-0.48,0.037l-0.995,0.037h-0.184l-0.479,0.11l-1.03,0.037l-0.479-0.037l-0.405-0.074L83.4,31.315
		l-0.998-0.037l-0.44,0.037l-0.331,0.11c-0.026,0.023-0.049,0.037-0.073,0.037l-0.406,0.186l-0.295,0.221l-0.442,0.294l-0.592,0.334
		l-0.146,0.144l-0.038,0.074l-0.147,0.221l-0.219,0.184l-0.258,0.187l-0.331,0.111H78.57l-0.846-0.184l-0.333-0.371l-0.257-0.737
		l-0.111-0.442v-0.587l0.037-0.701l0.039-0.333l0.146-0.334l0.109-0.367l0.259-0.515l0.48-0.555l0.109-0.221l0.077-0.183
		l0.109-0.259l0.149-0.258l0.295-0.664l0.184-0.624l0.11-0.664l0.147-0.923v-0.552l-0.038-0.515V23.06l-0.109-0.331l-0.222-0.664
		l-0.184-0.368l-0.109-0.333l-0.038-0.184l-0.11-0.147l-0.038-0.222l-0.184-0.259l-0.109-0.146l-0.221-0.664v-0.477l0.147-0.259
		l0.074-0.075c-0.026-0.12,0-0.183,0.072-0.183l0.186-0.147l0.258-0.222h0.405l0.296-0.073l0.185-0.074l0.775-0.072l0.511,0.072
		l0.483,0.074h0.331l0.331-0.037l0.589-0.037l0.478-0.037L83.4,18.23l0.627,0.037l0.662-0.037h0.479l0.515-0.072l0.331-0.04
		l0.405-0.037h1.624l0.366,0.037l0.296,0.112l0.443,0.074l0.258,0.037h0.333l0.256,0.037h0.334l0.33,0.038l0.405,0.035l0.629,0.037
		h0.144l0.221,0.037l0.258,0.184l0.075,0.074l0.074,0.186v0.517l-0.111,0.33l-0.221,0.221l-0.222,0.112l-0.258-0.075h-0.144
		l-0.187-0.037L90.954,20l-0.699-0.037l-0.515-0.038h-1.254l-0.371,0.038h-0.402L87.192,20l-0.44,0.035l-0.333,0.037h-1.178
		l-0.405-0.037l-0.298,0.037h-0.365l-0.59,0.038l-0.222,0.074h-0.149l-0.184,0.074l-0.44,0.075l-0.333,0.072h-0.443l-0.328,0.037
		l-0.406,0.147l-0.11,0.035v0.15l-0.037,0.184l0.037,0.184l0.035,0.478l0.037,0.443l-0.037,0.331v0.664l-0.109,0.59l-0.038,0.367
		l-0.04,0.296l-0.032,0.219L80.71,24.83v0.662l-0.075,1.031l-0.077,0.149l-0.074,0.59v0.331l-0.071,0.552l0.144,0.295l0.113,0.221
		c0.023,0.026,0.068,0.074,0.129,0.147c0.061,0.072,0.106,0.11,0.13,0.11l0.037,0.112l0.405,0.184h0.184l0.11,0.035l0.258-0.035
		l0.294,0.035l0.147-0.035l0.184-0.075h0.221l0.515-0.037L84.283,29.03z"/>
	<path class="st0" d="M137.045,26.673v0.883l0.074,0.627l0.037,0.221v0.294l-0.037,0.294v0.222l-0.074,0.44l-0.184,0.074
		l-0.331,0.15l-0.296,0.035l-0.146,0.037h-0.37l-0.182,0.035l-0.224,0.077l-0.147,0.035l-0.146,0.111l-0.222,0.037l-0.074,0.037
		l-0.185,0.112l-0.035,0.074l-0.296,0.109h-0.184l-0.147-0.109l-0.035-0.222l-0.038-0.219l-0.035-0.297v-0.405l-0.112-0.221V28.92
		l-0.037-0.184l-0.074-0.406l0.074-0.442l0.037-0.366v-0.333l0.075-0.296l0.037-0.185v-0.219l0.035-0.184v-1.77l-0.072-0.442
		l-0.075-0.663l-0.037-0.848v-1.955l0.037-0.221l0.075-0.184l-0.112-0.147v-0.219l-0.037-0.222l-0.074-0.258v-0.59l0.294-0.81
		c0.172-0.245,0.302-0.431,0.388-0.554c0.086-0.123,0.141-0.195,0.166-0.219l0.183-0.185l0.296-0.186l0.259-0.146l0.295-0.074
		l0.515-0.037l0.258,0.037l0.296,0.074l0.109,0.074l0.075,0.147l0.075,0.11l0.219,0.296c0.074,0.098,0.135,0.146,0.184,0.146
		l0.147,0.258l0.186,0.333v0.221l0.074,0.661v0.336l0.072,0.182l0.074,0.258v0.072l-0.074,0.627v0.075
		c0,0.028,0.049,0.037,0.147,0.037l0.296,0.109h0.48l0.184,0.04c0.098,0.023,0.184,0.034,0.258,0.034l0.221,0.038l0.406,0.074
		l0.331,0.147l0.368,0.074l0.48,0.075h0.957l0.186,0.035l0.182,0.038l0.074,0.219l-0.074,0.114l-0.072,0.258l-0.258,0.479
		l-0.075,0.147l-0.184,0.184l-0.11,0.11l-0.073,0.112l-0.184,0.146l-0.184,0.075l-0.256,0.037l-0.186-0.037l-0.184-0.037
		l-0.443-0.075l-0.369-0.073l-0.221-0.035h-1.583l-0.298,0.035v0.258l-0.035,0.406v0.48l-0.037,0.331v0.517l-0.11,0.662
		l-0.037,0.219l-0.038,0.259l-0.037,0.296L137.045,26.673 M122.193,26.635l0.221-0.514l0.074-0.112v-0.184l0.035-0.147l0.038-0.699
		l-0.222-0.703l-0.293-0.478l-0.406-0.221l-0.259-0.11l-0.368-0.074h-0.368l-0.147,0.074h-0.405l-0.222,0.11l-0.258,0.037
		l-0.221,0.074l-0.333,0.147l-0.295,0.294l-0.109,0.075l-0.074,0.147l-0.149,0.258l-0.109,0.186v0.146
		c-0.026,0.026-0.04,0.072-0.04,0.149l-0.037,0.035v0.074l-0.035,0.222l-0.037,0.331l0.109,0.37l0.186,0.219l0.074,0.183
		l0.147,0.112l0.147,0.072l0.075,0.152l0.221,0.107l0.184,0.112l0.147,0.074l0.296,0.146l0.293,0.075l0.331-0.037l0.37-0.038
		l0.186-0.035l0.367-0.074l0.297-0.075l0.035-0.035l0.256-0.147L122.193,26.635z M136.934,34.006l0.296,0.11l0.147,0.077
		l0.219,0.071h0.482l0.55,0.077l0.333,0.034l0.147,0.114l0.184,0.034l0.186,0.037l0.072,0.074l0.074,0.04l0.111,0.037l0.112,0.074
		l0.074,0.074L140.141,35l0.075,0.15v0.221l-0.11,0.037l-0.075,0.074l-0.147,0.147l-0.112,0.073l-0.074,0.074l-0.184,0.034
		l-0.184,0.113l-0.147,0.037H139l-0.112,0.074l-0.221,0.037l-0.222,0.11l-0.258,0.074l-0.147,0.073h-0.147l-0.149-0.037l-0.147-0.11
		l-0.11-0.11l-0.074-0.037l-0.147-0.037l-0.701-0.147h-0.331l-0.515-0.04h-0.738l-0.517-0.034h-1.36l-0.259-0.074h-0.296
		l-0.111-0.11l-0.258-0.11h-0.294l-0.664-0.074h-0.258l-0.256-0.037h-0.776l-0.221-0.074h-0.258l-0.224-0.077l-0.144-0.034
		l-0.222,0.034l-0.182,0.04h-0.224l-0.146,0.074l-0.149,0.037h-0.146l-0.222,0.037l-0.294,0.074l-0.442,0.11l-0.885,0.074h-0.11
		l-0.297,0.037h-0.403l-0.699-0.11h-0.885l-0.075,0.037h-0.44l-0.333,0.073h-1.696l-0.259,0.074h-0.11l-0.181,0.034l-0.298,0.113
		l-0.11,0.11l-0.146,0.037l-0.517,0.077l-0.186,0.034l-1.215,0.11l-1.106-0.11l-0.736,0.074l-0.664,0.073l-0.184,0.074l-0.223,0.11
		l-0.147,0.113l-0.109,0.11h-0.848l-0.554-0.11l-0.221-0.04l-0.258-0.147l-0.112-0.037l-0.219-0.037l-0.112-0.184l-0.073-0.147
		l-0.037-0.184v-0.662l0.074-0.261l0.037-0.218v-3.502l0.075-0.259l0.146-0.221l0.075-0.222l0.109-0.109l0.038-0.112l0.258-0.037
		l0.184-0.037l0.149-0.111l0.184-0.072l0.221-0.04l0.219-0.035h0.185l0.184,0.035h0.37l0.33,0.077l0.259,0.183l0.221,0.186
		l0.147,0.184l0.109,0.038l0.077,0.147l0.111,0.146v0.149l-0.038,0.92l-0.149,0.37v0.221l-0.071,0.184l-0.075,0.295l-0.073,0.221
		v0.405l0.219,0.074l0.187,0.037l0.184,0.037l0.183,0.074h0.48l0.185,0.037h0.146l0.922,0.037l1.584,0.037l0.185-0.037l0.146-0.037
		h1.181l0.627-0.147l0.294-0.037l1.547-0.11h0.922l0.112-0.037l0.183-0.037l0.149-0.037l0.293-0.034h0.443l0.331-0.077l0.846-0.074
		l0.554-0.074h1.733l0.184,0.074h0.478l0.37,0.037l0.186,0.037l0.331,0.077l0.293,0.034h0.627l0.922,0.111l0.515-0.037l0.442,0.037
		h0.922l0.294,0.037h0.334l0.403,0.074l0.331,0.073l0.296,0.074L136.934,34.006z M127.314,19.08l0.408,0.074l0.256,0.035l0.37,0.077
		l0.591,0.109c0.097,0.025,0.158,0.06,0.184,0.11l0.074,0.186v0.256l-0.074,0.11l-0.184,0.077l-0.075,0.072l-0.147,0.111
		l-0.075,0.072l-0.074,0.074l-0.11,0.149l-0.146,0.147l-0.221,0.074h-0.112l-0.219,0.072l-1.107,0.112l-0.403,0.037l-0.37,0.037
		l-0.259,0.039h-0.551l-0.406,0.035h-0.296l-0.478,0.11l-0.331,0.038l-0.184-0.038l-0.074,0.075l-0.074,0.072v0.223l0.11,0.149
		l0.146,0.111l0.184,0.184l0.259,0.256l0.184,0.224l0.185,0.146l0.072,0.186l0.112,0.11c0.046,0.023,0.084,0.074,0.11,0.147
		l0.11,0.147l0.112,0.184l0.072,0.258l0.074,0.149l0.072,0.146l0.075,0.333l0.072,0.182l0.113,0.221l0.035,0.112l0.11,0.222
		c0.026,0.048,0.037,0.123,0.037,0.221l0.035,0.147l0.077,0.294v0.109l0.035,0.296v0.367l-0.035,0.259l-0.038,0.296l-0.038,0.403
		l-0.331,0.664l-0.331,0.368l-0.331,0.222l-0.405,0.258l-0.184,0.074l-0.331,0.112l-0.187,0.072l-0.218,0.074l-0.185,0.075
		l-0.184,0.074l-0.258,0.072l-0.222,0.038l-0.111,0.037h-0.368l-0.443,0.035h-0.554l-0.81,0.074h-0.663l-0.554-0.035l-0.442-0.074
		l-0.221-0.037l-0.333-0.184l-0.295-0.111l-0.331-0.222l-0.221-0.184l-0.294-0.331l-0.222-0.368l-0.147-0.296l-0.149-0.181
		l-0.035-0.15l-0.074-0.075l-0.037-0.146l-0.073-0.147l-0.11-0.149l-0.039-0.181l-0.035-0.371l-0.074-0.147l-0.037-0.149v-0.146
		l-0.075-0.186l-0.072-0.367l-0.037-0.184v-0.701l0.109-0.405l0.112-0.259l0.074-0.147l0.074-0.146l0.11-0.149l0.035-0.147
		l0.113-0.221l0.147-0.186l0.184-0.218l0.11-0.15c0.049-0.074,0.11-0.147,0.183-0.219l0.149-0.112l0.147-0.184l0.259-0.295
		l0.294-0.258l0.479-0.186l-0.443-0.147h-0.33l-0.482-0.038l-0.44-0.074l-0.629-0.073l-0.256-0.112h-1.107l-0.147,0.112
		l-0.219,0.112l-0.258,0.035l-0.222,0.038l-0.184,0.111l-0.222,0.109l-0.109,0.038l-0.221-0.038l-0.075-0.109l-0.221-0.333
		l-0.072-0.293l0.035-0.261v-0.627l0.221-0.403l0.037-0.109l0.075-0.15l0.109-0.072l0.147-0.037l0.333-0.037l0.258-0.074
		l0.112-0.112l0.184-0.074h0.293l0.221-0.072l0.407-0.074l0.442,0.037l0.554-0.037l0.59-0.038l0.293,0.038l0.296,0.074l0.37,0.072
		c0.219,0.074,0.331,0.124,0.331,0.149l0.294,0.037l0.219-0.037l0.186-0.037l0.184-0.112l0.147-0.072l0.258-0.037l0.112-0.149
		l0.147-0.074l0.074-0.074l0.072-0.074l0.15-0.149l0.146-0.109l0.038-0.038l0.074-0.182l0.074-0.296l0.11-0.256l0.035-0.075
		l0.147-0.072l0.149-0.075l0.11-0.073l0.48-0.075h0.147l0.219-0.035h0.297l0.184,0.035l0.182,0.112l0.223,0.074l0.221,0.11
		l0.221,0.149l0.184,0.146l0.149,0.184l0.035,0.149l0.074,0.294l-0.035,0.221l0.035,0.11l-0.035,0.331v0.185l0.074,0.147h0.587
		l0.186-0.074l0.147-0.04l0.294,0.04h1.733l0.147,0.037l0.258-0.037l0.296,0.037l0.258,0.037L127.314,19.08z"/>
	<path class="st0" d="M171.592,18.601c0-0.025,0.006-0.067,0.018-0.13c0.012-0.063,0.018-0.129,0.018-0.202l0.037-0.186l0.037-0.109
		l0.113-0.221l0.071-0.11l0.074-0.186v-0.11l0.147-0.368l0.074-0.184l0.11-0.112l0.11-0.035l0.258-0.037l0.298,0.037h0.147
		l0.184,0.035h0.365l0.334,0.147l0.258,0.149l0.295,0.295l0.037,0.074l0.074,0.11l0.037,0.186l0.037,0.072l0.037,0.259l0.04,0.219
		l0.074,0.259l0.034,0.554l0.037,0.221v1.363l0.04,0.221l0.037,0.296l0.037,0.995l-0.037,0.662l-0.147,0.886l-0.224,1.693
		l-0.037,0.443l0.037,0.368l0.037,0.405l0.037,0.221v0.222l-0.037,0.258v0.184l-0.147,0.111l-0.221,0.073l-0.074,0.077h-0.478
		l-0.405-0.04l-0.184-0.037l-0.479-0.073h-0.847l-0.224-0.111l-0.111-0.368l0.037-0.59l-0.037-1.067v-0.811l-0.11-0.147l-0.147-0.11
		l-0.331-0.037l-0.221-0.039h-0.368l-0.15,0.039l-0.221,0.037l-0.074,0.035l-0.184,0.038l-0.184,0.037h-0.221l-0.331,0.037h-2.69
		l-0.258,0.11l-0.515,0.074l-0.187,0.037l-0.221-0.037h-0.294l-0.221-0.074l-0.147-0.184l-0.147-0.259v-0.514l0.074-0.149
		l0.074-0.111l0.037-0.112l0.037-0.111l0.11-0.074l0.184-0.109l0.147-0.038h0.187l0.479-0.112l0.405-0.034l0.258-0.072h0.552
		l0.478-0.04h0.224l0.773-0.037l0.147-0.037h1.365l0.405,0.037l0.258,0.037l0.184,0.04h0.258l0.147-0.04l0.147-0.221l0.037-0.074
		l0.037-0.147l0.074-0.147l0.074-0.331l0.073-0.258v-0.222l-0.11-0.184l-0.073-0.075l-0.331,0.037h-0.074l-0.295,0.039l-0.478,0.074
		h-0.813l-0.295,0.072l-0.294,0.038l-0.331,0.109l-0.187,0.038l-0.218-0.038l-0.81,0.038l-0.85-0.038h-0.442l-0.221,0.038h-0.184
		l-0.187,0.035l-0.11,0.112l-0.405,0.074l-0.258-0.074l-0.074-0.112l-0.147-0.035l-0.037-0.073v-0.222
		c0.049-0.219,0.061-0.342,0.037-0.367l0.037-0.186l0.074-0.294l0.037-0.442l0.074-0.37l0.111-0.184l0.11-0.147l0.297-0.038h0.442
		l0.331-0.035l0.258,0.035l0.074,0.038l0.11,0.074l0.221,0.074l0.221,0.074l0.184,0.035l0.298,0.038h0.773l0.479,0.037l0.294-0.037
		l0.221-0.038l0.626-0.035l0.665,0.035l0.663-0.035l0.184-0.074h0.294l0.147-0.258v-0.294L171.592,18.601 M155.927,21.882h-0.365
		l-0.482,0.074l-0.331,0.035h-0.555l-0.221-0.035l-0.365,0.035l-0.187,0.073h-0.184l-0.221,0.039h-1.067l-0.37,0.035l-0.515,0.038
		l-0.185,0.037l-0.147,0.258v0.333l0.075,0.331l-0.075,0.109l-0.037,0.663l0.037,0.259v0.554l-0.037,0.221l-0.073,0.11l-0.147,0.184
		v0.186l0.074,0.037h0.147l0.224-0.037h0.367l0.222,0.037h0.146l0.22-0.037l0.184-0.038l0.187-0.037l0.221-0.072h3.945l0.147-0.075
		h0.258l0.074-0.035h2.984l0.368-0.038v-2.32l0.037-0.186l0.037-0.221l0.074-0.221l0.037-0.112l0.037-0.405l-0.037-0.074h-0.515
		l-0.294,0.074l-0.258,0.074l-0.11,0.038l-0.368,0.035l-0.224-0.035h-2.024l-0.294,0.035l-0.15,0.037L155.927,21.882z
		 M147.745,31.981v-0.258l0.04-0.445l0.035-0.331l0.037-0.369l0.075-0.331v-0.331l0.035-0.147l-0.035-0.222l0.035-0.184l0.147-0.221
		l0.074-0.037l0.112-0.037l0.184-0.109l0.11-0.038h0.146c0.025-0.021,0.051-0.037,0.075-0.037c0.025,0,0.049-0.023,0.074-0.074
		c0.147-0.048,0.258-0.074,0.333-0.074l0.147-0.037l0.182-0.037h0.296l0.074,0.073l0.11,0.074c0.123,0.051,0.172,0.074,0.147,0.074
		l0.074,0.037l0.072,0.112l0.11,0.035l0.112,0.074v0.11l0.038,0.074l-0.038,0.259l0.038,0.072v0.259l0.035,0.295v0.702l0.038,0.072
		v1.439l0.072,0.074l0.187,0.11h1.47l0.408-0.037h1.328l0.405-0.04h0.221l0.258,0.04h0.405l0.258,0.037h0.96l0.221-0.037
		l0.626-0.113l0.441-0.034h0.813l0.221-0.037l0.589,0.037l0.331-0.077h0.368l0.405-0.035l0.776,0.035h0.221l0.331,0.04l0.184,0.071
		l0.221,0.074l0.442,0.11l0.555,0.04l0.405,0.037h3.095l0.334-0.077l0.331-0.034l0.331-0.15l0.402,0.04l0.629-0.074l0.294-0.037
		l0.331,0.037l0.297-0.037h1.472l0.258,0.037l0.261,0.074l0.218-0.04h0.994l0.15-0.034h0.475l0.334,0.034l0.221,0.113l0.331,0.07
		l0.184,0.077c0.249,0.074,0.396,0.132,0.445,0.184l0.328,0.074l0.592,0.037l0.442,0.074l0.187,0.221l0.034,0.294v0.184
		l-0.034,0.258l-0.114,0.297l-0.258,0.218h-0.662l-0.331-0.037l-0.478-0.034l-0.445-0.037l-0.368-0.04h-0.334l-0.328,0.11
		l-0.331,0.037l-0.334,0.037l-0.405,0.077h-0.147l-0.147,0.037l-0.11,0.034l-0.294,0.074h-0.331l-0.221,0.04l-0.147-0.04
		l-0.258-0.107h-0.184l-0.331-0.037h-0.224l-0.258,0.037l-0.552-0.037l-0.221-0.077l-0.184-0.074l-0.847,0.037l-0.331-0.037
		l-0.297,0.074l-0.11,0.077l-0.258,0.037l-0.442,0.107L165.991,35h-0.111l-0.11,0.04l-0.445,0.074l-0.181-0.074l-0.187-0.077h-0.81
		l-0.957-0.107l-0.552-0.074l-0.445-0.074l-0.184-0.037l-0.442-0.04l-0.294-0.037h-0.629l-0.589,0.077l-0.368-0.077h-0.663
		l-0.482-0.107h-0.552l-0.405,0.107l-0.368,0.077h-0.221l-0.147,0.037l-0.258,0.107l-0.295,0.04l-0.297,0.071L155.707,35h-0.883
		l-0.261-0.037l-0.255-0.037h-0.184l-0.331,0.037l-0.298-0.071l-0.294,0.034h-0.258l-0.294,0.037l-0.552,0.077l-0.404,0.074
		l-0.149,0.037l-0.296,0.037l-0.222,0.184l-0.147,0.073l-0.258,0.037l-0.186,0.184l-0.11,0.037l-0.146,0.037l-0.221,0.11
		l-0.074,0.11l-0.11,0.074h-0.774l-0.147,0.037h-0.112l-0.109-0.037l-0.111,0.037h-0.406l-0.258-0.037l-0.146-0.037l-0.149-0.221
		v-0.147l-0.074-0.331L147.414,35l-0.035-0.328l0.074-0.371l0.037-0.221l0.074-0.147l0.182-0.221v-1.438c-0.021,0-0.021,0,0,0
		V31.981z M163.448,24.609l0.037,0.736v0.406l-0.037,0.109l-0.073,0.186l-0.077,0.11l-0.037,0.147l-0.034,0.11l-0.037,0.109
		l-0.077,0.15l-0.034,0.185l-0.113,0.146l-0.107,0.147l-0.04,0.11l-0.074,0.147l-0.073,0.072l-0.11,0.075h-0.107l-0.261,0.11
		l-0.147,0.112l-0.221,0.109h-0.552l-0.184-0.073l-0.334-0.219l-0.111-0.038l-0.074-0.368l-0.331,0.109l-0.515,0.038l-0.184,0.037
		l-0.147,0.037l-0.331,0.037l-0.81,0.111h-2.84l-0.294,0.038l-0.187-0.038h-1.73l-0.294-0.035l-0.702-0.075h-0.956l-0.294,0.111
		l-0.294,0.038l-0.224,0.184l-0.218,0.109h-0.112l-0.258,0.074l-0.258,0.11l-0.368,0.074h-0.222l-0.147,0.038l-0.294,0.037h-0.294
		l-0.331,0.074l-0.187,0.075h-0.331l-0.147-0.075l-0.183-0.074l-0.185-0.11v-0.222l-0.074-0.366l-0.035-0.408l0.035-0.221
		l0.074-0.146l0.038-0.185v-0.186l-0.038-0.146v-0.333l0.038-0.072v-0.331l-0.038-0.296l0.038-0.258v-0.295l0.147-0.442v-1.366
		l-0.075-0.515v-0.624l0.075-0.555l0.037-0.331l0.035-0.443l-0.035-0.366l-0.037-0.296l0.037-0.185l0.035-0.146v-0.368l0.038-0.184
		l0.147-0.405l0.072-0.149l0.075-0.221l0.074-0.112l0.222-0.331l0.11-0.219l0.109-0.184l0.184-0.112l0.147-0.074l0.259-0.037
		l0.258-0.037l0.295-0.037h0.738l0.112,0.073l0.183,0.037l0.038,0.074l0.035,0.07l0.072,0.114l0.038,0.112l0.072,0.072v0.186
		l0.077,0.293l0.035,0.184l0.038,0.222v0.295l0.035,0.112v0.258l0.038,0.147l0.184,0.221h2.211l0.515,0.035h0.294l0.629,0.038h0.184
		l0.294,0.037l0.295-0.037l0.184,0.037h0.887l0.221-0.037h0.368l0.331-0.038h0.626l0.589-0.035c0.172,0,0.31-0.025,0.408-0.074
		h0.129c0.012,0,0.043-0.012,0.092-0.035h0.147l0.147-0.038h0.184l0.147-0.112l0.147-0.072l0.074-0.037l0.11-0.037l0.221-0.147
		l0.074-0.112l0.074-0.331l-0.074-0.219l-0.074-0.224l-0.037-0.035v-0.331l0.037-0.184l0.074-0.038l0.074-0.146l0.147-0.147
		l0.113-0.038l0.071-0.074l0.224-0.037l0.111-0.037l0.147-0.038l0.184-0.035l0.147-0.037h0.331l0.147-0.037l0.221,0.074l0.187,0.074
		l0.184,0.11l0.144,0.037l0.147,0.074l0.261,0.147l0.184,0.149l0.073,0.146v0.073l0.037,0.149v0.957l-0.037,0.478l0.037,0.221
		l-0.037,0.445v0.256l0.037,0.627v1.034l0.034,0.591v0.626l0.04,0.33l-0.04,0.334L163.448,24.609z"/>
	<path class="st0" d="M197.084,27.555l0.224-0.146l0.147-0.147l0.11-0.185l0.074-0.186l0.221-0.144v-0.147l0.074-0.224v-1.179
		l-0.037-0.478l-0.037-0.219h-0.074l-0.147-0.112l-0.074-0.111l-0.071-0.035l-0.04-0.077l-0.074-0.035l-0.074-0.147l-0.147-0.11
		l-0.037-0.11l-0.147-0.111l-0.11-0.112c-0.025-0.025-0.052-0.049-0.074-0.072c-0.028-0.025-0.064-0.049-0.113-0.074l-0.184-0.149
		l-0.181-0.075l-0.147-0.035h-0.114l-0.254-0.11v-0.074l-0.15-0.112l-0.184-0.035l-0.255-0.037h-0.153l-0.258,0.037l-0.328,0.074
		l-0.111,0.074l-0.147,0.037l-0.15,0.073l-0.074,0.074l-0.221,0.075l-0.074,0.035l-0.221,0.074l-0.037,0.075l-0.074,0.035
		l-0.184,0.074l-0.221,0.184l-0.11,0.112l-0.11,0.074l-0.114,0.331l-0.107,0.147l-0.074,0.149l-0.037,0.255l-0.074,0.259
		l-0.184,0.406l-0.074,0.331v0.294l0.074,0.222l0.034,0.147l0.187,0.147l0.073,0.146l0.181,0.15l0.298,0.181l0.442,0.224
		l0.184,0.147l0.258,0.11l0.184,0.035h0.736l0.114,0.074l0.11,0.077l0.184,0.109l0.221,0.035l0.294,0.038l0.15-0.109l0.147-0.039
		l0.515-0.147l0.295-0.038H197.084 M193.695,29.878l-0.368-0.222l-0.218-0.11l-0.371-0.147l-0.295-0.074l-0.331-0.075l-0.11-0.111
		l-0.184-0.147l-0.147-0.074l-0.111-0.11l-0.184-0.147l-0.074-0.11l-0.11-0.147l-0.077-0.075l-0.034-0.072l-0.113-0.073
		l-0.037-0.184l-0.184-0.184l-0.074-0.186l-0.074-0.074h-0.147l-0.074-0.035l-0.037-0.149l-0.037-0.109l-0.147-0.224l-0.111-0.221
		l-0.037-0.183l-0.077-0.185l-0.11-0.221l-0.074-0.146l-0.071-0.333l0.037-0.589l0.074-0.11l0.184-0.221l0.037-0.296l0.037-0.147
		v-0.184l0.111-0.221l0.147-0.184l0.074-0.221l0.147-0.11c0.073-0.049,0.123-0.074,0.147-0.074l0.074-0.149l0.077-0.11l0.107-0.11
		l0.074-0.147l0.077-0.258l0.071-0.147l0.074-0.038l-0.074-0.07l-0.295-0.15l-0.221-0.037h-0.295l-0.294,0.037l-0.224-0.037
		l-0.144-0.074h-0.552l-0.15-0.037h-1.031l-1.034-0.037l-0.294-0.11h-0.294l-0.295,0.074l-0.11,0.073h-0.224l-0.258,0.074
		l-0.405,0.037l-0.442,0.037l-0.184,0.038l-0.258,0.112h-0.515l-0.221-0.15l-0.111-0.074l-0.074-0.037l-0.037-0.037l-0.147-0.182
		l-0.073-0.038l-0.077-0.147l-0.108-0.184l-0.073-0.075l-0.04-0.294l0.074-0.149l0.114-0.184l0.034-0.146l0.077-0.222l0.037-0.109
		l0.11-0.112l0.147-0.073l0.184-0.075l0.295-0.109l0.147-0.073l0.074-0.037l0.147-0.038h0.442l0.147-0.037l0.331-0.035h0.224
		l0.11-0.038h0.258l0.11,0.038h0.589l0.294,0.035l0.515-0.035h0.813l0.957,0.035l1.475-0.035h0.626l0.187,0.035h0.184l0.254-0.035
		h0.187l0.184,0.035h0.736l0.294-0.035h0.258l0.147,0.035v-0.183l-0.037-0.296l-0.187-0.258l-0.104-0.147v-0.701l0.034-0.11
		l0.07-0.037l0.113-0.072l0.074-0.147l0.037-0.112l0.221-0.074l0.037-0.038l0.11-0.109l0.147-0.038l0.037-0.037l0.074-0.074
		l0.408-0.146l0.294-0.075l0.11-0.072l0.074-0.038l0.184-0.072h0.077l0.218-0.074h0.074l0.405,0.074l0.147,0.072l0.114,0.038
		l0.071,0.072l0.037,0.075l0.147,0.11l0.04,0.146l0.074,0.075l0.107,0.147l0.114,0.073c0.025,0.075,0.049,0.123,0.07,0.147
		l0.04,0.147l0.11,0.258l0.074,0.222v0.333l-0.074,0.147l-0.037,0.072l-0.074,0.11v0.258l0.11,0.074h0.184l0.147-0.074h0.147
		l0.147,0.074l0.258-0.035h0.074l0.331,0.035l0.184,0.037l0.334-0.037l0.402,0.075l0.261,0.037l0.184,0.037l0.147,0.035h0.883
		l0.331,0.038l0.187-0.038h0.623l0.408,0.038l0.623,0.035l0.739,0.112h0.187l0.221,0.037l0.405,0.037h0.626l0.295-0.037l0.368,0.037
		h0.666l0.331,0.074h0.295l0.442,0.035h0.257l0.368,0.075h0.297l0.294,0.037l0.071,0.037h0.224l0.144,0.184l0.113,0.075v0.219
		l-0.113,0.037h-0.107l-0.037,0.074l-0.037,0.184l-0.114,0.112l-0.074,0.11l-0.107,0.183l-0.077,0.113l-0.144,0.072l-0.114,0.112
		l-0.071,0.074l-0.15,0.074l-0.037,0.146l-0.111,0.075l-0.073,0.037h-0.184l-1.141,0.037l-0.479-0.037l-0.334-0.037l-0.662-0.037
		l-0.515-0.038h-0.184l-0.257-0.107l-0.442-0.077l-0.555-0.035h-2.024l-0.15,0.035h-0.442l-0.221,0.038l-0.074,0.038l-0.11,0.035
		l-0.147,0.11l-0.11,0.037l-0.184,0.147l-0.037,0.184v0.222l0.073,0.368l0.037,0.147l0.11,0.075l0.037,0.109l0.11,0.11l0.11,0.149
		l0.147,0.146l0.037,0.075l0.11,0.107l0.111,0.482l0.074,0.112l0.037,0.219l0.071,0.112l0.04,0.109l0.11,0.186l0.11,0.109
		l0.037,0.185l0.074,0.11l0.04,0.405l-0.04,0.813l-0.074,0.33l-0.147,0.333l-0.037,0.146h-0.074l-0.11,0.294v0.038l-0.037,0.11
		l-0.037,0.072l-0.074,0.112c-0.046,0.024-0.11,0.063-0.184,0.109l-0.074,0.077l-0.11,0.109l-0.147,0.074l-0.073,0.11l-0.111,0.074
		l-0.11,0.112c-0.049,0.072-0.068,0.106-0.055,0.092c0.012-0.012,0.006-0.02-0.021-0.02c0,0.025-0.046,0.061-0.144,0.112
		l-0.187,0.035l-0.147,0.184l-0.184,0.112l-0.108,0.112l-0.147,0.072l-0.077,0.038l-0.258,0.072l-0.331,0.072l-0.11,0.112
		l-0.184,0.074l-0.037,0.15l-0.037,0.183l-0.071,0.184l-0.04,0.184v0.811l-0.037,0.296l0.077,0.477l0.071,0.075h0.221l0.295,0.037
		h0.11l0.331,0.036h0.224l0.147-0.036h0.258l0.184-0.037h0.552l0.147-0.075l0.184-0.035l0.221-0.037h0.442l0.111-0.037h0.518
		l0.478,0.109h0.368l0.331-0.035l0.294,0.035l0.184-0.072h0.445l0.107,0.037l0.221,0.035l0.371,0.038h1.512l0.184,0.037l0.218,0.037
		l0.261,0.073l0.184,0.037l0.365,0.11h0.334l0.294,0.037l0.221,0.073h1.178l0.261,0.077h0.221l0.147,0.147l0.147,0.11l0.224,0.034
		l0.071,0.15l0.073,0.147v0.663l-0.073,0.037l-0.148,0.184l-0.221,0.074l-0.147,0.037l-0.184,0.037h-0.11l-0.368,0.037l-0.111,0.074
		l-0.15,0.111v0.113l-0.107,0.107l-0.114,0.147L208.329,35h-0.923l-0.11-0.037l-0.184-0.074l-0.11-0.037l-0.11-0.074h-0.997
		l-0.295-0.037l-0.552-0.037l-0.257-0.074l-0.221-0.074l-0.442-0.037l-0.187-0.074h-0.258l-0.147,0.074l-0.258,0.037l-0.073,0.074
		l-0.516,0.04l-0.147,0.034l-0.221,0.037h-0.074l-0.11-0.037h-0.184l-0.074-0.034h-0.11l-0.187-0.04h-0.071l-0.221-0.074h-0.334
		l-0.221-0.037h-0.515l-0.405,0.037h-0.221l-0.258,0.037l-0.15,0.037l-0.181,0.04l-0.221,0.07l-0.224,0.111l-0.037,0.11L198.415,35
		l-0.261,0.114l-0.294-0.074l-0.074,0.074l-0.368-0.074h-0.184L196.977,35h-0.221l-0.261-0.037h-0.147l-0.181-0.11l-0.114-0.074
		h-0.254l-0.04,0.074h-0.549l-0.297-0.111l-0.482-0.037l-0.328-0.074l-0.15-0.037h-0.184l-1.031-0.037l-0.331,0.037l-0.074,0.077
		h-0.258l-0.073,0.034l-0.371,0.037l-0.254,0.111l-0.224,0.11L190.747,35h-0.589l-0.111,0.147l-0.331,0.074l-0.073,0.037h-0.224
		l-0.074-0.074L189.051,35l-0.478-0.073l-0.261-0.147l-0.218-0.107h-0.221l-0.371-0.04l-0.328-0.11l-0.408-0.11h-0.515l-0.294,0.037
		l-0.295-0.037l-0.261,0.037l-0.11,0.074l-0.368,0.037h-1.583l-0.184,0.037l-0.261,0.147l-0.221,0.147L182.6,35h-0.736l-0.147-0.037
		l-0.073-0.11c-0.077,0.025-0.111,0.025-0.111,0l-0.037-0.111l-0.147-0.07l-0.037-0.113l-0.074-0.221l0.037-0.224l0.111-0.107
		l0.037-0.037l0.074-0.074l0.071-0.184l0.077-0.037h0.037l0.037-0.111c-0.024,0.049-0.012,0,0.037-0.147l0.073-0.074l0.111-0.037
		l0.294-0.037l0.074,0.037l0.077-0.037h0.291l0.334-0.11l0.258-0.114l0.405-0.071h0.994l0.736-0.074h0.187l0.368-0.077l0.589-0.107
		h1.07l0.295-0.037h0.184l0.258-0.04h0.258l0.221-0.037l0.221-0.037h0.334l0.071,0.037h0.478l0.113-0.037l0.258,0.037l0.074-0.037
		l0.258,0.037h0.405l0.334,0.037l0.442,0.077h1.917l0.218-0.037l0.334-0.04l0.331-0.11l0.071-0.11l0.037-0.11l0.04-0.184
		l-0.077-0.295l-0.034-0.149l0.034-0.109l-0.034-0.149v-0.147l0.034-0.221l-0.034-0.147v-0.222l-0.147-0.147l-0.077-0.111
		l-0.037-0.147l-0.107-0.037l-0.184-0.075l-0.221-0.219L193.695,29.878z"/>
	<path class="st0" d="M234.673,23.981l-0.04-0.627v-1.068l-0.034-0.149l0.034-0.59l-0.034-0.515v-0.738L234.707,20l0.073-0.258
		l0.11-0.11l0.037-0.147l0.037-0.185l0.04-0.184v-0.221l0.034-0.147l-0.034-0.147v-0.626l0.107-0.222l0.111-0.182l0.077-0.113
		l0.107-0.111l0.077-0.109l0.034-0.077l0.037-0.035v-0.182l0.074-0.074l0.04-0.112l0.11-0.147l0.11-0.037
		c0.046-0.048,0.098-0.075,0.147-0.075h0.11l0.258-0.034l0.297,0.109l0.104,0.037l0.077,0.112l0.074,0.109l0.074,0.147l0.073,0.182
		l-0.073,0.186l-0.037,0.224v0.662v-0.222l0.037,0.96l0.037,0.109l0.037,0.147v0.331l0.074,0.186l0.261,0.33l0.034,0.149
		l0.073,0.112l0.037,0.072l0.147,0.075l0.221,0.037l0.331-0.112l0.626-0.111l0.889-0.147l0.368-0.075h0.295l0.405,0.038l0.221,0.037
		l0.11,0.037l0.181,0.037l0.114,0.037l0.114,0.075l0.071,0.035l0.184,0.074l0.11,0.109v0.185l0.037,0.296l-0.037,0.111v0.146
		l-0.074,0.149l-0.074,0.184l-0.147,0.261l-0.148,0.182l-0.15,0.037l-0.258,0.074l-0.07,0.037l-0.258,0.075l-0.257,0.035l-0.15,0.04
		l-0.368,0.07h-0.626l-0.442,0.112l-0.221,0.035l-0.224,0.038h-0.329l-0.184,0.035h-0.184l-0.15,0.038h-0.166
		c-0.009,0-0.052,0.037-0.126,0.11l-0.04,0.074l-0.074,0.074l-0.11,0.037l-0.037,0.149l-0.037,0.034l-0.147,0.408v0.109l0.037,0.186
		l0.074,0.293l0.073,0.112l0.11,0.405l0.15,0.552v0.368l-0.04,0.259l-0.074,0.074l-0.11,0.256l-0.073,0.114l-0.074,0.072v0.259
		l-0.11,0.183l-0.037,0.075v0.111l0.073,0.185l0.074,0.107v0.149l0.037,0.11v0.038l0.037,0.294l0.037,0.368l0.037,0.147v0.958
		l-0.037,0.222l-0.037,0.256v0.074l0.037,0.296v0.405l0.037,0.221c0,0.075,0.015,0.135,0.037,0.184v0.147l0.037,0.112v1.363
		l0.037,0.368v0.184l-0.037,0.15l-0.11,0.184l-0.257,0.074h-0.334l-0.181,0.037h-0.703l-0.144-0.074l-0.184-0.037l-0.15-0.147
		l-0.184-0.11l-0.107-0.15l-0.077-0.074l-0.107-0.11l-0.04-0.147l-0.074-0.221l0.04-0.257V31.61l0.034-0.331l0.04-0.185v-0.258
		l0.034-0.258v-0.294l-0.034-0.074l-0.04-0.112l-0.074-0.146l-0.074-0.074l-0.037-0.149l-0.037-0.111l-0.037-0.073l-0.034-0.072
		l-0.11-0.408l-0.043-0.219l-0.034-0.296v-0.771l0.034-0.224l0.187-0.589l0.037-0.331l0.037-0.221l0.037-0.224l-0.037-0.624
		l0.073-0.442l0.15-0.371V23.981 M216.905,26.561l0.295-0.589l0.187-0.59l0.074-0.331l0.107-0.37l0.074-0.182l0.813-1.954
		l0.147-0.294l0.221-0.368l0.258-0.37l0.077-0.186l0.221-0.221l0.037-0.112l0.037-0.146l0.037-0.074l0.071-0.149l0.077-0.146
		l0.071-0.186v-0.11l0.113-0.221l0.073-0.149c0.025-0.049,0.062-0.121,0.11-0.219l0.074-0.11l0.11-0.185l0.11-0.111l0.037-0.182
		l0.037-0.186l0.11-0.258c0.024-0.121,0.061-0.233,0.107-0.331l0.11-0.184l0.114-0.296l0.11-0.073l0.184-0.184l0.331-0.075
		l0.298-0.034h0.438l0.261-0.04h0.439l0.224,0.04l0.295,0.071l0.184,0.222l0.224,0.184l0.184,0.296l0.071,0.368l0.04,0.184
		l0.037,0.296v0.109l0.073,0.331l0.071,0.296l0.074,0.112L224.426,20l0.074,0.072l0.074,0.075l0.037,0.147l0.074,0.147l0.037,0.109
		l0.074,0.185l0.073,0.038l0.034,0.219v0.777l-0.107,0.367v1.328l0.073,0.184l0.034,0.221l0.043,0.293l0.107,0.222l0.11,0.147
		l0.073,0.331l0.037,0.147l0.074,0.184l0.037,0.222l0.077,0.331l0.071,0.184v0.256l0.037,0.15l0.04,0.183l0.034,0.224
		c0.049,0.121,0.11,0.538,0.187,1.251v0.221l0.034,0.627l0.147,0.515l0.111,0.222l0.037,0.295l0.04,0.074l0.071,0.146l0.074,0.149
		l0.037,0.146l0.114,0.186l0.107,0.186l0.077,0.48v0.366l-0.037,0.259l-0.184,0.294l-0.187,0.183l-0.291,0.258l-0.368,0.113h-0.887
		l-0.371-0.077l-0.107-0.144l-0.073-0.077l-0.037-0.074l-0.11-0.108v-0.112l-0.037-0.035v-0.112l-0.037-0.258v-0.555l-0.077-0.403
		l-0.07-0.333l-0.04-0.147v-0.147l-0.071-0.331v-0.331l-0.04-0.259l-0.037-0.222l-0.037-0.331V28.44l-0.073-0.221l-0.037-0.184
		l-0.074-0.147l-0.111-0.294l-0.07-0.038l-0.08-0.075l-0.034-0.144l-0.037-0.147l-0.034-0.149l-0.077-0.183v-0.222l-0.037-0.221
		v-0.186l-0.04-0.146c0-0.025-0.012-0.1-0.034-0.222l-0.04-0.074l-0.034-0.221V24.83l-0.11-0.37l-0.073-0.219l-0.074-0.15
		l-0.037-0.219v-0.258l-0.077-0.776l-0.07-0.366l-0.15-0.589l-0.071-0.111h-0.297l-0.07,0.034l-0.148,0.112l-0.076,0.147
		l-0.037,0.111l-0.074,0.187l-0.037,0.218l-0.037,0.186l-0.071,0.072l-0.037,0.112l-0.04,0.146l-0.073,0.114l-0.108,0.109
		l-0.113,0.259l-0.034,0.221l-0.076,0.109l-0.077,0.258l-0.033,0.112l-0.077,0.258l-0.034,0.147l-0.037,0.184l-0.11,0.331
		l-0.074,0.147l-0.073,0.149l-0.074,0.074l-0.037,0.112l-0.148,0.182v0.074l-0.11,0.11c-0.049,0.1-0.086,0.161-0.11,0.184
		l-0.184,0.147l-0.111,0.147v0.112l-0.074,0.222c0,0.049-0.015,0.098-0.037,0.146l-0.113,0.259l-0.107,0.218v0.075l-0.04,0.185
		l-0.037,0.147l-0.11,0.221l-0.073,0.11l-0.074,0.221v0.294l-0.037,0.149l-0.147,0.183l-0.071,0.296l-0.114,0.112l-0.037,0.146
		l-0.147,0.147l-0.11,0.147c0,0.026-0.012,0.063-0.037,0.112v0.038l-0.037,0.183l-0.037,0.184l-0.11,0.147l-0.077,0.11l-0.107,0.222
		l-0.074,0.221l-0.073,0.147l-0.073,0.223l-0.04,0.073l-0.034,0.035l-0.184,0.184l-0.076,0.186l-0.034,0.112l-0.15,0.072
		l-0.11,0.075l-0.107,0.108l-0.187,0.074l-0.107,0.11l-0.04,0.074l-0.034,0.037c-0.028,0.025-0.04,0.049-0.04,0.077l-0.147,0.037
		l-0.073,0.034h-0.074l-0.147-0.034l-0.148,0.034l-0.11-0.034h-0.184l-0.074-0.037h-0.147l-0.077-0.037l-0.108-0.04l-0.11-0.037
		l-0.073-0.037l-0.074-0.037l-0.037-0.034l-0.148-0.077l-0.15-0.074l-0.11-0.073l-0.147-0.11l-0.037-0.11l-0.073-0.074v-0.37
		l0.04-0.109l0.07-0.223l0.074-0.112l0.037-0.183l0.037-0.074l0.074-0.11l0.037-0.186l0.037-0.073l0.037-0.219l0.147-0.112
		l0.077-0.146l0.11-0.112l0.11-0.074l0.073-0.222l0.034-0.11l0.074-0.072l0.037-0.185l0.077-0.149l0.11-0.181l0.074-0.261
		l0.034-0.147l0.077-0.11l0.11-0.037l0.037-0.184l0.107-0.331c0.126-0.073,0.215-0.182,0.261-0.333l0.184-0.075l0.114-0.218
		l0.144-0.259l0.147-0.221L216.905,26.561z"/>
	<path class="st0" d="M267.576,26.121l-0.034-0.37l-0.074-0.073l-0.073-0.111l-0.221,0.035h-0.224l-0.184,0.111l-0.221,0.038
		l-0.221,0.037h-1.362l-0.739-0.037h-0.184l-0.997,0.037l-0.405-0.037l-0.331,0.037l-0.626,0.072h-0.331l-0.552-0.072h-0.114
		l-0.07-0.037l-0.184-0.073l-0.11-0.184V25.42l-0.04-0.11l0.04-0.221l0.073-0.258l0.071-0.112l0.114-0.11l0.107-0.11l0.077-0.037
		l0.184-0.075l0.11-0.072l0.184-0.039l0.11-0.035h0.221l0.111-0.037h0.331l0.184-0.075l0.147-0.037l0.261-0.074l0.221-0.035h0.184
		l0.696,0.109l0.371-0.147h1.328l0.295-0.038h1.178l0.331,0.038h0.224l-0.037-0.184l0.037-0.147l0.037-0.221v-0.701l-0.037-0.33
		l-0.037-0.075l-0.074-0.11l-0.04-0.074v-0.037l-0.074-0.11h-0.111l-0.184,0.035l-0.147,0.037l-0.221,0.038h-0.445l-1.656,0.037
		h-0.368l-0.589,0.074l-0.221,0.074h-0.258l-0.113,0.037l-0.071,0.075l-0.187,0.035l-0.071,0.074l-0.147,0.11l-0.15,0.074
		l-0.257,0.037h-0.11l-0.184-0.037h-0.221l-0.147-0.037l-0.221-0.074l-0.073,0.074l-0.11-0.184l-0.073-0.037l-0.11-0.075
		l-0.147-0.219l-0.111-0.184l-0.04-0.147V21.66l0.04-0.184v-0.037l0.074-0.073l0.037-0.186l0.037-0.072l0.11-0.075l0.11-0.184
		l0.184-0.072l0.147-0.15l0.147-0.109l0.147-0.075l0.184-0.037h0.11l0.221-0.037h0.331l0.295,0.037h0.445l0.184-0.037l0.11-0.034
		l0.11,0.034l0.257-0.072l0.111-0.075h0.184l0.147,0.037h0.184l0.148,0.077l0.221,0.034l0.11,0.037h0.555l0.552,0.112h1.068
		l0.15-0.149l0.034-0.147l0.037-0.11l0.076-0.109l0.034-0.112v-0.589l0.076-0.294l0.037-0.147V18.71l0.107-0.109l0.11-0.149
		l0.077-0.111l0.107-0.259l0.147-0.035l0.077-0.074l0.073-0.038l0.181-0.074l0.331-0.109l0.371-0.038h0.258l0.224,0.038l0.107,0.074
		l0.147,0.109l0.114,0.074l0.218,0.074l0.111,0.037l0.073,0.112c0.073,0.074,0.101,0.098,0.073,0.074l0.077,0.074l0.074,0.038
		l0.034,0.184l0.187,0.405l-0.04,0.109v0.296l-0.111,0.109v0.112l-0.037,0.146l-0.034,0.112v0.073l-0.037,0.147l-0.073,0.11
		l-0.147,0.184l-0.04,0.261l-0.034,0.218v0.259l0.034,0.629l0.04,0.256v0.11l0.071,0.184l0.037,0.075l0.077,0.147
		c0.025,0.074,0.037,0.124,0.037,0.147l0.037,0.112v0.552l-0.037,0.442l-0.037,0.331v0.147l-0.113,0.223l-0.11,0.221l-0.111,0.258
		l-0.073,0.147v0.258l-0.034,0.149l-0.11,0.183l0.034,0.147v0.186l-0.034,0.258v0.259l0.11,0.144l0.071,0.259l0.037,0.222
		l0.037,0.221l-0.037,0.258l-0.037,0.184v0.037l0.037,0.296l-0.073,0.111l-0.034,0.147l-0.11,0.11l-0.077,0.111l-0.147,0.221
		l-0.144,0.074l-0.147,0.037l-0.221,0.074l-0.187,0.112l-0.147,0.072l-0.184,0.074h-0.442l-0.258-0.109l-0.147-0.075l-0.114-0.074
		l-0.074-0.147l-0.037-0.111l-0.034-0.184v-0.184l-0.04-0.112l-0.034-0.109v-1.362l0.034-0.224l0.04-0.294L267.576,26.121
		 M267.024,35.297l0.15,0.037l0.368-0.113l0.144-0.034l0.15-0.074l0.147-0.15v-0.331l-0.074-0.144l-0.11-0.147v-0.113l-0.037-0.221
		l-0.077-0.221l-0.034-0.221l0.034-0.221l-0.11-0.074l-0.107-0.074h-0.261l-0.442-0.11l-0.328-0.074l-0.338-0.077l-0.144-0.071
		l-0.371-0.037l-0.515-0.037h-0.957l-2.211-0.037l-0.221,0.037h-0.331l-0.221,0.037l-0.147,0.037l-0.258,0.071l-0.221,0.04h-0.147
		l-0.221,0.037h-1.034l-0.258-0.037l-0.736,0.037h-0.994l-0.411,0.107l-0.181-0.034l-0.405-0.074h-0.883l-0.221,0.037l-0.114,0.037
		l-0.184,0.034l-0.368,0.113l-0.295,0.074l-0.442,0.037h-0.114l-0.258,0.037h-0.111l-0.184,0.037l-0.184-0.074l-0.221-0.037h-0.294
		l-0.11,0.037l-0.184,0.074l-0.11,0.037l-0.184,0.184l-0.15,0.037l-0.071,0.037l-0.11,0.037l-0.147,0.037l-0.334,0.147l-0.037,0.074
		l-0.11,0.147l-0.074,0.11l-0.11,0.187l-0.037,0.107l-0.074,0.113l-0.074,0.184l-0.073,0.107l0.11,0.187l0.11,0.037l0.221,0.074
		h0.629l0.295,0.037l0.331-0.11l0.258-0.037l0.181-0.037l0.264-0.074l0.218-0.04l0.662-0.144h1.144l0.334,0.034h0.552l0.184-0.034
		h0.442l0.144,0.034l0.264-0.034h0.843l0.221,0.071l0.297-0.037h0.368l0.295-0.034l0.368-0.04h1.88l0.405-0.034l0.555,0.034
		l0.365-0.074l0.297,0.04h0.221l0.181,0.074l0.297,0.071l0.221,0.037l0.291,0.077l0.224-0.04l0.184,0.04l0.368-0.04l0.368,0.04
		l0.295,0.11l0.592-0.037l0.479-0.074h0.187l0.107,0.11l0.147,0.037l0.147,0.074L267.024,35.297z M250.071,25.86l0.037,0.186
		l0.037,0.258l0.184,0.219l0.147,0.184l0.114,0.152l0.144,0.034l0.073,0.074l0.15,0.074l0.107,0.112l0.184,0.11l0.147,0.147
		l0.11,0.072l0.15,0.075h0.221c0.098,0,0.196,0.012,0.295,0.038l0.184,0.072h0.147l0.224-0.037l0.071-0.073h0.592l0.144-0.111
		l0.147-0.11l0.184-0.147l0.113-0.075l0.037-0.147l0.037-0.107l0.074-0.077l0.071-0.183v-0.149l0.077-0.221l0.074-0.109l0.037-0.112
		V25.86l0.074-0.109l0.073-0.184v-0.185l0.037-0.219l-0.037-0.259l-0.037-0.184l-0.071-0.147l-0.04-0.074l-0.074-0.184l-0.114-0.149
		l-0.034-0.147l-0.037-0.146l-0.187-0.075l-0.11-0.221l-0.147-0.074l-0.147-0.037l-0.144,0.037h-0.294l-0.224-0.037l-0.218,0.037
		h-0.15l-0.184,0.035l-0.147,0.038h-0.221l-0.187,0.075l-0.218,0.109l-0.258,0.074l-0.297,0.072l-0.368,0.222l-0.11,0.075
		l-0.071,0.258c-0.055,0.049-0.077,0.084-0.077,0.111l-0.074,0.182l-0.073,0.149l-0.073,0.221v0.221l-0.037,0.222L250.071,25.86z
		 M247.381,31.243l-0.04-0.408v-0.403l0.074-0.149v-0.037l0.04-0.147l0.184-0.184l0.073-0.147l0.147-0.074l0.074-0.038h0.224
		l0.218-0.035l0.445-0.037h0.331l0.184,0.072l0.11,0.259l0.11,0.072l0.074,0.077l0.073,0.072v0.11l0.11,0.075l-0.037,0.295
		l-0.037,0.11v0.147l-0.037,0.073l0.037,0.112l0.074,0.144v0.15l0.114,0.149l0.107,0.035l0.11,0.037l0.11,0.037h0.552
		c0.074,0.024,0.135,0.024,0.184,0h0.371l0.111,0.035h0.368l0.147,0.038l0.589,0.109h0.077l0.88-0.035l0.482-0.035h0.663
		l0.592-0.112h3.353l0.81-0.037h0.184l0.405-0.037h0.187l0.221-0.035h0.92l0.368-0.077l0.371-0.035l0.181-0.037h0.368l0.405-0.075
		l0.923,0.037l0.258,0.038h0.184l0.592,0.037l0.439,0.112h0.261l0.478,0.072l0.442,0.037l0.147,0.035l0.184,0.038l0.224,0.039
		l0.368,0.07h0.258v-1.511l0.11-0.074l0.184-0.146l0.073-0.112l0.07-0.037l0.632-0.074l0.402-0.037l0.147,0.075l0.114,0.035
		l0.107,0.037l0.147,0.147l0.037,0.111l0.077,0.074l0.034,0.185l0.11,0.109l0.073,0.075l0.037,0.149l0.074,0.258l0.147,0.219v0.147
		l0.114,0.077v0.736l-0.037,0.403l-0.037,0.334l-0.04,0.184l-0.073,0.184v0.626l-0.073,0.074v0.184l-0.034,0.037l-0.04,0.147
		l-0.037,0.11l-0.073,0.187l-0.034,0.255v0.224l-0.11,0.331v0.184l-0.077,0.258l0.04,0.295l-0.15,0.258l-0.037,0.113l0.037,0.144
		l-0.074,0.221l-0.221,0.077l-0.11,0.071c-0.049,0.098-0.123,0.147-0.221,0.147l-0.111,0.037h-0.147l-0.11,0.077l-0.148,0.074
		h-0.224l-0.181-0.074h-0.258l-0.479-0.077l-0.15-0.074l-0.074-0.071l-0.034-0.077l-0.11-0.073h-0.151l-0.147-0.037h-0.626
		l-0.184-0.074l-0.184-0.074l-0.073-0.074l-0.187,0.04l-0.475-0.074h-0.702l-0.258-0.11l-0.515-0.04l-0.442,0.114h-0.257
		l-0.295,0.037l-0.187,0.074l-0.111,0.107l-0.257,0.111h-0.663l-0.181-0.111l-0.334-0.107l-0.371-0.04l-0.218-0.034h-0.295
		l-0.297-0.037l-0.258-0.074h-0.184l-0.331,0.074l-0.482,0.037l-0.368-0.11l-0.291-0.04l-0.147,0.04h-0.15l-0.221,0.074
		l-0.147,0.037l-0.184,0.074l-0.291,0.074l-0.408,0.034l-0.224-0.034l-0.184,0.034l-0.512,0.111l-0.15,0.04l-0.107,0.034
		l-0.114,0.037l-0.11,0.077h-0.147l-0.258,0.034h-0.187l-0.11-0.034l-0.107-0.077l-0.184-0.037l-0.334-0.034l-0.331-0.077
		l-0.331-0.037l-0.589,0.037l-0.11,0.077l-0.184,0.034l-0.073,0.114l-0.077,0.107l-0.218,0.077l-0.184,0.107l-0.113,0.074
		l-0.071,0.077l-0.147,0.074l-0.15,0.07l-0.218,0.114h-0.073l-0.114,0.037l-0.11,0.147c-0.049,0-0.086,0.049-0.11,0.147
		l-0.071,0.073l-0.077,0.11l-0.074,0.074l-0.221,0.037h-0.11l-0.294,0.037h-1.402l-0.11-0.074l-0.184-0.147l-0.073-0.074
		l-0.147-0.037l-0.077-0.111l-0.074-0.074l-0.07-0.147l-0.073-0.074l-0.111-0.11l-0.073-0.15l-0.147-0.144l-0.114-0.187
		l-0.107-0.071l-0.074-0.15v-0.328l0.037-0.15l0.037-0.11V35.81l0.073-0.218l0.074-0.11l0.074-0.11L246.792,35l-0.04-0.144
		l0.04-0.224V34.34l-0.04-0.113l0.04-0.184l0.074-0.147l0.11-0.295l0.11-0.147l0.037-0.074v-0.11l0.074-0.15l0.037-0.034
		l0.037-0.074l-0.037-0.589v-0.077l0.037-0.108v-0.112l0.037-0.146l0.033-0.37l0.04-0.186V31.243z M249.666,19.227l0.552-0.074
		l0.073-0.369l0.11-0.295l0.04-0.184c0.022-0.023,0.034-0.055,0.034-0.092c0-0.035,0.028-0.08,0.074-0.13l0.147-0.109l0.074-0.147
		l0.037-0.147l0.184-0.037l0.04-0.072l0.147-0.113l0.147-0.072l0.071-0.074l0.15-0.111l0.11-0.113l0.184-0.034h0.626l0.331,0.072
		l0.147,0.034l0.221,0.077l0.184,0.111l0.074,0.038l0.074,0.072l0.114,0.186l0.107,0.037l0.077,0.182v0.443l-0.037,0.333l0.037,0.11
		l0.071,0.258l0.221,0.037h1.111l0.144,0.037l0.261,0.074l0.92,0.074h0.405l0.408,0.038l0.552,0.035l0.441,0.074l0.295-0.074
		l0.258,0.074c0.073,0.025,0.138,0.051,0.181,0.073l0.114,0.072l0.15,0.185v0.258l0.034,0.147l-0.034,0.224v0.182l-0.077,0.221
		l-0.11,0.11l-0.147,0.147l-0.187,0.073l-0.181,0.039h-0.11l-0.258-0.039h-0.405l-0.331,0.039h-0.85l-0.442,0.035h-0.699
		l-0.258,0.074l-0.297,0.149l-0.074,0.035c-0.024,0-0.086,0.014-0.184,0.038l-0.11,0.037l-0.11,0.072l-0.147,0.075l-0.15,0.149
		l0.077,0.184l0.11,0.147l0.295,0.074l0.221,0.074l0.221,0.037l0.15,0.111l0.071,0.074l0.15,0.184l0.073,0.037l0.11,0.074
		l0.108,0.038l0.114,0.109l0.071,0.075l0.187,0.147l0.11,0.074l0.071,0.109l0.15,0.112l0.037,0.074l0.077,0.074l0.071,0.184
		l0.074,0.074l0.037,0.072l0.037,0.186l0.04,0.112l0.034,0.258v0.184l0.037,0.186v0.626l0.113,0.626v0.368l-0.073,0.149l-0.04,0.259
		l-0.037,0.146l-0.074,0.442c-0.024,0.075-0.061,0.123-0.113,0.149l-0.181,0.219l-0.037,0.073l-0.11,0.149l-0.073,0.109
		l-0.074,0.075l-0.11,0.074l-0.184,0.11l-0.15,0.109l-0.181,0.075l-0.037,0.074l-0.147,0.073l-0.114,0.074l-0.071,0.074l-0.073,0.11
		l-0.147,0.074h-0.114l-0.11,0.074l-0.074,0.075l-0.11,0.146l-0.11,0.039l-0.11,0.109l-0.221,0.075l-0.297,0.037l-0.147,0.035
		l-0.144,0.074l-0.113,0.075l-0.144,0.037h-0.114l-0.107,0.074h-0.261l-0.331,0.037l-0.294,0.075l-0.184,0.037l-0.184-0.037
		l-0.114-0.04h-0.107l-0.114-0.035l-0.11-0.037l-0.071-0.074l-0.147-0.074l-0.04-0.112l-0.147-0.035l-0.11-0.112l-0.11-0.147
		l-0.108-0.072l-0.187-0.074l-0.074-0.075l-0.147-0.037l-0.184-0.037h-0.144l-0.114-0.035l-0.258-0.112l-0.405-0.037l-0.113-0.147
		l-0.184-0.073l-0.034-0.111l-0.114-0.147l-0.074-0.11c-0.046,0-0.095-0.025-0.144-0.074l-0.114-0.075l-0.11-0.109l-0.147-0.075
		l-0.221-0.221l-0.11-0.146l-0.147-0.038l-0.184-0.221l-0.074-0.147l-0.04-0.222l-0.033-0.293l-0.037-0.15l0.07-0.183v-0.184
		l0.04-0.184l0.034-0.221l0.077-0.331l0.11-0.258v-0.15l0.037-0.146l0.037-0.112l0.037-0.109l0.037-0.112l0.074-0.035l0.037-0.147
		l0.037-0.147l0.11-0.185l0.11-0.146l0.073-0.149l0.074-0.072l0.04-0.075l0.107-0.038l0.077-0.072l0.071-0.111l0.147-0.074
		l0.074-0.073l0.15-0.184l0.107-0.185l0.077-0.147l0.037-0.11l0.04-0.184l0.07-0.035l0.148-0.149v-0.295l-0.11-0.221l-0.148-0.075
		l-0.037-0.037l-0.147-0.11l-0.114-0.037h-0.512l-0.224,0.037l-0.258-0.037h-0.221l-0.298,0.075l-1.027,0.109l-0.221-0.074
		l-0.077-0.074l-0.147-0.037l-0.073-0.073l-0.071-0.077l-0.11-0.109l-0.114-0.072l-0.11-0.149l-0.073-0.147l-0.074-0.074
		l-0.11-0.186l-0.037-0.11l-0.04-0.107v-0.114l0.04-0.11l0.11-0.184l0.073-0.149l0.11-0.072l0.037-0.073l0.187-0.112l0.144-0.072
		l0.147-0.037l0.702-0.11l0.368-0.035l0.331,0.035h0.626l0.812-0.074h0.589H249.666z"/>
	<path class="st0" d="M299.558,30.763l-0.258,1.878l-0.11,0.334l-0.113,0.184l-0.071,0.147l-0.147,0.258l-0.11,0.111l-0.04,0.147
		l-0.037,0.184l-0.107,0.187c0.025-0.028,0,0.022-0.074,0.147l-0.11,0.11l-0.077,0.107l-0.071,0.074l-0.11,0.077l-0.151,0.107
		l-0.073,0.077l-0.11,0.071c-0.049,0.028-0.104,0.071-0.166,0.129c-0.062,0.064-0.104,0.095-0.126,0.095l-0.187,0.11l-0.184,0.11
		h-0.221v-0.776l-0.11-2.873v-0.256l-0.037-0.627v-1.291l0.147-0.11l-0.074-0.59v-0.994l-0.037-0.922l0.11-0.221l0.071-0.224v-0.587
		l-0.034-0.663v-1.254l-0.037-0.146v-0.738l0.071-0.223l0.113-0.626l0.037-0.739l-0.073-0.147l-0.11-0.331l-0.037-0.331v-0.072
		l-0.074-0.222v-0.109l-0.11-0.114l-0.073-0.072v-0.222l0.073-0.184l0.221-0.147l0.073-0.109l0.11-0.075l0.144-0.146l0.114-0.077
		l0.114-0.074l0.144-0.109l0.114-0.075l0.07-0.109l0.147-0.073l0.111-0.038l0.221-0.072l0.077-0.075h0.221l0.107,0.038l0.15,0.037
		l0.147,0.037l0.147,0.035l0.11,0.074l0.147,0.038l0.111,0.109l0.221,0.149l0.147,0.109c0.049,0.124,0.086,0.21,0.11,0.259
		l-0.034,0.295l-0.04,0.294l-0.073,0.184l-0.037,0.186l-0.037,0.331l-0.11,0.37l-0.037,0.664l0.037,0.072v0.333l0.034,0.811
		l-0.034,0.664l-0.037,0.847v0.922l-0.034,0.147l-0.04,0.184l0.04,0.109v0.037l-0.04,0.149l0.04,0.146v0.149l0.034,0.259v0.331
		l0.071,0.074l0.04,0.259v0.258l-0.073,0.44l-0.037,1.475L299.558,30.763 M285.406,26.266l0.187-0.294l0.034-0.112l0.037-0.109
		l0.037-0.184l0.037-0.147v-0.368l-0.037-0.221l-0.037-0.222l-0.037-0.222l-0.11-0.442l-0.11-0.11l-0.074-0.037l-0.073-0.11
		l-0.144-0.11l-0.077-0.074l-0.295-0.109l-0.184-0.112l-0.519-0.258l-0.254-0.112h-0.224l-0.368-0.035l-0.258-0.038l-0.295,0.038
		l-0.144,0.035l-0.187,0.075l-0.295,0.109l-0.15,0.149l-0.107,0.072l-0.073,0.038l-0.114,0.111l-0.221,0.037l-0.111,0.11
		l-0.181,0.147l-0.077,0.074v0.149l-0.037,0.258l-0.074,0.221l-0.071,0.37l-0.114,0.626l0.037,0.11l0.11,0.146l0.037,0.038
		l0.11,0.074l0.04,0.035c0.071,0.075,0.144,0.112,0.218,0.112l0.111,0.074v0.038l0.073,0.107l0.11,0.038l0.114,0.11l0.11,0.035
		l0.107,0.075l0.15,0.037l0.181,0.112l0.147,0.035l0.224,0.039l0.294,0.035l0.478,0.074h0.037l0.331-0.035h0.408l0.328-0.038
		c0.196-0.047,0.371-0.109,0.515-0.185l0.224-0.072L285.406,26.266z M282.237,29.067l-0.11-0.147
		c-0.049-0.048-0.089-0.111-0.11-0.184l-0.11-0.109l-0.147-0.075l-0.368-0.182l-0.077-0.112l-0.184-0.037l-0.147-0.075l-0.037-0.074
		c-0.098-0.074-0.175-0.133-0.221-0.182l-0.074-0.075l-0.074-0.108l-0.077-0.112l-0.181-0.038h-0.405l-0.221-0.075l-0.147-0.109
		l-0.187-0.109l-0.071-0.075l-0.11-0.11l-0.114-0.147l-0.184-0.184l-0.11-0.184l-0.108-0.187l-0.04-0.146l-0.037-0.074l-0.074-0.184
		l-0.144-0.405l0.034-0.405l0.037-0.331l0.037-0.222l0.11-0.405c0-0.023,0.009-0.097,0.037-0.221l0.073-0.186l0.11-0.11l0.074-0.11
		v-0.11l0.11-0.184l0.147-0.112l0.04-0.035l0.071-0.038l0.077-0.109l0.144-0.11l0.077-0.074l0.221-0.149
		c0.021-0.074,0.071-0.17,0.147-0.293l0.147-0.259l0.071-0.184l0.077-0.405l-0.114-0.075l-0.291-0.038l-0.368-0.035l-0.224,0.035
		h-0.773l-0.512,0.075l-0.153,0.072l-0.405,0.112l-0.147,0.038h-0.184l-0.147-0.038l-0.221,0.038h-0.258l-0.224-0.038l-0.586-0.074
		l-0.147-0.147l-0.114-0.11l-0.034-0.147l0.034-0.185l0.221-0.699l0.04-0.111l0.071-0.112l0.153-0.147l0.071-0.184l0.221-0.109
		l0.11-0.038l0.147-0.109c0.024-0.052,0.086-0.087,0.184-0.112l0.111-0.147l0.187-0.074l0.144-0.074l0.147-0.037h0.334l0.144-0.037
		h0.224l0.11,0.037c0.098,0.049,0.196,0.061,0.295,0.037l0.037,0.074h0.442l0.258,0.074h0.221l0.334-0.038l0.181-0.074l0.405-0.072
		l0.187-0.037l0.663,0.037v-0.182l0.077-0.077l0.07-0.074h0.184l0.11-0.072l0.11-0.112c0.123-0.097,0.209-0.147,0.258-0.147
		l0.147-0.259l0.147-0.109l0.15-0.11l0.184-0.184c0.049-0.023,0.086-0.067,0.11-0.129c0.024-0.06,0.049-0.106,0.071-0.13l0.261-0.11
		l0.221-0.111l0.11-0.075h0.184l0.331-0.146l0.11,0.038l0.221,0.072l0.371,0.186l0.181,0.182l0.11,0.259v0.147l0.04,0.182
		l0.073,0.149l0.144,0.186l0.077,0.109l0.037,0.112l0.04,0.072v0.074l0.071,0.112l0.074,0.111l0.034,0.073l0.114,0.186h0.11
		l0.334-0.15l0.254-0.035l0.184-0.037h0.368l0.297,0.072l0.221-0.035h0.552l0.371,0.186l0.11,0.035l0.107,0.11l0.111,0.037
		l0.11,0.111l0.073,0.037h0.371l0.626,0.038h0.81l0.776-0.038l0.11,0.038l0.107,0.072l0.114,0.037l0.144,0.147
		c0,0.024,0.013,0.037,0.04,0.037v0.294l-0.077,0.147l-0.108,0.038l-0.114,0.11l-0.073,0.074l-0.144,0.112l-0.077,0.074
		l-0.074,0.035l-0.184,0.074l-0.107,0.11l-0.224,0.112l-0.073,0.037l-0.254,0.109l-0.371,0.112h-0.037l-0.113-0.037l-0.144-0.04
		l-0.291-0.072l-0.297-0.072h-0.184l-0.224-0.037h-0.147l-0.181,0.037l-0.555,0.037l-0.442,0.147l-0.11,0.11l-0.147,0.109
		l-0.15,0.075l-0.11,0.037l-0.184,0.038h-0.073l-0.184,0.034l-0.147,0.04h-0.11l-0.034,0.072l0.071,0.04l0.073,0.107l0.074,0.075
		l0.04,0.037v0.11l0.147,0.149l0.11,0.182l0.071,0.111l0.11,0.077l0.11,0.072l0.077,0.074l0.11,0.11l0.147,0.037l0.037,0.072
		l0.184,0.074l0.147,0.112l0.11,0.074l0.147,0.221l0.071,0.33v0.112l0.077,0.185v0.551l-0.037,0.37l-0.04,0.258v0.221l-0.071,0.443
		l-0.073,0.294l-0.111,0.333l-0.147,0.331v0.184l-0.074,0.109l-0.074,0.224l-0.037,0.035l-0.11,0.185l-0.11,0.442l-0.187,0.111
		l-0.037,0.11l-0.181,0.074l-0.077,0.074l-0.144,0.075l-0.261,0.109h-0.073l-0.221,0.112l-0.184,0.035l-0.221,0.037l-0.147,0.073
		l-0.184,0.074h-0.294l-0.258-0.035l-0.037,0.035l-0.04,0.112l0.04,0.182l0.037,0.222l0.071,0.368v0.186l0.037,0.256l0.074,0.333
		l0.077,0.221h0.626l0.295-0.035h2.616l0.736-0.037l0.15,0.037h0.405l0.552,0.035h0.666l1.211,0.074l0.258,0.074h0.261l0.147,0.038
		h0.85l0.589,0.035v0.11l-0.077,0.075l-0.107,0.11l-0.073,0.038l-0.04,0.072l-0.074,0.11l-0.147,0.111l-0.07,0.074l-0.114,0.258
		l-0.11,0.038l-0.11,0.147l-0.074,0.074l-0.11,0.071l-0.107,0.077l-0.04,0.107l-0.147,0.04h-1.365l-0.439,0.037l-0.519,0.037h-0.589
		l-0.368,0.037l-0.331,0.037l-0.478,0.147l-0.334,0.037l-0.331,0.074l-0.442,0.037l-0.442,0.037l-0.665-0.074l-0.258-0.037h-0.147
		l-0.181-0.037h-0.629l-0.518-0.037h-0.478l-0.589,0.037h-1.034l-0.365,0.037l-0.15,0.074l-0.147,0.11l-0.218,0.074h-0.371
		l-0.368,0.037l-1.178,0.187l-0.334-0.077h-0.291l-0.221,0.077h-0.295l-0.923,0.107l-0.221,0.037l-0.261,0.11l-0.147,0.077h-0.699
		l-0.515,0.034l-0.442-0.034l-0.368,0.034l-0.261,0.037l-0.147,0.037l-0.258-0.037h-0.258l-0.147-0.07l-0.184-0.187l-0.073-0.144
		l-0.037-0.224l0.037-0.331l0.11-0.221l0.037-0.074l0.073-0.11v-0.332l0.074-0.222l0.073-0.147l0.073-0.074l0.074-0.037l0.11-0.147
		l0.147-0.109l0.037-0.038l0.11-0.147l0.073-0.112l0.147-0.072l0.037-0.149l0.073-0.037l0.11-0.035l0.147-0.111l0.295-0.112
		l0.187-0.074h0.11l0.11-0.074l0.368-0.038l0.074,0.038l0.184,0.074l0.15,0.074l0.111,0.074l0.107,0.072l0.405,0.077l0.295,0.035
		h1.402l0.555-0.035h1.62l0.111-0.037l0.221-0.112l0.114-0.111l0.147-0.037l0.107-0.295l0.077-0.184l0.037-0.149l0.073-0.074
		l0.11-0.074v-0.185l0.037-0.109l0.037-0.222v-0.074L282.237,29.067z"/>
	<path class="st1" d="M31.584,22.782l-7.322,1.273l0.359,1.396h0.555l-3.041,11.138c-0.178,0.377-0.294,0.791-0.334,1.224
		l-0.018,0.064h0.011c-0.008,0.095-0.011,0.193-0.011,0.292c0,2.058,1.679,3.739,3.739,3.739c2.058,0,3.739-1.681,3.739-3.739
		c0-0.098-0.006-0.196-0.014-0.292h0.014l-0.02-0.064c-0.04-0.433-0.155-0.847-0.334-1.224l-3.038-11.138h5.446
		c0.065,0.452,0.454,0.802,0.925,0.802c0.469,0,0.86-0.35,0.923-0.802h5.441l-3.041,11.138c-0.178,0.377-0.293,0.791-0.333,1.224
		l-0.02,0.064h0.012c-0.005,0.095-0.012,0.193-0.012,0.292c0,2.058,1.681,3.739,3.739,3.739c2.058,0,3.737-1.681,3.737-3.739
		c0-0.098-0.005-0.196-0.009-0.292h0.009l-0.018-0.064c-0.04-0.433-0.155-0.847-0.334-1.224l-3.041-11.138h0.561l0.362-1.396
		l-7.322-1.273v-1.514h-1.31V22.782 M28.674,37.914l-2.865-10.702v10.702H28.674z M22.366,37.914l2.865-10.702v10.702H22.366z
		 M42.101,37.914l-2.863-10.702v10.702H42.101z M35.793,37.914l2.865-10.702v10.702H35.793z M32.239,12.43
		c11.581,0,21.023,9.444,21.023,21.027c0,11.579-9.443,21.023-21.023,21.023c-11.582,0-21.026-9.444-21.026-21.023
		C11.213,21.874,20.657,12.43,32.239,12.43 M32.239,13.387c11.054,0,20.071,9.013,20.071,20.07c0,11.054-9.016,20.069-20.071,20.069
		c-11.056,0-20.071-9.015-20.071-20.069C12.167,22.4,21.183,13.387,32.239,13.387 M32.239,18.164
		c8.421,0,15.292,6.869,15.292,15.293c0,8.423-6.871,15.29-15.292,15.29c-8.424,0-15.293-6.868-15.293-15.29
		C16.946,25.034,23.815,18.164,32.239,18.164 M32.239,19.118c7.898,0,14.337,6.443,14.337,14.339
		c0,7.895-6.438,14.336-14.337,14.336c-7.895,0-14.336-6.441-14.336-14.336C17.903,25.561,24.344,19.118,32.239,19.118
		 M32.718,51.609c9.783-0.255,17.681-8.312,17.681-18.152c0-9.52-7.391-17.368-16.726-18.104v-0.957
		c9.863,0.736,17.678,9.013,17.678,19.061c0,10.524-8.584,19.112-19.112,19.112c-10.528,0-19.115-8.588-19.115-19.112
		c0-10.048,7.818-18.324,17.681-19.061v0.957c-9.337,0.736-16.726,8.584-16.726,18.104c0,9.84,7.898,17.897,17.681,18.152v-1.914
		c0.321,0.012,0.635,0.012,0.957,0V51.609z M32.718,16.261c9.255,0.256,16.724,7.88,16.724,17.196
		c0,8.993-6.961,16.407-15.769,17.14v-0.96c8.282-0.73,14.814-7.714,14.814-16.18c0-8.948-7.299-16.248-16.248-16.248
		c-8.95,0-16.247,7.3-16.247,16.248c0,8.466,6.533,15.45,14.813,16.18v0.96c-8.808-0.733-15.769-8.147-15.769-17.14
		c0-9.316,7.469-16.94,16.724-17.196v-1.914c0.319-0.006,0.638-0.008,0.957,0V16.261z M43.541,15.741
		c2.421-3.671-0.37-6.668-4.132-7.331c-1.227-3.932-2.888-5.909-7.17-6.19c-4.282,0.281-5.943,2.257-7.171,6.19
		c-3.759,0.663-6.553,3.659-4.132,7.329c3.268-2.093,7.148-3.31,11.303-3.31C36.395,12.43,40.274,13.648,43.541,15.741
		 M52.593,38.733c4.231,1.159,6.213-2.42,5.681-6.199c3.363-2.383,4.726-4.571,3.67-8.729c-1.587-3.986-3.981-4.955-8.101-4.908
		c-1.793-3.374-5.507-5.104-8.251-1.661c4.682,3.862,7.67,9.703,7.67,16.221C53.262,35.276,53.032,37.046,52.593,38.733
		 M33.512,54.44c0.201,4.386,4.219,5.165,7.647,3.49c3.307,2.463,5.811,3.086,9.439,0.794c3.301-2.742,3.48-5.319,2.164-9.22
		c2.647-2.742,3.149-6.806-0.958-8.355C48.87,48.566,41.831,53.94,33.512,54.44 M12.675,41.15c-4.11,1.549-3.609,5.613-0.96,8.355
		c-1.317,3.902-1.135,6.478,2.164,9.22c3.629,2.291,6.133,1.665,9.438-0.794c3.428,1.675,7.447,0.893,7.651-3.49
		C22.646,53.94,15.607,48.566,12.675,41.15 M18.883,17.236c-2.742-3.443-6.456-1.713-8.249,1.661
		c-4.118-0.049-6.512,0.922-8.099,4.906c-1.058,4.158,0.308,6.346,3.668,8.73c-0.532,3.776,1.451,7.358,5.682,6.199
		c-0.438-1.687-0.672-3.457-0.672-5.276C11.213,26.94,14.204,21.098,18.883,17.236 M32.239,12.43
		c11.581,0,21.023,9.444,21.023,21.027c0,11.579-9.443,21.023-21.023,21.023c-11.582,0-21.026-9.444-21.026-21.023
		C11.213,21.874,20.657,12.43,32.239,12.43 M9.107,40.969c-3.969-0.745-5.204-3.481-5.122-7.429
		c-3.429-2.408-4.736-6.134-3.566-10.423c1.573-4.158,4.822-6.403,9.012-6.334c2.254-3.244,4.862-4.733,8.512-3.003
		c-0.515-4.004,1.708-6.026,5.487-7.168c1.228-4.006,4.369-6.4,8.809-6.611c4.44,0.212,7.581,2.606,8.809,6.611
		c3.779,1.143,6.003,3.164,5.487,7.168c3.649-1.728,6.257-0.239,8.513,3.004c4.188-0.07,7.435,2.178,9.01,6.332
		c1.169,4.29-0.138,8.016-3.567,10.423c0.083,3.948-1.153,6.684-5.121,7.432c2.773,2.938,2.159,5.877-0.227,9.024
		c1.36,3.963,0.229,7.748-3.241,10.527c-3.716,2.439-7.665,2.347-11.013-0.172c-3.73,1.298-6.716,0.969-8.653-2.573
		c-1.937,3.543-4.921,3.871-8.651,2.57c-3.348,2.521-7.297,2.614-11.015,0.175c-3.466-2.782-4.601-6.564-3.241-10.527
		C6.947,46.849,6.335,43.907,9.107,40.969"/>
	<path class="st0" d="M85.743,55.32l-4.635-5.263c-0.44,0.405-0.84,0.77-1.201,1.089c-0.364,0.322-0.641,0.561-0.837,0.721v3.454
		h-1.055V44.882h1.055v5.641c0.929-0.791,1.905-1.693,2.925-2.699c1.023-1.009,1.954-1.991,2.794-2.942h1.336
		c-0.715,0.828-1.437,1.623-2.172,2.38c-0.733,0.761-1.432,1.448-2.098,2.061l5.164,5.997H85.743"/>
	<path class="st0" d="M96.224,53.394c0.687-0.853,1.035-1.951,1.035-3.288c0-1.319-0.348-2.405-1.035-3.261
		c-0.69-0.853-1.606-1.279-2.75-1.279c-1.144,0-2.058,0.426-2.742,1.279c-0.684,0.856-1.028,1.941-1.028,3.261
		c0,1.337,0.343,2.435,1.028,3.288c0.684,0.856,1.598,1.282,2.742,1.282C94.618,54.676,95.534,54.25,96.224,53.394 M89.888,46.162
		c0.885-1.018,2.08-1.531,3.586-1.531c1.506,0,2.702,0.512,3.593,1.531c0.888,1.015,1.334,2.331,1.334,3.945
		c0,1.623-0.446,2.944-1.334,3.969c-0.891,1.021-2.087,1.534-3.593,1.534c-1.506,0-2.701-0.512-3.586-1.534
		c-0.883-1.024-1.326-2.346-1.326-3.969C88.562,48.493,89.005,47.177,89.888,46.162"/>
	<path class="st0" d="M107.433,49.499c0.532-0.344,0.799-0.883,0.799-1.619c0-0.755-0.256-1.294-0.768-1.62
		c-0.514-0.325-1.08-0.488-1.695-0.488h-3.549v4.242h3.49C106.324,50.014,106.9,49.845,107.433,49.499 M108.672,55.32l-3.109-4.401
		h-3.343v4.401h-1.057V44.882h4.606c1.066,0,1.932,0.279,2.604,0.841c0.669,0.558,1.003,1.279,1.003,2.156
		c0,0.754-0.264,1.392-0.791,1.917c-0.527,0.521-1.129,0.865-1.805,1.025l3.184,4.5H108.672z"/>
	<polyline class="st0" points="112.048,55.32 112.048,44.882 119.63,44.882 119.63,45.787 113.105,45.787 113.105,49.465 
		119.366,49.465 119.366,50.355 113.105,50.355 113.105,54.428 119.762,54.428 119.762,55.32 	"/>
	<path class="st0" d="M126.406,45.999l-2.434,5.601h4.869 M130.468,55.32l-1.247-2.816h-5.632l-1.245,2.816h-1.101l4.547-10.438
		h1.231l4.532,10.438H130.468z"/>
	<polyline class="st0" points="140.788,55.32 134.703,46.352 134.703,55.32 133.646,55.32 133.646,44.882 134.907,44.882 
		141.006,53.833 141.006,44.882 142.063,44.882 142.063,55.32 	"/>
	<path class="st0" d="M159.022,53.848c0.429-0.387,0.65-0.905,0.66-1.555c0.018-0.613-0.202-1.095-0.669-1.445
		c-0.466-0.347-1.055-0.521-1.767-0.521h-3.592v4.101h3.549C157.986,54.428,158.59,54.235,159.022,53.848 M153.655,45.787v3.632
		h3.429c0.742,0,1.291-0.184,1.644-0.555c0.35-0.374,0.528-0.803,0.528-1.294c0-0.503-0.178-0.923-0.534-1.267
		c-0.359-0.347-0.899-0.515-1.623-0.515H153.655z M160.151,50.646c0.488,0.448,0.703,1.086,0.644,1.914
		c-0.058,0.85-0.43,1.524-1.113,2.024c-0.687,0.5-1.571,0.751-2.656,0.751l-4.429-0.015V44.882h4.549
		c0.957,0,1.705,0.215,2.242,0.65c0.537,0.433,0.847,0.963,0.923,1.583c0.098,0.69-0.015,1.267-0.337,1.733
		c-0.322,0.466-0.669,0.782-1.04,0.942C159.255,49.913,159.66,50.195,160.151,50.646"/>
	<path class="st0" d="M167.473,45.999L165.04,51.6h4.868 M171.537,55.32l-1.248-2.816h-5.632l-1.245,2.816h-1.101l4.546-10.438
		h1.233l4.53,10.438H171.537z"/>
	<path class="st0" d="M180.993,49.499c0.534-0.344,0.798-0.883,0.798-1.619c0-0.755-0.255-1.294-0.767-1.62
		c-0.515-0.325-1.083-0.488-1.696-0.488h-3.549v4.242h3.49C179.883,50.014,180.456,49.845,180.993,49.499 M182.232,55.32
		l-3.11-4.401h-3.343v4.401h-1.055V44.882h4.604c1.067,0,1.932,0.279,2.604,0.841c0.669,0.558,1.003,1.279,1.003,2.156
		c0,0.754-0.264,1.392-0.791,1.917c-0.528,0.521-1.129,0.865-1.804,1.025l3.184,4.5H182.232z"/>
	<path class="st0" d="M197.029,45.999l-2.432,5.601h4.868 M201.093,55.32l-1.245-2.816h-5.635l-1.245,2.816h-1.098l4.546-10.438
		h1.23l4.533,10.438H201.093z"/>
	<path class="st0" d="M211.583,51.112c0.359,0.491,0.503,1.043,0.423,1.656c-0.095,0.773-0.491,1.451-1.187,2.03
		c-0.693,0.58-1.681,0.871-2.963,0.871c-1.426,0-2.496-0.387-3.211-1.156c-0.715-0.767-1.064-1.638-1.055-2.607h1.113
		c0,0.96,0.307,1.675,0.923,2.141c0.616,0.466,1.371,0.702,2.261,0.702c0.801,0,1.475-0.181,2.024-0.54
		c0.546-0.359,0.871-0.828,0.966-1.414c0.089-0.463-0.003-0.853-0.279-1.172c-0.273-0.322-0.638-0.577-1.098-0.767
		c-0.478-0.206-1.012-0.344-1.598-0.414c-0.586-0.071-1.156-0.196-1.702-0.377c-0.715-0.242-1.27-0.574-1.666-0.991
		c-0.396-0.414-0.579-0.969-0.549-1.669c0.028-0.678,0.356-1.328,0.975-1.951c0.62-0.623,1.567-0.932,2.837-0.932
		c1.488,0,2.512,0.414,3.079,1.242c0.568,0.831,0.841,1.528,0.822,2.095h-1.132c0.021-0.662-0.221-1.227-0.724-1.702
		c-0.503-0.478-1.187-0.718-2.046-0.718c-0.81,0-1.454,0.196-1.926,0.58c-0.476,0.387-0.721,0.85-0.743,1.386
		c-0.021,0.549,0.144,0.951,0.491,1.208c0.347,0.261,0.712,0.451,1.092,0.577c0.371,0.12,0.874,0.224,1.503,0.316
		c0.632,0.089,1.255,0.258,1.871,0.5C210.721,50.256,211.221,50.624,211.583,51.112"/>
	<path class="st0" d="M221.886,51.112c0.362,0.491,0.503,1.043,0.426,1.656c-0.101,0.773-0.497,1.451-1.19,2.03
		c-0.693,0.58-1.681,0.871-2.963,0.871c-1.427,0-2.497-0.387-3.212-1.156c-0.715-0.767-1.064-1.638-1.055-2.607h1.113
		c0,0.96,0.307,1.675,0.926,2.141c0.616,0.466,1.368,0.702,2.257,0.702c0.804,0,1.475-0.181,2.024-0.54
		c0.546-0.359,0.871-0.828,0.966-1.414c0.089-0.463-0.003-0.853-0.276-1.172c-0.276-0.322-0.641-0.577-1.101-0.767
		c-0.478-0.206-1.012-0.344-1.598-0.414c-0.589-0.071-1.153-0.196-1.702-0.377c-0.712-0.242-1.267-0.574-1.663-0.991
		c-0.395-0.414-0.58-0.969-0.552-1.669c0.031-0.678,0.356-1.328,0.975-1.951c0.622-0.623,1.567-0.932,2.84-0.932
		c1.484,0,2.509,0.414,3.076,1.242c0.568,0.831,0.84,1.528,0.822,2.095h-1.128c0.018-0.662-0.224-1.227-0.727-1.702
		c-0.503-0.478-1.184-0.718-2.043-0.718c-0.816,0-1.457,0.196-1.933,0.58c-0.472,0.387-0.718,0.85-0.739,1.386
		c-0.022,0.549,0.144,0.951,0.491,1.208c0.35,0.261,0.712,0.451,1.092,0.577c0.374,0.12,0.874,0.224,1.506,0.316
		c0.629,0.089,1.251,0.258,1.868,0.5C221.024,50.256,221.524,50.624,221.886,51.112"/>
	<path class="st0" d="M232.081,53.394c0.69-0.853,1.037-1.951,1.037-3.288c0-1.319-0.347-2.405-1.037-3.261
		c-0.687-0.853-1.604-1.279-2.748-1.279c-1.144,0-2.058,0.426-2.742,1.279c-0.684,0.856-1.025,1.941-1.025,3.261
		c0,1.337,0.34,2.435,1.025,3.288c0.684,0.856,1.598,1.282,2.742,1.282C230.477,54.676,231.394,54.25,232.081,53.394
		 M225.748,46.162c0.883-1.018,2.08-1.531,3.585-1.531c1.506,0,2.702,0.512,3.592,1.531c0.889,1.015,1.334,2.331,1.334,3.945
		c0,1.623-0.445,2.944-1.334,3.969c-0.889,1.021-2.086,1.534-3.592,1.534c-1.506,0-2.702-0.512-3.585-1.534
		c-0.883-1.024-1.328-2.346-1.328-3.969C224.42,48.493,224.864,47.177,225.748,46.162"/>
	<path class="st0" d="M237.888,46.162c0.877-1.018,2.07-1.531,3.576-1.531c1.417,0,2.496,0.392,3.236,1.175
		c0.736,0.785,1.184,1.488,1.341,2.107h-1.16c-0.175-0.518-0.531-1.04-1.07-1.561c-0.537-0.521-1.325-0.785-2.362-0.785
		c-1.132,0-2.04,0.423-2.718,1.267c-0.681,0.844-1.021,1.932-1.021,3.273c0,1.35,0.34,2.448,1.021,3.294
		c0.678,0.85,1.589,1.276,2.733,1.276c1.027,0,1.813-0.279,2.356-0.828c0.543-0.552,0.889-1.104,1.049-1.662h1.156
		c-0.175,0.708-0.623,1.454-1.341,2.236c-0.717,0.782-1.794,1.172-3.22,1.172c-1.506,0-2.699-0.509-3.576-1.528
		c-0.884-1.015-1.319-2.337-1.319-3.96C236.569,48.493,237.004,47.177,237.888,46.162"/>
	<rect x="248.746" y="44.882" class="st0" width="1.055" height="10.438"/>
	<path class="st0" d="M257.083,45.999L254.65,51.6h4.868 M261.147,55.32l-1.248-2.816h-5.632l-1.245,2.816h-1.101l4.549-10.438h1.23
		l4.53,10.438H261.147z"/>
	<polyline class="st0" points="268.15,45.787 268.15,55.376 267.079,55.376 267.079,45.787 263.355,45.787 263.355,44.882 
		271.904,44.882 271.904,45.787 	"/>
	<rect x="274.146" y="44.882" class="st0" width="1.055" height="10.438"/>
	<path class="st0" d="M285.617,53.394c0.69-0.853,1.037-1.951,1.037-3.288c0-1.319-0.347-2.405-1.037-3.261
		c-0.687-0.853-1.604-1.279-2.748-1.279c-1.144,0-2.058,0.426-2.742,1.279c-0.684,0.856-1.025,1.941-1.025,3.261
		c0,1.337,0.34,2.435,1.025,3.288c0.684,0.856,1.598,1.282,2.742,1.282C284.013,54.676,284.93,54.25,285.617,53.394 M279.284,46.162
		c0.886-1.018,2.08-1.531,3.585-1.531c1.506,0,2.706,0.512,3.592,1.531c0.893,1.015,1.337,2.331,1.337,3.945
		c0,1.623-0.445,2.944-1.337,3.969c-0.886,1.021-2.086,1.534-3.592,1.534c-1.506,0-2.699-0.512-3.585-1.534
		c-0.883-1.024-1.328-2.346-1.328-3.969C277.956,48.493,278.4,47.177,279.284,46.162"/>
	<polyline class="st0" points="297.706,55.32 291.62,46.352 291.62,55.32 290.565,55.32 290.565,44.882 291.823,44.882 
		297.927,53.833 297.927,44.882 298.982,44.882 298.982,55.32 	"/>
</g>
</svg>
