<?xml version="1.0" encoding="utf-8"?>
<!-- Generator: Adobe Illustrator 26.0.3, SVG Export Plug-In . SVG Version: 6.00 Build 0)  -->
<svg version="1.1" id="Layer_1" xmlns="http://www.w3.org/2000/svg" xmlns:xlink="http://www.w3.org/1999/xlink" x="0px" y="0px"
	 viewBox="0 0 170 37.7" style="enable-background:new 0 0 170 37.7;" xml:space="preserve">
<style type="text/css">
	.st0{fill-rule:evenodd;clip-rule:evenodd;fill:#555555;}
	.st1{fill:#555555;}
</style>
<g>
	<path class="st0" d="M19.098,13.8l-4.45,0.75l0.2,0.85h0.35l-1.85,6.75c-0.1,0.25-0.2,0.5-0.2,0.75v0.05l0,0c0,0.05,0,0.1,0,0.2
		c0,1.25,1,2.25,2.25,2.25s2.25-1,2.25-2.25c0-0.05,0-0.1,0-0.2l0,0V22.9c0-0.25-0.1-0.5-0.2-0.75l-1.85-6.75h3.3
		c0.05,0.25,0.25,0.5,0.55,0.5s0.5-0.2,0.55-0.5h3.3l-1.85,6.75c-0.1,0.25-0.2,0.5-0.2,0.75v0.05l0,0c0,0.05,0,0.1,0,0.2
		c0,1.25,1,2.25,2.25,2.25s2.25-1,2.25-2.25c0-0.05,0-0.1,0-0.2l0,0V22.9c0-0.25-0.1-0.5-0.2-0.75l-1.85-6.75h0.35l0.2-0.85
		l-4.45-0.75v-0.9h-0.8v0.9 M17.348,22.95l-1.75-6.5v6.5H17.348z M13.548,22.95l1.75-6.5v6.5H13.548z M25.499,22.95l-1.75-6.5v6.5
		H25.499z M21.648,22.95l1.75-6.5v6.5H21.648z M19.498,7.5c7,0,12.7,5.7,12.7,12.75c0.05,7-5.7,12.75-12.7,12.75
		s-12.75-5.7-12.75-12.7C6.798,13.25,12.498,7.5,19.498,7.5 M19.498,8.1c6.7,0,12.15,5.45,12.15,12.15s-5.45,12.15-12.15,12.15
		s-12.15-5.45-12.15-12.15S12.798,8.1,19.498,8.1 M19.498,11c5.1,0,9.25,4.15,9.25,9.25s-4.15,9.25-9.25,9.25s-9.25-4.15-9.25-9.25
		S14.398,11,19.498,11 M19.498,11.55c4.8,0,8.7,3.9,8.7,8.7s-3.9,8.7-8.7,8.7s-8.7-3.9-8.7-8.7
		C10.848,15.45,14.748,11.55,19.498,11.55 M19.798,31.25c5.95-0.15,10.7-5.05,10.7-11c0-5.75-4.45-10.5-10.1-10.95V8.7
		c5.95,0.45,10.7,5.45,10.7,11.55c0,6.35-5.2,11.55-11.55,11.55s-11.55-5.2-11.55-11.55c0-6.1,4.75-11.1,10.7-11.55v0.6
		c-5.7,0.45-10.2,5.2-10.2,10.95c0,5.95,4.8,10.85,10.7,11V30.1c0.2,0,0.4,0,0.6,0V31.25z M19.798,9.85
		c5.6,0.15,10.1,4.75,10.1,10.4c0,5.45-4.2,9.95-9.55,10.35V30c5-0.45,8.95-4.65,8.95-9.8c0-5.4-4.4-9.85-9.85-9.85
		c-5.4,0-9.85,4.4-9.85,9.85c0,5.1,3.95,9.35,8.95,9.8v0.6c-5.35-0.45-9.55-4.95-9.55-10.35c0-5.65,4.5-10.25,10.1-10.4V8.7
		c0.2,0,0.4,0,0.6,0v1.15C19.698,9.85,19.798,9.85,19.798,9.85z M26.349,9.55c1.45-2.2-0.2-4.05-2.5-4.45
		c-0.75-2.4-1.75-3.6-4.35-3.75c-2.6,0.15-3.6,1.35-4.35,3.75c-2.3,0.4-3.95,2.2-2.5,4.45c2-1.25,4.35-2,6.85-2
		C22.048,7.5,24.399,8.25,26.349,9.55 M31.849,23.45c2.55,0.7,3.75-1.45,3.45-3.75c2.05-1.45,2.85-2.75,2.2-5.3
		c-0.95-2.4-2.4-3-4.9-2.95c-1.1-2.05-3.35-3.1-5-1c2.85,2.35,4.65,5.85,4.65,9.8C32.249,21.35,32.099,22.4,31.849,23.45
		 M20.298,32.95c0.1,2.65,2.55,3.15,4.65,2.1c2,1.5,3.5,1.85,5.7,0.5c2-1.65,2.1-3.2,1.3-5.6c1.6-1.65,1.9-4.1-0.6-5.05
		C29.599,29.4,25.299,32.65,20.298,32.95 M7.648,24.9c-2.5,0.95-2.2,3.4-0.6,5.05c-0.8,2.35-0.7,3.9,1.3,5.6c2.2,1.4,3.7,1,5.7-0.5
		c2.05,1,4.5,0.55,4.65-2.1C13.698,32.65,9.448,29.4,7.648,24.9 M11.448,10.45c-1.65-2.1-3.9-1.05-5,1c-2.5-0.05-3.95,0.55-4.9,2.95
		c-0.65,2.5,0.2,3.85,2.2,5.3c-0.3,2.3,0.9,4.45,3.45,3.75c-0.25-1-0.4-2.1-0.4-3.2C6.798,16.3,8.598,12.75,11.448,10.45
		 M19.498,7.5c7,0,12.7,5.7,12.7,12.75c0.05,7-5.7,12.75-12.7,12.75s-12.75-5.7-12.75-12.7C6.798,13.25,12.498,7.5,19.498,7.5
		 M5.498,24.8c-2.4-0.45-3.15-2.1-3.1-4.5c-2.05-1.45-2.85-3.7-2.15-6.3c0.95-2.5,2.9-3.9,5.45-3.85c1.35-1.95,2.95-2.85,5.15-1.8
		c-0.3-2.4,1.05-3.65,3.3-4.35c0.75-2.4,2.65-3.85,5.35-4c2.7,0.15,4.6,1.6,5.35,4c2.3,0.7,3.65,1.9,3.3,4.35
		c2.2-1.05,3.8-0.15,5.15,1.8c2.55-0.05,4.5,1.3,5.45,3.85c0.7,2.6-0.1,4.85-2.15,6.3c0.05,2.4-0.7,4.05-3.1,4.5
		c1.7,1.8,1.3,3.55-0.15,5.45c0.8,2.4,0.15,4.7-1.95,6.35c-2.25,1.5-4.65,1.4-6.65-0.1c-2.25,0.8-4.05,0.6-5.25-1.55
		c-1.15,2.15-3,2.35-5.25,1.55c-2.05,1.55-4.4,1.6-6.65,0.1c-2.1-1.7-2.8-3.95-1.95-6.35C4.198,28.35,3.848,26.6,5.498,24.8"/>
	<g>
		<g>
			<path class="st1" d="M54.199,8.9l0.05-0.4V8.35l0.05-0.2V8V7.85V7.7V7.6V7.4V7.15V7l0,0V6.9l0.05-0.1l0.05-0.1l0.05-0.05V6.5
				V6.45l-0.1-0.05h-0.1l-0.35-0.05l-0.4-0.05l-0.35-0.05h-0.2h-0.1l-0.15-0.05h-0.1h-0.15h-0.05l-0.05,0.05V6.3l-0.05,0.05
				c0,0.05-0.05,0.05-0.05,0.05v0.15l-0.05,0.4V7.3l-0.05,0.1l-0.05,0.25l-0.05,0.3l-0.05,0.25v0.25V8.6l0.05,0.15V8.9v0.15v0.1v0.1
				V9.5l-0.05,0.35l-0.1,0.1l-0.05,0.15l-0.1,0.05v0.05l-0.05,0.05l-0.15,0.1l-0.15,0.05l-0.15,0.05h-0.1h-0.05l-0.05-0.05
				l-0.05-0.05l-0.05-0.05l-0.05-0.05l-0.05-0.1V10.1l-0.05-0.1l-0.05-0.15l-0.05-0.25V9.45l0.05-0.25l0.05-0.15l0.05-0.15V8.8
				l0.05-0.1l0.05-0.3l0.05-0.2V7.8V5.7l0.05-0.3l0.05-0.35v-0.2V4.5V4.25L51.149,4V3.95l0.05-0.1V3.8l0.05-0.05l0.05-0.1l0.05-0.05
				h0.3l0.05,0.05l0.05,0.1l0.05,0.05l0.05,0.05V4.3l0.05,0.4l0.05,0.15l0.05,0.45v0.05l0.05,0.05h0.15h0.35h0.35h0.2h0.25l0.2,0.05
				l0.35,0.1h0.25h0.15l0.05-0.05h0.15l0.05-0.1l0.05-0.1V4.95l-0.05-0.1v-0.1l-0.05-0.35c0-0.2,0-0.35,0-0.45l0.05-0.25
				c0-0.05,0.05-0.05,0.05-0.05l0.05-0.05l0.05-0.05l0.1-0.05h0.1h0.05l0.05,0.05l0.1,0.05h0.05l0.05,0.05l0.05,0.05h0.05l0.05,0.05
				l0.05,0.05l0.05,0.05l0.05,0.2l-0.05,0.2V4.4l-0.05,0.05v0.2V4.9l0.05,0.25v0.1v0.5L55.399,6v0.35V6.5v0.1V7v0.15v0.2l0.1,0.35
				l0.05,0.35V8.2l0.1,0.8v0.25V9.4v0.15l-0.05,0.35l-0.15,0.6l-0.05,0.05v0.05l-0.05,0.05l-0.15,0.2L55.049,11h-0.2l-0.15-0.05
				l-0.15-0.1V10.8l-0.05-0.05V10.7l-0.05-0.1v-0.1v-0.05V10.4v-0.1c0-0.1,0-0.2-0.05-0.2V10V9.85V9.6V9.45V9.2L54.199,8.9
				 M46.749,8.3l0.6-0.05h0.15l0.6,0.05l0.7,0.05h0.3l0.2-0.05l0.2-0.05l0.15-0.05l0.05-0.05h0.1V8.2l0.05,0.05l0.05,0.05v0.05V8.5
				v0.1l-0.05,0.1l-0.1,0.05l-0.05,0.1l-0.05,0.05V9c-0.05,0-0.05,0.05-0.1,0.1c0,0.05-0.05,0.05-0.05,0.05l-0.1,0.05h-0.15h-0.05
				l-0.1-0.05h-0.05l-0.05-0.05h-0.05h-0.1h-0.05h-0.05h-0.1l-0.25,0.05h-0.2h-0.2h-0.4h-0.05l-0.2,0.05h-0.4h-0.2l-0.15-0.05h-0.25
				h-0.4h-0.15l-0.15,0.05c0,0,0,0-0.05,0l-0.1,0.1l-0.1,0.1l-0.2,0.1l-0.2,0.15l-0.05,0.05v0.05l-0.05,0.1l-0.1,0.05l-0.1,0.05
				L44.549,10h-0.05l-0.35-0.05l-0.15-0.15l-0.05-0.3l-0.05-0.15V9.1V8.85V8.7l0.05-0.15l0.05-0.15l0.1-0.2l0.2-0.2l0.05-0.1
				l0.05-0.05l0.05-0.1l0.05-0.1l0.1-0.25l0.05-0.25l0.05-0.25l0.05-0.35v-0.2v-0.2V6l-0.05-0.15l-0.1-0.25l-0.05-0.15l-0.05-0.15
				V5.25l-0.05-0.05V5.1L44.399,5l-0.05-0.05l-0.1-0.25V4.45l0.05-0.1l0.05-0.05c0-0.05,0-0.05,0.05-0.05l0.05-0.05l0.1-0.1h0.15
				l0.1-0.05L44.849,4l0.3-0.05l0.2,0.05l0.2,0.05h0.15h0.15h0.25h0.2h0.15h0.25h0.25h0.2l0.2-0.05h0.15h0.15h0.65h0.15l0.1,0.05
				l0.15,0.05h0.1h0.15h0.1h0.15h0.15h0.15h0.25h0.05h0.1l0.1,0.05l0.05,0.05l0.05,0.05v0.2l-0.05,0.15l-0.1,0.1l-0.1,0.05
				l-0.1-0.05h-0.05h-0.05h-0.15h-0.25h-0.2h-0.5h-0.15h-0.15h-0.2h-0.15h-0.15h-0.45h-0.15h-0.1h-0.15h-0.25l-0.1,0.05h-0.05
				l-0.05,0.05l-0.15,0.05l-0.15,0.05h-0.15h-0.15L45.499,5h-0.05v0.05V5.1v0.05v0.2V5.5v0.15V5.9l-0.05,0.25V6.3v0.1v0.1l-0.05,0.1
				v0.25l-0.05,0.4l-0.05,0.05l-0.05,0.25V7.7l-0.05,0.2l0.05,0.1l0.05,0.1l0.05,0.05c0,0.05,0.05,0.05,0.05,0.05v0.05l0.15,0.05
				h0.05h0.05h0.1h0.1h0.05l0.05-0.05h0.1h0.2L46.749,8.3z"/>
			<path class="st1" d="M67.399,7.35V7.7l0.05,0.25v0.1v0.1v0.1v0.1l-0.05,0.15l-0.05,0.05l-0.15,0.05h-0.1h-0.05h-0.15h-0.05
				l-0.1,0.05h-0.05l-0.05,0.05h-0.1h-0.05l-0.05,0.05V8.8l-0.1,0.05h-0.05l-0.05-0.05V8.7V8.6V8.5V8.35l-0.05-0.1V8.2V8.15
				L65.999,8l0.05-0.15V7.7V7.55l0.05-0.1V7.4V7.3V7.25V6.5l-0.05-0.15l-0.05-0.25V5.75V5V4.9l0.05-0.05l-0.05-0.05V4.7V4.6V4.5
				V4.25l0.1-0.3c0.05-0.1,0.1-0.15,0.15-0.2s0.05-0.1,0.05-0.1l0.05-0.05l0.15-0.1l0.1-0.05l0.1-0.05h0.2h0.1l0.1,0.05l0.05,0.05
				l0.05,0.05l0.05,0.05l0.1,0.1c0.05,0.05,0.05,0.05,0.05,0.05l0.05,0.1L67.499,4v0.1l0.05,0.25V4.5l0.05,0.05l0.05,0.1V4.7
				l-0.05,0.25V5c0,0,0,0,0.05,0l0.1,0.05h0.2h0.05c0.05,0,0.05,0,0.1,0h0.1l0.15,0.05l0.15,0.05l0.15,0.05l0.2,0.05h0.35h0.05h0.05
				l0.05,0.1l-0.05,0.05l-0.05,0.1l-0.1,0.2l-0.05,0.05l-0.05,0.05l-0.05,0.05l-0.05,0.05l-0.05,0.05L68.849,6h-0.1h-0.05h-0.05
				l-0.15-0.05l-0.15-0.05h-0.1h-0.6h-0.1V6v0.15v0.2V6.5v0.2l-0.05,0.25v0.1v0.1v0.1L67.399,7.35 M61.549,7.35l0.1-0.2l0.05-0.05
				V7.05V7V6.75l-0.1-0.25l-0.1-0.2l-0.15-0.1l-0.1-0.05l-0.15-0.05h-0.15l-0.05,0.05h-0.15l-0.1,0.05h-0.1l-0.1,0.05l-0.15,0.05
				l-0.1,0.1l-0.05,0.05l-0.05,0.05l-0.05,0.1l-0.05,0.05V6.7v0.05l0,0V6.8v0.1v0.15l0.05,0.15l0.05,0.1l0.05,0.05l0.05,0.05
				l0.05,0.05l0.05,0.05l0.1,0.05l0.05,0.05l0.05,0.05l0.1,0.05l0.1,0.05h0.15h0.15h0.05l0.15-0.05l0.1-0.05l0,0l0.1-0.05
				L61.549,7.35z M67.349,10.25l0.1,0.05l0.05,0.05l0.1,0.05h0.2l0.2,0.05h0.15l0.05,0.05h0.05h0.05l0.05,0.05h0.05h0.05l0.05,0.05
				l0.05,0.05l0.1,0.05l0.05,0.05v0.1h-0.05l-0.05,0.05l-0.05,0.05L68.499,11l-0.05,0.05h-0.05l-0.05,0.05h-0.05h-0.05l-0.05,0.05
				h-0.1l-0.1,0.05l-0.1,0.05l-0.05,0.05h-0.05h-0.05l-0.05-0.05l-0.05-0.05h-0.05h-0.05l-0.25-0.05h-0.15h-0.2h-0.3h-0.2h-0.55
				l-0.1-0.05h-0.1l-0.05-0.05l-0.1-0.05h-0.1l-0.25-0.05h-0.2h-0.1h-0.3l-0.1-0.05h-0.1l-0.1-0.05h-0.05h-0.1h-0.05h-0.1
				l-0.05,0.05h-0.05h-0.05h-0.1l-0.1,0.05L63.499,11l-0.35,0.05h-0.05h-0.1h-0.15L62.599,11h-0.35h-0.05h-0.2l-0.15,0.05h-0.65
				l-0.1,0.05h-0.05h-0.05l-0.1,0.05l-0.05,0.05h-0.05l-0.2,0.05h-0.05l-0.5,0.05l-0.45-0.05l-0.3,0.05l-0.25,0.05l-0.05,0.05
				l-0.1,0.05l-0.05,0.05l-0.05,0.05h-0.35l-0.2-0.05h-0.1l-0.1-0.05h-0.05h-0.1l-0.05-0.05l-0.05-0.05V11.3v-0.25l0.05-0.1v-0.1
				V9.5l0.05-0.1l0.05-0.1l0.05-0.1l0.05-0.05V9.1h0.1h0.05l0.05-0.05L58.299,9h0.1h0.1h0.05h0.05h0.15l0.15,0.05l0.1,0.05l0.1,0.05
				l0.05,0.05h0.05l0.05,0.05l0.05,0.05v0.05V9.7l-0.05,0.15v0.1L59.199,10l-0.05,0.1l-0.05,0.1v0.15l0.1,0.05h0.05h0.05l0.05,0.05
				h0.2h0.05h0.05h0.35h0.6h0.05h0.05h0.45l0.25-0.05h0.1l0.6-0.05h0.35h0.05h0.05h0.05h0.1h0.15l0.15-0.05l0.35-0.05l0.2-0.05h0.7
				l0.05,0.05h0.2h0.15h0.05l0.15,0.05h0.1h0.25l0.35,0.05h0.2h0.15h0.35h0.1h0.15l0.15,0.05l0.15,0.05l0.1,0.05L67.349,10.25z
				 M63.549,4.4l0.15,0.05h0.1l0.15,0.05l0.25,0.05c0.05,0,0.05,0,0.05,0.05l0.05,0.05v0.1l-0.05,0.05l-0.05,0.05l-0.05,0.05
				l-0.05,0.05L64.049,5l-0.05,0.05V5l-0.05,0.05l-0.1,0.05h-0.05l-0.1,0.05l-0.45,0.05h-0.15h-0.15h-0.1h-0.2h-0.15h-0.1l-0.2,0.05
				h-0.15h-0.05l-0.05,0.05l-0.05,0.05v0.1l0.05,0.05l0.05,0.05l0.05,0.05l0.1,0.1l0.05,0.1l0.05,0.05l0.05,0.05l0.05,0.05L62.399,6
				l0.05,0.05l0.05,0.05l0.05,0.1l0.05,0.05l0.05,0.05l0.05,0.15l0.05,0.05l0.05,0.1v0.05l0.05,0.1c0,0,0,0.05,0,0.1V6.9l0.05,0.1
				v0.05v0.1V7.3v0.1v0.1v0.15l-0.15,0.25l-0.15,0.15l-0.15,0.1l-0.15,0.1l-0.05,0.05l-0.15,0.05l-0.05,0.05l-0.1,0.05l-0.05,0.05
				l-0.05,0.05l-0.1,0.05h-0.1h-0.05h-0.15h-0.15h-0.2l-0.3,0.05h-0.25h-0.2l-0.15-0.05h-0.1l-0.15-0.05l-0.1-0.05l-0.15-0.1
				l-0.1-0.05l-0.1-0.15l-0.1-0.15l-0.05-0.1l-0.05-0.05V7.85l-0.05-0.05V7.75l-0.05-0.05l-0.05-0.05V7.6V7.45l-0.05-0.05V7.35V7.3
				l-0.05-0.05l-0.05-0.15V7.05V6.8l0.05-0.15l0.05-0.1l0.05-0.05l0.05-0.05l0.05-0.05V6.35l0.05-0.1l0.05-0.05l0.05-0.1l0.05-0.05
				c0-0.05,0.05-0.05,0.05-0.1l0.05-0.05l0.05-0.05l0.1-0.1l0.1-0.1l0.2-0.05l-0.15-0.05h-0.15h-0.2l-0.15-0.05l-0.25-0.05
				l-0.1-0.05h-0.5l-0.05,0.05l-0.1,0.05h-0.1h-0.1l-0.05,0.05l-0.1,0.05h-0.05h-0.1l-0.05-0.05l-0.1-0.15l-0.05-0.1V5.2V4.65
				l0.1-0.15V4.45l0.05-0.05l0.05-0.05h0.05h0.15l0.1-0.05l0.05-0.05l0.05-0.05h0.1l0.1-0.05l0.15-0.05h0.15h0.2h0.25h0.1l0.1,0.05
				l0.15,0.05c0.1,0.05,0.15,0.05,0.15,0.05h0.1h0.1h0.05l0.05-0.05l0.05-0.05h0.1l0.05-0.05l0.05-0.05L60.299,4l0.05-0.05
				l0.05-0.05l0.05-0.05l0,0l0.05-0.05l0.05-0.1l0.05-0.1V3.55l0.05-0.05l0.05-0.05l0.05-0.05l0.2-0.05h0.05h0.1h0.1h0.05l0.05,0.05
				l0.1,0.05l0.1,0.05l0.1,0.05l0.05,0.05l0.05,0.05V3.7l0.05,0.1v0.1v0.05V4.1v0.05l0.05,0.05h0.25l0.05-0.05h0.05h0.1h0.7h0.05
				h0.1h0.1h0.1L63.549,4.4z"/>
			<path class="st1" d="M80.899,4.2V4.15c0,0,0-0.05,0-0.1V4V3.95l0.05-0.1l0.05-0.05l0.05-0.05V3.7l0.05-0.15l0.05-0.05l0.05-0.05
				h0.05h0.1h0.1h0.05h0.05h0.15l0.15,0.05l0.1,0.05l0.1,0.1V3.7l0.05,0.05V3.8v0.05v0.1v0.1l0.05,0.1v0.2v0.1V5v0.1v0.1v0.4v0.25
				l-0.05,0.35l-0.1,0.65V7v0.15V7.3v0.1v0.1v0.1v0.05l-0.05,0.05l-0.1,0.05l-0.05,0.05h-0.2h-0.15h-0.05l-0.2-0.05h-0.2l-0.1-0.05
				l-0.05-0.15V7.3V6.9V6.6l-0.05-0.05l-0.05-0.05h-0.15h-0.1h-0.15h-0.05h-0.1h-0.05h-0.05h-0.05h-0.05h-0.15h-1.05l-0.1,0.05
				l-0.2,0.05h-0.05h-0.1h-0.1l-0.1-0.05l-0.05-0.05l-0.05-0.1V6.2l0.05-0.05l0.05-0.05V6.05V6l0.05-0.05l0.05-0.05h0.05h0.05
				l0.2-0.05h0.15l0.1-0.05h0.2h0.2h0.1h0.3h0.05h0.55h0.15h0.1h0.05h0.1h0.05l0.05-0.1V5.65V5.6l0.05-0.05l0.05-0.15l0.05-0.1V5.2
				l-0.05-0.05l-0.05-0.05h-0.15h-0.05h-0.1l-0.2,0.05h-0.25l-0.1,0.05h-0.1l-0.15,0.05h-0.05h-0.1h-0.3h-0.35h-0.15h-0.1h-0.1
				h-0.05l-0.05,0.05l-0.15,0.05l-0.1-0.05l-0.05-0.05h-0.05V5.2V5.1c0-0.1,0-0.15,0-0.15V4.9l0.05-0.1V4.65l0.05-0.15l0.05-0.05
				l0.05-0.05h0.1h0.15h0.15h0.1h0.05l0.05,0.05l0.1,0.05h0.05h0.05h0.1h0.3h0.2h0.1h0.1h0.25h0.25h0.25l0.05-0.05h0.1l0.05-0.1
				v-0.1L80.899,4.2 M74.749,5.5h-0.15l-0.2,0.05h-0.15h-0.2h-0.1h-0.15l-0.05,0.05h-0.05h-0.1h-0.4h-0.15h-0.2h-0.05l-0.05,0.1
				v0.15L72.799,6l-0.05,0.05V6.3v0.1v0.2v0.1l-0.05,0.05l-0.05,0.05v0.05h0.05h0.05h0.1h0.15h0.1h0.05h0.1h0.05h0.05l0.1-0.05h1.55
				l0.05-0.05h0.1h0.05h1.15h0.15v-0.9V5.8V5.7l0.05-0.1V5.55V5.4V5.35h-0.2l-0.1,0.05l-0.1,0.05h-0.05h-0.15h-0.1h-0.8h-0.1h-0.05
				L74.749,5.5z M71.549,9.45v-0.1V9.2V9.05V8.9l0.05-0.15V8.6V8.55v-0.1V8.4l0.05-0.1h0.05h0.05l0.05-0.05h0.05h0.05
				c0,0,0,0,0.05,0s0,0,0.05-0.05c0.05,0,0.1-0.05,0.15-0.05h0.05h0.05h0.1l0.05,0.05l0.05,0.05c0.05,0,0.05,0.05,0.05,0.05h0.05
				l0.05,0.05h0.05l0.05,0.05v0.05V8.5v0.1v0.05v0.1v0.1V9v0.05V9.6l0.05,0.05l0.05,0.05h0.6h0.15h0.5h0.15h0.1h0.1h0.15h0.1h0.4
				h0.1l0.25-0.05h0.15h0.3h0.1h0.25l0.15-0.05h0.15h0.15h0.3h0.1h0.15l0.05,0.05l0.1,0.05l0.15,0.05h0.2h0.15h1.2l0.15-0.05h0.15
				l0.15-0.05h0.15l0.25-0.05h0.1h0.15h0.1h0.6h0.1l0.1,0.05h0.1h0.4h0.05h0.2h0.15l0.1,0.05l0.15,0.05l0.05,0.05
				c0.1,0.05,0.15,0.05,0.15,0.05l0.15,0.05h0.25l0.15,0.05l0.05,0.1v0.1v0.05v0.1l-0.05,0.1l-0.1,0.1h-0.35h-0.15h-0.2h-0.15h-0.15
				h-0.15l-0.15,0.05h-0.15h-0.15l-0.15,0.05h-0.05h-0.05h-0.05l-0.1,0.05h-0.15h-0.1h-0.05l-0.1-0.05h-0.05h-0.15h-0.1h-0.1h-0.2
				l-0.1-0.05l-0.05-0.05h-0.35h-0.15l-0.1,0.05l-0.05,0.05h-0.1l-0.15,0.05l-0.15,0.05h-0.05h-0.05l-0.15,0.05l-0.05-0.05
				l-0.05-0.05h-0.3l-0.35-0.05l-0.2-0.05l-0.15-0.05h-0.05h-0.15h-0.1h-0.25l-0.25,0.05l-0.15-0.05h-0.35l-0.2-0.05h-0.2
				l-0.15,0.05l-0.15,0.05h-0.1h-0.05l-0.1,0.05h-0.1l-0.1,0.05l-0.1,0.05h-0.35h-0.1h-0.1h-0.05h-0.15l-0.1-0.05h-0.1h-0.1h-0.1
				l-0.2,0.05l-0.15,0.05h-0.05h-0.1l-0.1,0.05l-0.05,0.05h-0.1l-0.05,0.05h-0.05h-0.05l-0.1,0.05L72.549,11l-0.05,0.05h-0.3h-0.05
				h-0.05h-0.05h-0.05h-0.15h-0.1h-0.05l-0.05-0.1V10.9l-0.05-0.15l-0.05-0.1V10.5l0.05-0.15v-0.1l0.05-0.05l0.05-0.1V9.55l0,0v-0.1
				C71.699,9.45,71.549,9.45,71.549,9.45z M77.699,6.55v0.3V7v0.05l-0.05,0.05l-0.05,0.05V7.2v0.05V7.3l-0.05,0.05V7.4l-0.05,0.1
				l-0.05,0.05V7.6l-0.05,0.05l-0.05,0.05l-0.05,0.05h-0.05l-0.1,0.05l-0.05,0.05l-0.1,0.05h-0.2l-0.05-0.05l-0.15-0.1h-0.05
				l-0.05-0.15l-0.15,0.05h-0.2h-0.05h-0.05h-0.15l-0.3,0.05h-1.1h-0.1h-0.05h-0.7h-0.1l-0.25-0.05h-0.35l-0.1,0.05h-0.1l-0.1,0.05
				l-0.1,0.05h-0.05l-0.1,0.05l-0.1,0.05l-0.15,0.05h-0.1h-0.05h-0.1h-0.1L71.649,8l-0.05,0.05h-0.15L71.399,8l-0.05-0.05
				l-0.05-0.05V7.8l-0.05-0.15V7.5V7.4l0.05-0.05V7.3V7.25V7.2V7.05V7V6.85v-0.1v-0.1v-0.1l0.05-0.15V5.85l-0.05-0.2V5.4l0.05-0.2
				V5.05V4.9V4.75v-0.1V4.6V4.55v-0.2V4.3l0.05-0.15l0.05-0.05l0.05-0.1l0.05-0.05l0.1-0.15l0.05-0.1l0.05-0.05l0.05-0.05l0.05-0.05
				h0.1h0.1h0.1h0.3l0.05,0.05h0.05v0.05V3.7l0.05,0.05V3.8l0.05,0.05V3.9l0.05,0.1v0.05v0.1v0.1V4.3v0.1v0.05l0.05,0.1h0.85h0.2
				h0.1h0.25h0.05h0.1h0.1h0.05h0.35h0.1h0.15h0.15h0.25h0.25c0.05,0,0.1,0,0.15-0.05h0.05c0,0,0,0,0.05,0h0.05h0.05h0.05l0.05-0.05
				l0.05-0.05h0.05h0.05l0.1-0.05l0.05-0.05l0.05-0.15v-0.1l-0.05-0.1l0,0V3.8V3.75h0.05l0.05-0.05l0.05-0.05h0.05l0.05-0.05h0.1
				h0.05h0.05h0.05h0.05h0.15h0.05l0.1,0.05l0.05,0.05l0.05,0.05h0.05l0.05,0.05l0.1,0.05l0.05,0.05l0.05,0.05V4v0.05V4.4v0.2v0.1
				v0.15v0.1V5.2v0.4v0.25V6.1v0.15V6.4L77.699,6.55z"/>
			<path class="st1" d="M90.849,7.7l0.1-0.05l0.05-0.05l0.05-0.05l0.05-0.05l0.1-0.05V7.4l0.05-0.1V6.85v-0.2v-0.1h-0.05l-0.05-0.05
				l-0.05-0.05h-0.05V6.4h-0.05l-0.05-0.05l-0.05-0.05V6.25l-0.05-0.05l-0.05-0.05c0,0,0,0-0.05-0.05c0,0-0.05,0-0.05-0.05L90.649,6
				l-0.05-0.05h-0.05h-0.05l-0.1-0.05V5.85l-0.05-0.05h-0.05h-0.1h-0.05h-0.1l-0.15,0.05l-0.05,0.05h-0.05l-0.05,0.05L89.699,6
				l-0.1,0.05h-0.05l-0.1,0.05v0.05h-0.05l-0.05,0.05l-0.1,0.05l-0.05,0.05l-0.05,0.05l-0.05,0.15l-0.05,0.05l-0.05,0.05v0.1
				l-0.05,0.1l-0.05,0.15l-0.05,0.15v0.1l0.05,0.1v0.05l0.05,0.05l0.05,0.05l0.05,0.05l0.1,0.05l0.15,0.1l0.05,0.05l0.1,0.05h0.05
				h0.3l0.05,0.05l0.05,0.05l0.05,0.05h0.1h0.1l0.05-0.05h0.05l0.2-0.05h0.1h0.3 M89.549,8.6l-0.15-0.1l-0.1-0.05l-0.15-0.05
				l-0.1-0.05l-0.15-0.05l-0.05-0.05l-0.05-0.05l-0.05-0.05l-0.05-0.05l-0.05-0.05L88.599,8l-0.05-0.05l-0.05-0.05V7.85l-0.05-0.05
				V7.75l-0.05-0.05l-0.05-0.05l-0.05-0.05h-0.05h-0.05V7.55V7.5l-0.05-0.1l-0.05-0.1V7.25l-0.05-0.05l-0.05-0.1l-0.05-0.05
				l-0.05-0.15V6.65l0.05-0.05l0.05-0.1V6.4V6.35V6.3l0.05-0.1l0.05-0.05l0.05-0.1L88.199,6c0.05,0,0.05-0.05,0.05-0.05l0.05-0.05
				l0.05-0.05l0.05-0.05l0.05-0.05l0.05-0.1l0.05-0.05h0.05l-0.05-0.05l-0.1-0.05h-0.1h-0.1h-0.1h-0.1l-0.05-0.05h-0.2h-0.05h-0.4
				h-0.4l-0.1-0.05h-0.1l-0.1,0.05l-0.05,0.05h-0.1l-0.1,0.05h-0.15h-0.15h-0.05l-0.1,0.05h-0.2l-0.1-0.05l-0.05-0.05h-0.05l0,0
				l-0.05-0.05h-0.05l-0.05-0.05l-0.05-0.05l-0.05-0.05V5.2l0.05-0.05l0.05-0.05V5.05l0.05-0.1V4.9l0.05-0.05l0.05-0.05l0.05-0.05
				l0.1-0.05l0.05-0.05h0.05h0.05h0.15h0.05h0.15h0.1h0.05h0.1h0.05h0.25h0.1h0.2h0.3h0.35h0.6h0.25h0.05h0.05h0.1h0.05h0.05h0.3
				h0.1h0.1h0.05V4.6V4.5l-0.05-0.1l-0.05-0.05v-0.3V4h0.05l0.05-0.05l0.05-0.05V3.85l0.1-0.05l0,0l0.05-0.05h0.05l0,0l0.05-0.05
				l0.15-0.05l0.1-0.05l0.05-0.05h0.05l0.05-0.05h0.05l0.1-0.05h0.05l0.15,0.05l0.05,0.05h0.05l0.05,0.05v0.05l0.05,0.05v0.05
				l0.05,0.05l0.05,0.05l0.05,0.05c0,0.05,0,0.05,0.05,0.05V4l0.05,0.1l0.05,0.1v0.15l-0.05,0.05v0.05l-0.05,0.05v0.1l0.05,0.05
				h0.05l0.05-0.05h0.05l0.05,0.05h0.1h0.05h0.15h0.05h0.15l0.15,0.05h0.1h0.05h0.05h0.35h0.15h0.05h0.25h0.15h0.25l0.3,0.05h0.05
				h0.1h0.15h0.25h0.1h0.15h0.25l0.15,0.05h0.1h0.15h0.1l0.15,0.05h0.1h0.1h0.05h0.1l0.05,0.05l0.05,0.05V5h-0.05h-0.05v0.05V5.1
				l-0.05,0.05l-0.05,0.05l-0.05,0.05l-0.05,0.05l-0.05,0.05l-0.05,0.05l-0.05,0.05l-0.05,0.05v0.05l-0.05,0.05h-0.05l0,0h-0.45
				h-0.2h-0.15h-0.25h-0.2h-0.05l-0.1-0.05l-0.15-0.05h-0.2h-0.8h-0.05h-0.15h-0.1h-0.05h-0.05l-0.05,0.05h-0.05l-0.05,0.05v0.05
				v0.1l0.05,0.15v0.05L91.999,6v0.05l0.05,0.05l0.05,0.05l0.05,0.05v0.05l0.05,0.05l0.05,0.2l0.05,0.05v0.1l0.05,0.05v0.05
				l0.05,0.05l0.05,0.05V6.9l0.05,0.05V7.1v0.3l-0.05,0.15l-0.05,0.15v0.05h-0.05l-0.05,0.1l0,0V7.9v0.05L92.249,8
				c0,0-0.05,0-0.05,0.05l-0.05,0.05l-0.05,0.05l-0.05,0.05l-0.05,0.05l-0.05,0.05l-0.05,0.05c0,0.05-0.05,0.05,0,0.05l0,0
				c0,0,0,0-0.05,0.05h-0.05l-0.05,0.05l-0.05,0.05l-0.05,0.05l-0.05,0.05h-0.05l-0.1,0.05l-0.15,0.05l-0.05,0.05l-0.05,0.05V8.9
				v0.05L91.149,9v0.05v0.3v0.1l0.05,0.2l0.05,0.05h0.1h0.1h0.05h0.15h0.1h0.05h0.1h0.05h0.2l-0.15-0.2h0.05h0.1h0.15h0.05h0.2
				l0.2,0.05h0.15h0.15h0.1l0.05-0.05h0.15h0.05h0.1h0.15h0.6h0.05h0.1l0.1,0.05h0.05l0.15,0.05h0.15h0.1l0.1,0.05h0.45l0.1,0.05
				h0.1l0.05,0.05l0.05,0.05h0.1l0.05,0.05l0.05,0.05v0.25h-0.05l-0.05,0.05l-0.1,0.05h-0.05h-0.05h-0.05h-0.15l-0.05,0.05
				l-0.05,0.05v0.15l-0.05,0.05l-0.05,0.05l-0.05,0.05h-0.35h-0.05l-0.05-0.05h-0.05l-0.05-0.05h-0.4h-0.1h-0.2l-0.1-0.05l-0.1-0.05
				h-0.15l-0.05-0.05h-0.1l-0.05,0.05h-0.1l-0.05,0.05h-0.2h-0.05h-0.1h-0.05h-0.05h-0.05h-0.05h-0.05h-0.05h-0.05l-0.1-0.05h-0.15
				h-0.1h-0.2h-0.15h-0.1h-0.1h-0.05h-0.05l-0.1,0.05l-0.1,0.05v0.05h-0.05l-0.1,0.05l-0.1-0.05l-0.05,0.05l-0.15-0.05h-0.05h-0.1
				h-0.1h-0.1h-0.05l-0.05-0.05l-0.05-0.05h-0.1v0.05h-0.2l-0.15-0.05h-0.2l-0.15-0.05h-0.05h-0.05h-0.4h-0.15v0.05h-0.1h-0.05
				h-0.15l-0.1,0.05l-0.1,0.05h-0.15h-0.25l-0.05,0.05l-0.15,0.05h-0.05h-0.1l-0.05-0.05l-0.1-0.05l-0.2-0.05l-0.1-0.05l-0.1-0.05
				h-0.1h-0.15l-0.15-0.05l-0.15-0.05h-0.2h-0.1h-0.1h-0.1l-0.05,0.05h-0.15h-0.45h-0.05l-0.1,0.05l-0.1,0.05l-0.05,0.05h-0.3h-0.05
				l-0.05-0.05c-0.05,0-0.05,0-0.05,0v-0.05l-0.05-0.05v-0.05l-0.05-0.1v-0.1l0.05-0.05l0,0l0.05-0.05l0.05-0.05h0.05l0,0V9.95
				c0,0,0,0,0-0.05l0.05-0.05h0.05h0.1h0.05h0.05h0.1l0.15-0.05l0.1-0.05l0.15-0.05h0.4l0.3-0.05h0.05l0.15-0.05l0.25-0.05h0.4h0.1
				h0.05h0.1h0.1h0.1h0.1h0.15h0.05h0.2h0.05h0.1h0.05h0.1h0.15h0.15l0.15,0.05h0.75h0.1h0.15l0.15-0.05l0.05-0.05V9.45V9.4
				l-0.05-0.1V9.25V9.2V9.15V9.1V9V8.95v-0.1l-0.05-0.05l-0.05-0.05V8.7h-0.05l-0.05-0.05l-0.1-0.1L89.549,8.6z"/>
			<path class="st1" d="M105.599,6.3V6.05v-0.4V5.6V5.35v-0.2v-0.3l0.05-0.1l0.05-0.1l0.05-0.05V4.55V4.5V4.45V4.3V4.25V4.2V3.95
				l0.05-0.1l0.05-0.05l0.05-0.05l0.05-0.05l0.05-0.05V3.6l0,0V3.55l0.05-0.05V3.45l0.05-0.05h0.05l0.05-0.05h0.05h0.1l0.1,0.05
				h0.05l0.05,0.05l0.05,0.05l0.05,0.05l0.05,0.05l-0.2,0.1v0.1v0.25v-0.1v0.4V4.4v0.05V4.6l0.05,0.05l0.1,0.15v0.05l0.05,0.05v0.05
				l0.05,0.05h0.1l0.15-0.05l0.25-0.05l0.35-0.05l0.15-0.05h0.1h0.15h0.1h0.05h0.05h0.05l0.05,0.05h0.05l0.05,0.05l0.05,0.05V5v0.1
				v0.05V5.2l-0.05,0.05l-0.05,0.05l-0.05,0.1l-0.05,0.05h-0.05l-0.1,0.05h-0.05l-0.1,0.05h-0.1h-0.05l-0.15,0.05h-0.25l-0.15,0.05
				h-0.1h-0.1h-0.15h-0.05h-0.05h-0.05h-0.05c0,0,0,0-0.05,0.05v0.05l-0.05,0.05h-0.05v0.05l0,0L106.499,6v0.05V6.1l0.05,0.1
				l0.05,0.05l0.05,0.15l0.05,0.2v0.15v0.1l-0.05,0.05l-0.05,0.1l-0.05,0.05l-0.05,0.05v0.1l-0.05,0.05V7.3v0.2l0.05,0.05l0.05,0.05
				v0.05V7.7l0,0v0.1v0.15V8v0.35v0.1v0.1V8.6v0.1v0.15v0.1c0,0.05,0,0.05,0,0.05v0.05V9.1v0.55V9.8v0.05V9.9l-0.05,0.05l-0.1,0.05
				h-0.15h-0.05h-0.25l-0.05-0.05h-0.05l-0.05-0.05l-0.05-0.05l-0.05-0.05l-0.05-0.05l-0.05-0.05V9.65l-0.05-0.1v-0.1V9.2V9.05V9
				l0,0V8.9V8.8V8.75V8.7l-0.05-0.05l-0.05-0.05V8.55V8.5V8.45V8.4l-0.05-0.15v-0.1v-0.1v-0.3v-0.1l0.05-0.25V7.25v-0.1v-0.1V6.8
				l0.05-0.15l0.05-0.15V6.3 M98.599,7.3l0.1-0.25l0.05-0.25l0.05-0.15l0.05-0.15l0.05-0.05l0.3-0.75l0.05-0.1l0.1-0.15l0.1-0.15
				l0.05-0.05l0.1-0.1V5.1V5.05V5l0.05-0.05l0.05-0.05l0.05-0.05V4.8l0.05-0.1l0.05-0.05c0,0,0-0.05,0.05-0.1l0.05-0.05l0.05-0.05
				l0.05-0.05V4.35V4.3l0.05-0.1c0-0.05,0-0.1,0.05-0.15l0.05-0.05l0.05-0.1l0.05-0.05l0.05-0.05l0.15-0.05h0.1h0.15h0.1h0.15h0.1
				l0.1,0.05l0.05,0.1l0.1,0.05l0.05,0.1l0.05,0.15v0.05v0.1V4.4l0.05,0.15l0.05,0.1l0.05,0.05l0.05,0.05l0.05,0.05l0.05,0.05V4.9
				l0.05,0.05V5l0.05,0.05h0.05v0.1v0.3l-0.05,0.15v0.5l0.05,0.05v0.1v0.1l0.05,0.1l0.05,0.05l0.05,0.15V6.7l0.05,0.05v0.1
				l0.05,0.15l0.05,0.05v0.1V7.2v0.05v0.1c0,0.05,0.05,0.2,0.05,0.5v0.1V8.2l0.05,0.2l0.05,0.1v0.1v0.05l0.05,0.05l0.05,0.05V8.8
				l0.05,0.05l0.05,0.05l0.05,0.2v0.15v0.1l-0.05,0.1l-0.05,0.05l-0.1,0.1l-0.15,0.05h-0.35l-0.15-0.05l-0.05-0.05l-0.05-0.05V9.45
				l-0.05-0.05v0.1l0,0V9.45v-0.1v-0.2L101.549,9l-0.05-0.15V8.8V8.75l-0.05-0.15V8.45v-0.1v-0.1V8.1V8l-0.05-0.1V7.85l-0.05-0.05
				l-0.05-0.1h-0.05l-0.05-0.05V7.6V7.55V7.5l-0.05-0.05v-0.1v-0.1V7.2V7.15c0,0,0-0.05,0-0.1V7V6.9V6.6l-0.05-0.15l-0.05-0.1
				l-0.05-0.05V6.2V6.1l-0.05-0.3l-0.05-0.15l-0.05-0.25l-0.05-0.05h-0.1h-0.05l-0.05,0.05l-0.05,0.05V5.5l-0.05,0.05v0.1V5.7
				l-0.05,0.05V5.8v0.05l-0.05,0.05l-0.05,0.05l-0.05,0.1v0.1l-0.05,0.05l-0.05,0.1v0.05l-0.05,0.1V6.5v0.05l-0.05,0.15l-0.05,0.05
				l-0.05,0.05l-0.05,0.05V6.9l-0.05,0.05V7l-0.05,0.05c0,0.05-0.05,0.05-0.05,0.05l-0.05,0.05l-0.05,0.05v0.05l-0.05,0.1V7.4
				l-0.05,0.1l-0.05,0.1v0.05V7.7v0.05l-0.05,0.1l-0.05,0.05L99.399,8v0.1v0.05l-0.05,0.05l-0.05,0.1l-0.05,0.05V8.4l-0.05,0.05
				l-0.05,0.05c0,0,0,0,0,0.05l0,0V8.6v0.05l-0.05,0.05l-0.05,0.05l-0.05,0.1l-0.05,0.1L98.899,9l-0.05,0.1v0.05l0,0l-0.05,0.05
				l-0.05,0.05V9.3l-0.05,0.05l-0.05,0.05l-0.05,0.05l-0.05,0.05l-0.05,0.05V9.6l0,0c0,0,0,0,0,0.05h-0.05h-0.05h-0.05h-0.05h-0.05
				h-0.05h-0.05h-0.05h-0.1h-0.05h-0.05h-0.05h-0.05h-0.05l0,0l-0.05-0.05l-0.05-0.05l-0.05-0.05l-0.05-0.05V9.4l-0.05-0.05V9.2
				V9.15l0.05-0.1L97.599,9V8.95V8.9l0.05-0.05V8.8V8.75v-0.1l0.05-0.05l0.05-0.05l0.05-0.05l0.05-0.05l0.05-0.1V8.3l0.05-0.05V8.2
				l0.05-0.05l0.05-0.05l0.05-0.1V7.95l0.05-0.05h0.05V7.85l0.05-0.15c0.05-0.05,0.1-0.05,0.1-0.15l0.05-0.05l0.05-0.1l0.05,0.1
				l0.05-0.1L98.599,7.3z"/>
			<path class="st1" d="M118.449,7.15V7l-0.05-0.05l-0.05-0.05h-0.1h-0.1l-0.05,0.05h-0.1h-0.1h-0.55h-0.3h-0.05h-0.4h-0.15h-0.15
				L116.049,7h-0.05l-0.2-0.05h-0.05h-0.05l-0.05-0.05l-0.05-0.05V6.8V6.75v-0.1l0.05-0.1l0.05-0.05l0.05-0.05l0.05-0.05h0.05
				l0.05-0.05l0.05-0.05h0.05h0.05h0.1h0.05h0.15l0.05-0.05h0.05l0.1-0.05h0.1h0.05l0.25,0.05l0.15-0.05h0.5h0.1h0.45h0.15h0.1V6.15
				V6.1V6V5.75V5.6V5.55l-0.05-0.05V5.45l0,0l-0.05-0.05h-0.05h-0.05h-0.05h-0.1h-0.15h-0.65h-0.15l-0.25,0.05l-0.1,0.05h-0.1h-0.05
				l-0.05,0.05h-0.05l-0.05,0.05l-0.05,0.05l-0.05,0.05h-0.1h-0.05h-0.05h-0.1h-0.05l-0.1-0.05l-0.05,0.05l-0.05-0.05h-0.05
				l-0.05-0.05l-0.05-0.1l-0.05-0.05V5.4V5.35V5.3l0,0l0.05-0.05V5.2V5.15l0.05-0.05l0.05-0.05l0.05-0.05l0.05-0.05l0.05-0.05
				l0.05-0.05h0.05h0.05h0.1h0.15h0.1h0.15h0.05h0.05h0.05l0.1-0.05l0.05-0.05h0.05h0.05h0.05l0.05,0.05h0.1h0.05h0.2l0.2,0.05h0.4
				l0.05-0.05V4.75V4.7l0.05-0.05V4.6V4.5l0.05-0.1V4.35v-0.1l0.05-0.05l0.05-0.05l0.05-0.05l0.05-0.1h0.05l0.05-0.05h0.05
				l0.05-0.05l0.15-0.05h0.15h0.1h0.1l0.05,0.05l0.05,0.05L119.2,4l0.1,0.05h0.05l0.05,0.05c0.05,0.05,0.05,0.05,0.05,0.05
				l0.05,0.05h0.05v0.05l0.05,0.15v0.05V4.5l-0.05,0.05V4.6v0.05V4.7v0.05V4.8l-0.05,0.05V4.9V5v0.1v0.1v0.25v0.1V5.6l0.05,0.05V5.7
				l0.05,0.05c0,0.05,0,0.05,0,0.05v0.05v0.2V6.2v0.15V6.4l-0.05,0.1l-0.05,0.1l-0.05,0.1l-0.05,0.05v0.1V6.9l-0.05,0.05V7v0.05v0.1
				v0.1l0.05,0.05l0.05,0.1v0.1v0.1v0.1v0.05l0,0v0.1L119.4,7.9v0.05L119.349,8l-0.05,0.05l-0.05,0.1l-0.05,0.05h-0.05l-0.1,0.05
				l-0.05,0.05l-0.05,0.05l-0.05,0.05h-0.15l-0.1-0.05l-0.05-0.05l-0.05-0.05l-0.05-0.05V8.15V8.1V8.05V8V7.95V7.4V7.3V7.2
				L118.449,7.15 M118.249,10.75h0.05l0.15-0.05h0.05l0.05-0.05l0.05-0.05v-0.15l-0.05-0.05l-0.05-0.05V10.3v-0.1l-0.05-0.1V10V9.9
				l-0.05-0.05l-0.05-0.05h-0.1l-0.15-0.05l-0.15-0.05l-0.15-0.05l-0.05-0.05h-0.15h-0.2h-0.35h-0.85h-0.1h-0.1h-0.1h-0.05
				l-0.1,0.05h-0.1h-0.05h-0.1h-0.4h-0.1h-0.3h-0.4l-0.15,0.05h-0.05l-0.15-0.05h-0.35h-0.1h-0.05h-0.05l-0.15,0.05l-0.1,0.05h-0.15
				h-0.05h-0.1h-0.05h-0.05l-0.05-0.05h-0.1h-0.1h-0.05l-0.05,0.05h-0.05l-0.05,0.05h-0.05h-0.05h-0.05h-0.05l-0.15,0.05V9.9
				l-0.05,0.05l-0.05,0.05l-0.05,0.05v0.05l-0.05,0.05l-0.05,0.05l-0.05,0.05l0.05,0.05h0.05l0.1,0.05h0.25h0.1l0.15-0.05h0.1h0.05
				l0.1-0.05h0.1l0.25-0.05h0.45h0.15h0.2h0.05h0.15h0.05h0.1h0.35l0.1,0.05h0.1h0.15h0.1h0.15h0.75h0.15h0.2l0.15-0.05h0.1h0.1
				l0.05,0.05l0.1,0.05h0.1l0.1,0.05h0.1h0.05h0.15h0.15l0.1,0.05h0.25l0.2-0.05h0.05l0.05,0.05h0.05l0.05,0.05L118.249,10.75z
				 M111.599,7.05V7.1v0.1l0.05,0.1l0.05,0.05l0.05,0.05h0.05l0.05,0.05l0.05,0.05l0.05,0.05l0.05,0.05l0.05,0.05l0.05,0.05
				l0.05,0.05h0.1c0.05,0,0.1,0,0.1,0l0.05,0.05h0.05h0.1l0.05-0.05h0.25l0.05-0.05l0.05-0.05l0.05-0.05l0.05-0.05V7.5V7.45
				l0.05-0.05l0.05-0.05V7.3l0.05-0.1l0.05-0.05V7.1V7.05l0.05-0.05l0.05-0.05V6.9V6.8V6.7V6.65l-0.05-0.05V6.55l-0.05-0.05
				l-0.05-0.05V6.4V6.35l-0.05-0.05l-0.05-0.1l-0.05-0.05h-0.05h-0.05h-0.1h-0.1h-0.1h-0.05h-0.05h-0.05h-0.1l-0.05,0.05l-0.1,0.05
				l-0.1,0.05l-0.1,0.05l-0.15,0.1l-0.05,0.05l-0.05,0.1l-0.05,0.05l-0.05,0.05l-0.05,0.05l-0.05,0.1v0.1L111.599,7.05L111.599,7.05
				z M110.549,9.15V9V8.85l0.05-0.05l0,0V8.75l0.05-0.05l0.05-0.05l0.05-0.05h0.05h0.1h0.1h0.15h0.15l0.05,0.05l0.05,0.1l0.05,0.05
				l0.05,0.05l0.05,0.05v0.05l0.05,0.05v0.1v0.05V9v0.05V9.1l0.05,0.05V9.2l0.05,0.05h0.05h0.05h0.05h0.2c0.05,0,0.05,0,0.05,0h0.15
				h0.05h0.15h0.05l0.25,0.05h0.05h0.35h0.2h0.25l0.25-0.05h1.3h0.3h0.05h0.15h0.05h0.1h0.35l0.15-0.05h0.15h0.05h0.15l0.15-0.05
				h0.35h0.1h0.05h0.25l0.15,0.05h0.1l0.2,0.05h0.15h0.05h0.05h0.1l0.15,0.05h0.1V8.7l0.05-0.05l0.05-0.05l0.05-0.05h0.05l0.25-0.05
				h0.15l0.05,0.05h0.05h0.05l0.05,0.05v0.05l0.05,0.05v0.05l0.05,0.05l0.05,0.05V8.9L119.6,9l0.05,0.1v0.05l0.05,0.05v0.3v0.15V9.8
				v0.05l-0.05,0.05v0.25l-0.05,0.05v0.05l0,0v0.05v0.05l-0.05,0.05v0.1v0.1l-0.05,0.15v0.05l-0.05,0.1V11l-0.05,0.1v0.05v0.05
				l-0.05,0.1l-0.1,0.05l-0.05,0.05c0,0.05-0.05,0.05-0.1,0.05h-0.05H119l-0.05,0.05l-0.05,0.05h-0.1l-0.05-0.05h-0.1l-0.2-0.05
				l-0.05-0.05l-0.05-0.05V11.3l-0.05-0.05h-0.05h-0.05h-0.25l-0.05-0.05l-0.05-0.05l-0.05-0.05h-0.05l-0.2-0.05h-0.25L117.2,11H117
				l-0.15,0.05h-0.1h-0.1l-0.05,0.05l-0.05,0.05l-0.1,0.05H116l-0.05-0.05l-0.15-0.05h-0.15h-0.1h-0.1h-0.1l-0.1-0.05h-0.05
				l-0.15,0.05h-0.2l-0.15-0.05h-0.1h-0.05h-0.05l-0.1,0.05h-0.05l-0.05,0.05l-0.1,0.05h-0.15h-0.1h-0.05l-0.2,0.05h-0.05h-0.05
				h-0.05l-0.05,0.05h-0.05h-0.1h-0.05h-0.05l-0.05-0.05h-0.05H113l-0.15-0.05h-0.15h-0.25l-0.05,0.05h-0.05l-0.05,0.05l-0.05,0.05
				l-0.1,0.05l-0.05,0.05l-0.05,0.05L112,11.55l-0.05,0.05l-0.05,0.05l-0.1,0.05h-0.05h-0.05l-0.05,0.05c0,0-0.05,0-0.05,0.05
				l-0.05,0.05l-0.05,0.05l-0.05,0.05h-0.1h-0.05h-0.1h-0.55l-0.05-0.05l-0.05-0.05l-0.05-0.05h-0.05l-0.05-0.05l-0.05-0.05
				l-0.05-0.05l-0.05-0.05l-0.05-0.05l-0.05-0.05l-0.05-0.05l-0.05-0.05L110,11.35l-0.05-0.05v-0.15V11.1v-0.05V10.8l0.05-0.1
				l0.05-0.05l0.05-0.05l-0.05-0.15V10.4v-0.1v-0.1v-0.05V10.1l0.05-0.05l0.05-0.1l0.05-0.05V9.85V9.8l0.05-0.05l0,0V9.7V9.45V9.4
				V9.35V9.5V9.45V9.3V9.25v-0.1H110.549z M111.449,4.45l0.2-0.05l0.05-0.15l0.05-0.1V4.1c0,0,0,0,0-0.05c0,0,0-0.05,0.05-0.05
				l0.05-0.05l0.05-0.05V3.85h0.05V3.8l0.05-0.05l0.05-0.05l0.05-0.05l0.05-0.05l0.05-0.05h0.05h0.25l0.15,0.05h0.05l0.1,0.05
				l0.05,0.05h0.05l0.05,0.05l0.05,0.05h0.05l0.05,0.05V4v0.15V4.2l0.05,0.1h0.1h0.45h0.05l0.1,0.05l0.35,0.05h0.15h0.15h0.2
				l0.15,0.05l0.1-0.05l0.1,0.05c0.05,0,0.05,0,0.05,0.05l0.05,0.05l0.05,0.05v0.1v0.05v0.1V4.9l-0.05,0.1l-0.05,0.05l-0.05,0.05
				l-0.05,0.05h-0.05h-0.05h-0.1h-0.15h-0.15h-0.35h-0.15h-0.25l-0.1,0.05l-0.1,0.05h-0.05h-0.05h-0.05l-0.05,0.05l-0.05,0.05
				l-0.05,0.05l0.05,0.05l0.05,0.05l0.1,0.05l0.1,0.05h0.1l0.05,0.05l0.05,0.05l0.05,0.05h0.05l0.05,0.05h0.05l0.05,0.05l0.05,0.05
				l-0.05,0.1l0,0l0.05,0.05l0.05,0.05v0.05l0.05,0.05l0.05,0.05l0.05,0.05v0.05V6.4v0.05v0.1V6.6v0.05V6.9l0.05,0.25V7.3
				l-0.05,0.05v0.1V7.5l-0.05,0.15c0,0.05,0,0.05-0.05,0.05l-0.05,0.1v0.05l-0.05,0.05l-0.05,0.05L113.949,8l-0.05,0.05l-0.05,0.05
				l-0.05,0.05l-0.05,0.05v0.05l-0.05,0.05l-0.05,0.05l-0.05,0.05l-0.05,0.05l-0.05,0.05l0,0l-0.05,0.05l-0.05,0.05l-0.05,0.05
				h-0.05l-0.05,0.05l-0.1,0.05h-0.1h-0.05l-0.05,0.05l-0.05,0.05h-0.05h-0.05l-0.05,0.05h-0.1h-0.15l-0.1,0.05h-0.05h-0.05h-0.05
				h-0.05h-0.05h-0.05l-0.05-0.05l-0.05-0.05V8.8h-0.05l-0.05-0.05l-0.05-0.05l-0.05-0.05l-0.05-0.05l-0.05-0.05h-0.05h-0.05h-0.05
				h-0.05l-0.1-0.05h-0.15l-0.05-0.05l-0.05-0.05V8.35l-0.05-0.05l-0.05-0.05c0,0-0.05,0-0.05-0.05l-0.05-0.05l-0.05-0.05
				l-0.05-0.05l-0.1-0.1l-0.05-0.05h-0.05l-0.05-0.1l-0.05-0.05v-0.1v-0.1V7.5l0.05-0.05V7.4V7.35v-0.1l0.05-0.15l0.05-0.1V6.95V6.9
				V6.85V6.8V6.75h0.05V6.7V6.65l0.05-0.05l0.05-0.05l0.05-0.05l0.05-0.05V6.4h0.05l0.05-0.05l0.05-0.05l0.05-0.05l0.05-0.05
				l0.05-0.05l0.05-0.05l0.05-0.05V6V5.95h0.05l0.05-0.05V5.5l-0.05-0.1l-0.05-0.05l0,0l-0.05-0.05h-0.05h-0.2h-0.1h-0.1h-0.1
				l-0.1,0.05l-0.4,0.05l-0.1-0.05l-0.05-0.05h-0.05l-0.05-0.05l-0.05-0.05l-0.05-0.05l-0.05-0.05l-0.05-0.05L109.749,5l-0.05-0.05
				l-0.05-0.05V4.85V4.8v0.05V4.8l0.05-0.05l0.05-0.05l0.05-0.05V4.6l0.05-0.05l0.05-0.05h0.05l0.25-0.05h0.15h0.15h0.25l0.3-0.05
				h0.25h0.15L111.449,4.45L111.449,4.45z"/>
			<path class="st1" d="M130.95,8.95l-0.1,0.75l-0.05,0.15l-0.05,0.05l-0.05,0.05l-0.05,0.1l-0.05,0.05v0.05v0.05l-0.05,0.05
				c0,0,0,0-0.05,0.05l-0.05,0.05l-0.05,0.05l-0.05,0.05l-0.05,0.05l-0.05,0.05l-0.05,0.05l-0.05,0.05l-0.05,0.05
				c0,0.05-0.05,0.05-0.05,0.05L130,10.8l-0.05,0.05h-0.1v-0.3l-0.05-1.1v-0.1V9.1V8.6l0.05-0.05L129.8,8.3V7.9V7.55l0.05-0.1
				l0.05-0.1V7.1V6.85v-0.5V6.3V6l0.05-0.1L130,5.65v-0.3l-0.05-0.05l-0.05-0.15V5l0,0l-0.05-0.1l0,0l-0.05-0.05l-0.05-0.05V4.7
				l0.05-0.05l0.1-0.05l0.05-0.05L130,4.5l0.05-0.05l0.05-0.05l0.05-0.05l0.05-0.05l0.05-0.05l0.05-0.05l0.05-0.05h0.05l0.1-0.05
				l0.05-0.05h0.1h0.05h0.05h0.05h0.05l0.05,0.05h0.05L131,4.15l0.1,0.05l0.05,0.05c0,0.05,0.05,0.1,0.05,0.1v0.1v0.1l-0.05,0.05
				v0.05V4.8l-0.05,0.15V5.2v0.05V5.4v0.3v0.25V6.3v0.35V6.7v0.05V6.8l0,0v0.05V6.9v0.05v0.1V7.2L131,7.5v0.1v0.1l-0.05,0.15v0.6
				V8.95 M125.4,7.2l0.05-0.1V7.05V7V6.95V6.9V6.75v-0.1v-0.1v-0.1L125.4,6.3l-0.05-0.05h-0.05l-0.05-0.05l-0.05-0.05l-0.05-0.05
				l-0.1-0.05L125,6l-0.2-0.1l-0.1-0.05h-0.1h-0.15h-0.1h-0.1h-0.05l-0.05,0.05l-0.1,0.05L124,6l-0.05,0.05h-0.05l-0.05,0.05h-0.1
				l-0.05,0.05l-0.05,0.05l-0.05,0.05V6.3v0.1l-0.05,0.1l-0.05,0.15l-0.05,0.25v0.05L123.5,7l0,0l0.05,0.05l0,0
				c0.05,0.05,0.05,0.05,0.1,0.05l0.05,0.05l0,0l0.05,0.05h0.05l0.05,0.05h0.05l0.05,0.05H124l0.05,0.05h0.05h0.1h0.1l0.2,0.05l0,0
				h0.15h0.15h0.15c0.1,0,0.15-0.05,0.2-0.05l0.1-0.05L125.4,7.2z M124.2,8.3l-0.05-0.05L124.1,8.2l-0.05-0.05L124,8.1l-0.15-0.05
				L123.8,8h-0.05l-0.05-0.05V7.9c-0.05-0.05-0.05-0.05-0.1-0.05l-0.05-0.05l-0.05-0.05l-0.05-0.05h-0.05h-0.15l-0.1-0.05L123.1,7.6
				l-0.05-0.05L123,7.5l0,0l-0.05-0.05L122.9,7.4l-0.05-0.05L122.8,7.3V7.25V7.2l-0.05-0.05L122.7,7V6.85V6.7V6.6l0.05-0.15
				c0,0,0-0.05,0-0.1l0.05-0.05l0.05-0.05l0.05-0.05V6.15l0.05-0.05L123,6.05l0,0h0.05L123.1,6l0.05-0.05l0.05-0.05l0.1-0.05
				c0-0.05,0.05-0.05,0.05-0.1l0.05-0.1l0.05-0.05l0.05-0.15l-0.05-0.05h-0.1h-0.15h-0.1h-0.3l-0.2,0.05l-0.05,0.05l-0.15,0.05
				h-0.05h-0.05h-0.05h-0.1h-0.1h-0.1L121.7,5.5l-0.05-0.05L121.6,5.4V5.35V5.3l0.1-0.25V5l0.05-0.05l0.05-0.05l0.05-0.05l0.1-0.05
				H122l0.05-0.05l0.05-0.05l0.05-0.05l0.05-0.05l0.05-0.05h0.05h0.15h0.05h0.1h0.05c0.05,0,0.1,0,0.1,0V4.6h0.15l0.1,0.05h0.1h0.15
				l0.05-0.05l0.15-0.05h0.05h0.25V4.3l0.05-0.05l0.05-0.05h0.05l0.05-0.05L124,4.1c0.05-0.05,0.1-0.05,0.1-0.05l0.05-0.1l0.05-0.05
				l0.05-0.05l0.05-0.05l0.05-0.05c0,0,0-0.05,0.05-0.05l0.1-0.05l0.1-0.05l0.05-0.05h0.05l0.15-0.05h0.05l0.1,0.05l0.15,0.05
				l0.05,0.05l0.05,0.1V3.8v0.05l0.05,0.05l0.05,0.05L125.4,4v0.05V4.1v0.05l0.05,0.05l0.05,0.05V4.3l0.05,0.05h0.05l0.15-0.05h0.1
				h0.05h0.15l0.1,0.05h0.1h0.2l0.15,0.05h0.05l0.05,0.05h0.05l0.05,0.05h0.05H127h0.25h0.3h0.3h0.05l0.05,0.05H128l0.05,0.05l0,0
				v0.1L128,4.75h-0.05L127.9,4.8l-0.05,0.05L127.8,4.9l-0.05,0.05h-0.05L127.65,5l-0.05,0.05l-0.1,0.05h-0.05l-0.1,0.05L127.2,5.2
				l0,0h-0.05h-0.05L127,5.15l-0.1-0.05h-0.05h-0.1h-0.05h-0.05h-0.2l-0.15,0.05l-0.05,0.05l-0.05,0.05l-0.05,0.05h-0.05h-0.05H126
				h-0.05h-0.05h-0.05v0.05h0.05l0.05,0.05L126,5.45l0,0V5.5l0.05,0.05l0.05,0.05l0.05,0.05l0.05,0.05l0.05,0.05l0.05,0.05
				l0.05,0.05h0.05V5.9l0.05,0.05L126.5,6l0.05,0.05l0.05,0.1l0.05,0.15v0.05l0.05,0.05v0.2v0.15v0.1v0.1l-0.05,0.15l-0.05,0.1
				l-0.05,0.15L126.5,7.5v0.05l-0.05,0.05l-0.05,0.1l0,0l-0.05,0.05L126.3,7.9l-0.05,0.05V8l-0.05,0.05l-0.05,0.05l-0.05,0.05
				L126,8.2h-0.05l-0.1,0.05h-0.05h-0.1l-0.05,0.05l-0.05,0.05h-0.1h-0.1l0,0V8.4v0.05v0.1l0.05,0.15v0.05v0.1L125.5,9l0.05,0.1
				h0.25h0.1h1h0.3h0.05h0.15h0.2h0.25l0.45,0.05l0.1,0.05h0.1h0.05h0.35h0.25v0.05L129.1,9.3l-0.05,0.05H129V9.4l-0.05,0.05
				L128.9,9.5l-0.05,0.05l-0.05,0.1h-0.05L128.7,9.7l-0.05,0.05L128.6,9.8l-0.05,0.05V9.9h-0.05h-0.55h-0.15h-0.2h-0.25h-0.15h-0.15
				l-0.2,0.05h-0.15L126.55,10h-0.15h-0.15L126,9.95h-0.1h-0.05h-0.05h-0.25h-0.2h-0.2h-0.25h-0.4h-0.15L124.3,10l-0.05,0.05
				l-0.1,0.05H124h-0.15l-0.45,0.05l-0.15-0.05H123l-0.1,0.05h-0.1l-0.35,0.05h-0.1l-0.1,0.05l-0.05,0.05h-0.25h-0.2h-0.15h-0.15
				h-0.1h-0.05h-0.1h-0.1l-0.05-0.05L121,10.2l-0.05-0.05v-0.1V9.9L121,9.8V9.75l0.05-0.05V9.55l0.05-0.1l0.05-0.05l0.05-0.05h0.05
				l0.05-0.05l0.05-0.05l0,0l0.05-0.05l0.05-0.05l0.05-0.05V9.05h0.05h0.05L121.65,9l0.1-0.05l0.05-0.05h0.05l0.05-0.05h0.15h0.05
				l0.05,0.05l0.05,0.05L122.25,9l0.05,0.05l0.15,0.05h0.1h0.55h0.2h0.65H124l0.1-0.05L124.15,9h0.05l0.05-0.1l0.05-0.05V8.8
				l0.05-0.05l0.05-0.05V8.65V8.6V8.5V8.45L124.2,8.3z"/>
		</g>
		<g>
			<path class="st1" d="M57.149,29.5V25h-2.95v1.75h-10.3v-10.6h2.9v2.8h4.5v-2.8h2.9V18h2.95v-2.2h2.9v13.7H57.149z M45.549,34.15
				v-6.1h2.9v3.55h12.05v2.55H45.549z M51.299,21.45h-4.5v2.8h4.5V21.45z M57.149,20.55h-2.95v1.85h2.95V20.55z"/>
			<path class="st1" d="M61.349,33.1v-2.55h7.8V28.7h-1.8c-2.65,0-4.4-1.5-4.4-3.95c0-2.4,1.75-3.95,4.4-3.95h6.3
				c2.65,0,4.4,1.55,4.4,3.95s-1.75,3.95-4.4,3.95h-1.6v1.85h7.55v2.55C79.599,33.1,61.349,33.1,61.349,33.1z M62.549,19.9v-2.5h6.5
				v-2h3v2h6.5v2.5H62.549z M67.699,23.3c-1.1,0-1.8,0.7-1.8,1.45c0,0.8,0.7,1.4,1.8,1.4h5.7c1.1,0,1.8-0.6,1.8-1.4
				s-0.7-1.45-1.8-1.45H67.699z"/>
			<path class="st1" d="M90.199,31.55c-1.4-1.7-2.55-3.25-3.6-4.65c-0.25-0.35-0.55-0.7-0.7-1.1c-0.2,0.4-0.45,0.75-0.7,1.1
				c-1.1,1.4-2.6,3.25-4.05,4.95l-2-2.1c1.65-1.95,3.2-3.95,4.4-5.75c0.55-0.75,0.8-1.7,0.8-2.8v-4.9h2.95v4.9
				c0,1.15,0.3,2.05,0.8,2.8c1.2,1.8,2.4,3.65,4,5.55L90.199,31.55z M92.849,34.35v-18.6h2.9v6.35h2.5v2.8h-2.5v9.4L92.849,34.35
				L92.849,34.35z"/>
			<path class="st1" d="M108.749,25.8c-1.5-1.1-2.9-2.15-4.3-3.2c-1.5,1.2-3.1,2.35-4.65,3.55l-1.75-1.9c1.45-1.1,2.9-2.25,4.3-3.35
				c0.4-0.35,0.65-0.85,0.65-1.55V18.8h-4.1v-2.5h11.05v2.5h-4v0.55c0,0.7,0.25,1.2,0.65,1.55c1.2,1.05,2.55,2.1,3.85,3.05
				L108.749,25.8z M104.149,34.3c-2.4,0-4.2-1.5-4.2-3.95c0-2.5,1.75-3.95,4.2-3.95h7.1c2.4,0,4.2,1.5,4.2,3.95
				c0,2.5-1.75,3.95-4.2,3.95H104.149z M104.449,28.85c-1,0-1.6,0.55-1.6,1.45c0,0.95,0.6,1.45,1.6,1.45h6.5c1,0,1.6-0.55,1.6-1.45
				c0-0.95-0.6-1.45-1.6-1.45H104.449z M112.049,25.85v-4h-3.3V19.4h3.3v-3.65h2.9V25.8h-2.9V25.85z"/>
			<path class="st1" d="M116.249,33.1v-2.55h7.7V27.4h-5.85V16.15h2.9v3.05h8.85v-3.05h2.9V27.4h-5.85v3.15h7.7v2.55H116.249z
				 M129.85,21.75H121v3.05h8.85V21.75z"/>
			<path class="st1" d="M143.2,26.2c-1.1-1.15-2.1-2.1-3.2-3.25c-1.15,1.25-2.4,2.5-3.6,3.75l-2.05-1.65c1.1-1.15,2.7-2.85,3.6-3.95
				c0.4-0.45,0.55-1.05,0.55-1.75v-3.3h2.9v3.3c0,0.7,0.15,1.3,0.55,1.75c0.85,1.05,2,2.1,3.15,3.25L143.2,26.2z M137.65,34.15V27.6
				h2.9v4h12.35v2.55H137.65z M145.45,28.8v-7.45h-2.25V18.8h2.25V16h2.8v12.85h-2.8V28.8z M149.6,29.25v-13.5h2.85V29.2
				L149.6,29.25L149.6,29.25z"/>
			<path class="st1" d="M153.85,31.4V16.45H164V19h-7.2v3.5h6.1V25h-6.1v3.85h8.5v2.55H153.85z M167.1,34.35v-9.3h-3.3v-2.8h3.3
				v-6.5h2.9V34.3L167.1,34.35L167.1,34.35z"/>
		</g>
	</g>
</g>
</svg>
