<?xml version="1.0" encoding="utf-8"?>
<!-- Generator: Adobe Illustrator 26.0.3, SVG Export Plug-In . SVG Version: 6.00 Build 0)  -->
<svg version="1.1" id="Layer_1" xmlns="http://www.w3.org/2000/svg" xmlns:xlink="http://www.w3.org/1999/xlink" x="0px" y="0px"
	 viewBox="0 0 135.129 37.695" style="enable-background:new 0 0 135.129 37.695;" xml:space="preserve">
<style type="text/css">
	.st0{fill:#FFFFFF;}
</style>
<g>
	<g>
		<path class="st0" d="M10.566,33.597c-0.103-0.088-0.206-0.175-0.307-0.266C10.36,33.421,10.463,33.509,10.566,33.597z"/>
		<path class="st0" d="M8.838,31.894c-0.09-0.102-0.179-0.203-0.266-0.307C8.659,31.69,8.749,31.792,8.838,31.894z"/>
		<path class="st0" d="M8.317,31.274c-0.085-0.106-0.169-0.212-0.251-0.32C8.148,31.062,8.233,31.168,8.317,31.274z"/>
		<path class="st0" d="M11.193,34.109c-0.107-0.083-0.214-0.165-0.319-0.251C10.979,33.943,11.086,34.025,11.193,34.109z"/>
		<path class="st0" d="M15.027,36.37c-0.131-0.056-0.259-0.117-0.388-0.175C14.769,36.253,14.897,36.314,15.027,36.37z"/>
		<path class="st0" d="M15.793,36.673c-0.132-0.049-0.261-0.102-0.391-0.154C15.532,36.571,15.661,36.625,15.793,36.673z"/>
		<path class="st0" d="M7.826,30.631c-0.08-0.11-0.16-0.222-0.237-0.334C7.666,30.409,7.745,30.52,7.826,30.631z"/>
		<path class="st0" d="M11.846,34.592c-0.111-0.078-0.223-0.156-0.333-0.237C11.623,34.437,11.735,34.514,11.846,34.592z"/>
		<path class="st0" d="M4.623,22.235c-0.017-0.175-0.028-0.353-0.04-0.53C4.595,21.883,4.606,22.06,4.623,22.235z"/>
		<path class="st0" d="M38.734,23.423c-0.028,0.165-0.055,0.331-0.088,0.494C38.679,23.754,38.706,23.588,38.734,23.423z"/>
		<path class="st0" d="M16.575,36.94c-0.134-0.042-0.265-0.089-0.397-0.134C16.31,36.851,16.441,36.898,16.575,36.94z"/>
		<path class="st0" d="M38.569,24.266c-0.035,0.156-0.069,0.313-0.108,0.468C38.5,24.58,38.534,24.423,38.569,24.266z"/>
		<path class="st0" d="M4.728,23.08c-0.024-0.159-0.042-0.319-0.061-0.48C4.687,22.76,4.705,22.921,4.728,23.08z"/>
		<path class="st0" d="M5.542,26.316c-0.048-0.135-0.093-0.271-0.138-0.408C5.449,26.044,5.494,26.181,5.542,26.316z"/>
		<path class="st0" d="M5.838,27.084c-0.054-0.131-0.105-0.263-0.156-0.396C5.733,26.821,5.784,26.953,5.838,27.084z"/>
		<path class="st0" d="M4.874,23.911c-0.03-0.151-0.055-0.303-0.081-0.455C4.819,23.609,4.844,23.761,4.874,23.911z"/>
		<path class="st0" d="M6.17,27.834c-0.06-0.127-0.117-0.255-0.174-0.384C6.053,27.579,6.11,27.707,6.17,27.834z"/>
		<path class="st0" d="M29.955,35.665c-0.236,0.128-0.475,0.25-0.717,0.367C29.48,35.915,29.719,35.793,29.955,35.665z"/>
		<path class="st0" d="M30.662,35.26c-0.133,0.081-0.27,0.156-0.406,0.233C30.392,35.416,30.528,35.341,30.662,35.26z"/>
		<path class="st0" d="M31.348,34.822c-0.122,0.082-0.247,0.159-0.371,0.238C31.101,34.981,31.226,34.904,31.348,34.822z"/>
		<path class="st0" d="M38.364,25.089c-0.041,0.15-0.082,0.299-0.127,0.447C38.282,25.388,38.323,25.239,38.364,25.089z"/>
		<path class="st0" d="M28.139,36.511c-0.137,0.055-0.274,0.111-0.413,0.163C27.865,36.623,28.002,36.566,28.139,36.511z"/>
		<path class="st0" d="M28.93,36.172c-0.146,0.067-0.29,0.135-0.438,0.198C28.64,36.308,28.784,36.239,28.93,36.172z"/>
		<path class="st0" d="M33.265,33.328c-0.105,0.094-0.213,0.186-0.32,0.278C33.052,33.514,33.16,33.423,33.265,33.328z"/>
		<path class="st0" d="M32.65,33.855c-0.11,0.09-0.223,0.176-0.335,0.263C32.427,34.031,32.54,33.945,32.65,33.855z"/>
		<path class="st0" d="M32.01,34.354c-0.116,0.086-0.234,0.167-0.352,0.25C31.776,34.521,31.895,34.44,32.01,34.354z"/>
		<path class="st0" d="M25.748,37.267c-0.139,0.033-0.277,0.067-0.417,0.096C25.471,37.334,25.609,37.3,25.748,37.267z"/>
		<path class="st0" d="M22.957,37.695c0.095-0.007,0.189-0.018,0.284-0.026c-0.115,0.01-0.231,0.019-0.346,0.026H22.957z"/>
		<path class="st0" d="M20.564,37.695h0.063c-0.115-0.007-0.23-0.016-0.345-0.026C20.376,37.677,20.47,37.689,20.564,37.695z"/>
		<path class="st0" d="M24.089,37.575c-0.143,0.019-0.285,0.039-0.429,0.055C23.804,37.614,23.947,37.595,24.089,37.575z"/>
		<path class="st0" d="M19.86,37.63c-0.143-0.016-0.284-0.035-0.426-0.054C19.575,37.595,19.717,37.614,19.86,37.63z"/>
		<path class="st0" d="M27.355,36.802c-0.137,0.047-0.272,0.095-0.41,0.139C27.082,36.897,27.218,36.849,27.355,36.802z"/>
		<path class="st0" d="M26.557,37.054c-0.137,0.04-0.273,0.08-0.411,0.117C26.284,37.135,26.42,37.094,26.557,37.054z"/>
		<path class="st0" d="M24.925,37.441c-0.141,0.026-0.281,0.053-0.423,0.076C24.644,37.494,24.785,37.467,24.925,37.441z"/>
		<path class="st0" d="M19.017,37.516c-0.14-0.022-0.279-0.049-0.419-0.075C18.738,37.467,18.877,37.494,19.017,37.516z"/>
		<path class="st0" d="M4.559,21.379c-0.012-0.248-0.017-0.497-0.019-0.748C4.542,20.881,4.547,21.131,4.559,21.379z"/>
		<path class="st0" d="M34.953,31.582c-0.091,0.108-0.184,0.214-0.277,0.32C34.769,31.796,34.862,31.69,34.953,31.582z"/>
		<path class="st0" d="M7.195,29.705c0.055,0.088,0.113,0.174,0.17,0.26c-0.057-0.087-0.112-0.174-0.168-0.262L7.195,29.705z"/>
		<path class="st0" d="M6.345,28.194c0.06,0.12,0.121,0.24,0.183,0.359l0,0C6.466,28.434,6.405,28.314,6.345,28.194z"/>
		<path class="st0" d="M34.417,32.19c-0.096,0.104-0.194,0.205-0.293,0.307C34.223,32.396,34.321,32.294,34.417,32.19z"/>
		<path class="st0" d="M38.984,20.513c0,0.292-0.008,0.582-0.022,0.871C38.976,21.095,38.984,20.805,38.984,20.513
			c0-4.819-1.981-9.173-5.171-12.299c0,0,0,0,0,0C37.003,11.34,38.984,15.694,38.984,20.513z"/>
		<path class="st0" d="M32.031,6.687c-0.875-0.651-1.813-1.221-2.804-1.699C30.219,5.466,31.157,6.036,32.031,6.687
			C32.031,6.687,32.031,6.687,32.031,6.687z"/>
		<polygon class="st0" points="5.28,25.523 5.282,25.53 5.28,25.523 		"/>
		<polygon class="st0" points="35.197,31.282 35.198,31.282 35.198,31.282 		"/>
		<path class="st0" d="M13.672,35.72c0.121,0.065,0.244,0.126,0.367,0.188C13.916,35.846,13.793,35.784,13.672,35.72L13.672,35.72z"
			/>
		<path class="st0" d="M12.176,34.824c0.103,0.069,0.209,0.135,0.314,0.202l0,0C12.385,34.958,12.279,34.893,12.176,34.824z"/>
		<path class="st0" d="M33.855,32.772c-0.101,0.099-0.204,0.196-0.307,0.293C33.651,32.968,33.754,32.871,33.855,32.772z"/>
		<path class="st0" d="M18.477,29.718c0.309-0.274,0.493-0.653,0.518-1.065c0.024-0.413-0.113-0.81-0.387-1.12
			c-0.293-0.331-0.716-0.52-1.159-0.52c-0.378,0-0.742,0.138-1.025,0.389l-6.42,5.691c0.085,0.079,0.169,0.16,0.256,0.238
			c0.101,0.09,0.204,0.178,0.307,0.266c0.102,0.088,0.204,0.176,0.308,0.261c0.105,0.086,0.212,0.168,0.319,0.251
			c0.106,0.083,0.212,0.167,0.32,0.247c0.109,0.081,0.221,0.158,0.333,0.237c0.11,0.077,0.218,0.156,0.33,0.231
			c0.103,0.069,0.21,0.134,0.315,0.202L18.477,29.718z"/>
		<path class="st0" d="M32.031,6.687c-0.875-0.651-1.813-1.221-2.804-1.699C26.969,3.9,24.436,3.29,21.761,3.29
			c-3.891,0-7.479,1.291-10.363,3.467c2.278,0.218,5.836,0.796,8.668,2.335C21.922,8.134,26.356,6.264,32.031,6.687z"/>
		<path class="st0" d="M7.829,22.069c0.999-0.168,1.987,0.176,2.644,0.918c0.371,0.417,0.603,0.924,0.683,1.464l0.277-0.246
			c0.569-0.505,1.307-0.755,2.062-0.713c0.76,0.046,1.457,0.385,1.962,0.954c0.398,0.449,0.633,1.001,0.694,1.587
			c1.13-0.579,2.55-0.357,3.43,0.635c0.66,0.744,0.881,1.769,0.592,2.741c-0.074,0.25-0.195,0.494-0.354,0.726
			c0.57,0.132,1.09,0.432,1.489,0.881c0.484,0.546,0.731,1.253,0.712,1.969l2.418,1.598c0.644,0.425,1.482,0.406,2.037-0.048
			c0.441-0.361,0.678-0.883,0.65-1.433c-0.028-0.541-0.313-1.042-0.763-1.34l-5.65-3.734c-0.299-0.197-0.383-0.602-0.185-0.902
			c0.198-0.3,0.603-0.383,0.902-0.186l0.068,0.045l1.099,0.726c0.004,0.003,0.009,0.003,0.014,0.006l7.184,4.748
			c0.266,0.175,0.527,0.276,0.776,0.299c0.662,0.064,1.268-0.222,1.623-0.759c0.251-0.38,0.339-0.836,0.248-1.283
			c-0.091-0.447-0.351-0.832-0.731-1.083l-7.218-4.771c-0.145-0.096-0.244-0.243-0.279-0.413c-0.035-0.171-0.001-0.344,0.095-0.489
			c0.198-0.3,0.602-0.382,0.902-0.185l1.418,0.937c0.004,0.003,0.01,0.003,0.014,0.006l7.499,4.957
			c0.257,0.171,0.512,0.269,0.755,0.294c0.71,0.073,1.353-0.256,1.696-0.851c0.448-0.778,0.173-1.802-0.625-2.329l-7.442-4.919
			c-0.145-0.096-0.244-0.243-0.279-0.413c-0.035-0.17-0.001-0.344,0.095-0.489c0.198-0.3,0.603-0.382,0.903-0.184l1.415,0.935
			c0.005,0.003,0.012,0.003,0.017,0.007l5.874,3.883c0.258,0.171,0.512,0.27,0.755,0.294c0.302,0.031,0.59-0.015,0.85-0.119
			c0.027-0.085,0.056-0.168,0.082-0.253c0.045-0.148,0.086-0.298,0.127-0.447c0.032-0.118,0.066-0.236,0.096-0.355
			c0.039-0.155,0.073-0.311,0.108-0.468c0.026-0.116,0.054-0.232,0.077-0.349c0.033-0.164,0.06-0.329,0.088-0.494
			c0.018-0.105,0.038-0.21,0.054-0.316c-0.117-0.141-0.251-0.272-0.412-0.379l-12.61-8.334l-9.974,4.996
			c-0.89,0.507-1.953,0.585-2.914,0.21c-0.96-0.374-1.693-1.161-2.013-2.159c-0.477-1.492,0.216-3.175,1.649-4.002l6.188-3.572
			c-3.145-1.453-7.033-1.816-8.726-1.907c-3.346,3.142-5.438,7.602-5.438,12.554c0,0.039,0.003,0.078,0.003,0.118
			c0.002,0.25,0.007,0.5,0.019,0.748c0.005,0.11,0.016,0.218,0.024,0.327c0.012,0.177,0.023,0.354,0.04,0.53
			c0.012,0.122,0.03,0.243,0.044,0.365c0.019,0.16,0.037,0.321,0.061,0.48c0.019,0.126,0.043,0.251,0.064,0.377
			c0.026,0.152,0.051,0.304,0.081,0.455c0.013,0.065,0.029,0.128,0.042,0.192l1.472-1.305C6.833,22.405,7.331,22.152,7.829,22.069z"
			/>
		<path class="st0" d="M20.682,33.27c0.117-0.492-0.013-1.01-0.348-1.388c-0.274-0.309-0.652-0.493-1.065-0.518
			c-0.032-0.002-0.064-0.003-0.095-0.003c-0.377,0-0.741,0.138-1.024,0.39l-4.477,3.969c0.121,0.065,0.244,0.126,0.367,0.188
			c0.198,0.099,0.398,0.195,0.6,0.287c0.129,0.059,0.257,0.12,0.388,0.175c0.123,0.052,0.25,0.1,0.374,0.149
			c0.13,0.052,0.259,0.106,0.391,0.154c0.127,0.047,0.257,0.089,0.385,0.133c0.132,0.045,0.264,0.092,0.397,0.134
			c0.096,0.03,0.194,0.056,0.29,0.085l3.337-2.959C20.443,33.854,20.608,33.578,20.682,33.27z"/>
		<path class="st0" d="M9.338,26.061c0.216-0.192,0.366-0.397,0.445-0.611c0.209-0.565,0.102-1.162-0.285-1.599
			c-0.274-0.309-0.652-0.493-1.065-0.518C8.402,23.331,8.37,23.33,8.339,23.33c-0.377,0-0.741,0.138-1.025,0.39L5.28,25.523
			c0.001,0.002,0.001,0.004,0.002,0.007c0.039,0.127,0.081,0.252,0.122,0.378c0.045,0.136,0.09,0.273,0.138,0.408
			c0.045,0.125,0.093,0.249,0.14,0.372c0.051,0.132,0.102,0.265,0.156,0.396c0.051,0.123,0.104,0.245,0.158,0.366
			c0.057,0.129,0.114,0.257,0.174,0.384c0.057,0.121,0.116,0.24,0.175,0.359c0.06,0.12,0.121,0.24,0.184,0.358L9.338,26.061z"/>
		<path class="st0" d="M34.125,32.497c0.098-0.101,0.197-0.203,0.293-0.307c0.088-0.095,0.173-0.192,0.258-0.289
			c0.093-0.106,0.186-0.212,0.277-0.32c0.083-0.099,0.164-0.199,0.245-0.3c0,0,0,0,0-0.001c-0.031,0.001-0.061,0.005-0.092,0.005
			c-0.472,0-0.933-0.117-1.353-0.331c0.034,0.605-0.111,1.216-0.459,1.751c-0.443,0.68-1.126,1.145-1.921,1.307
			c-0.201,0.041-0.406,0.062-0.609,0.062c-0.587,0-1.159-0.173-1.654-0.5l-0.704-0.465c0.02,0.443-0.047,0.89-0.235,1.306
			c-0.498,1.098-1.554,1.781-2.754,1.781c-0.59,0-1.162-0.172-1.656-0.498l-2.105-1.391c-0.154,0.273-0.349,0.522-0.588,0.735
			l-2.665,2.363c0.065,0.013,0.131,0.025,0.196,0.038c0.139,0.026,0.278,0.052,0.419,0.075c0.138,0.022,0.277,0.04,0.416,0.059
			c0.142,0.019,0.283,0.038,0.426,0.054c0.14,0.015,0.281,0.027,0.422,0.039c0.115,0.01,0.23,0.019,0.345,0.026h2.267
			c0.116-0.008,0.231-0.017,0.346-0.026c0.14-0.012,0.281-0.024,0.42-0.039c0.144-0.016,0.286-0.035,0.429-0.055
			c0.138-0.019,0.276-0.037,0.413-0.059c0.142-0.023,0.282-0.049,0.423-0.076c0.135-0.025,0.271-0.049,0.406-0.078
			c0.14-0.03,0.278-0.063,0.417-0.096c0.133-0.032,0.266-0.062,0.398-0.096c0.138-0.036,0.274-0.077,0.411-0.117
			c0.129-0.037,0.26-0.073,0.388-0.113c0.138-0.044,0.274-0.092,0.41-0.139c0.124-0.043,0.249-0.083,0.372-0.128
			c0.139-0.051,0.275-0.108,0.413-0.163c0.118-0.047,0.236-0.091,0.353-0.141c0.148-0.063,0.292-0.131,0.438-0.198
			c0.103-0.047,0.207-0.091,0.308-0.14c0.242-0.117,0.481-0.239,0.717-0.367c0.102-0.055,0.2-0.115,0.301-0.172
			c0.136-0.077,0.272-0.153,0.406-0.233c0.107-0.064,0.21-0.133,0.315-0.2c0.124-0.079,0.249-0.156,0.371-0.238
			c0.105-0.071,0.207-0.145,0.311-0.218c0.118-0.083,0.236-0.164,0.352-0.25c0.103-0.076,0.203-0.157,0.305-0.235
			c0.112-0.087,0.225-0.173,0.335-0.263c0.1-0.081,0.197-0.166,0.294-0.25c0.107-0.092,0.215-0.183,0.32-0.278
			c0.096-0.086,0.189-0.175,0.283-0.263c0.103-0.097,0.206-0.193,0.307-0.293C33.946,32.682,34.035,32.589,34.125,32.497z"/>
		<path class="st0" d="M14.87,26.431c0.025-0.412-0.112-0.81-0.387-1.12c-0.274-0.309-0.653-0.493-1.066-0.518
			c-0.032-0.002-0.063-0.003-0.095-0.003c-0.377,0-0.741,0.138-1.025,0.39l-5.101,4.523c0.055,0.088,0.111,0.175,0.168,0.262
			c0.073,0.112,0.148,0.223,0.224,0.332c0.078,0.112,0.157,0.223,0.237,0.334c0.079,0.109,0.159,0.217,0.24,0.324
			c0.082,0.108,0.167,0.214,0.251,0.32c0.084,0.105,0.168,0.21,0.255,0.312c0.087,0.104,0.177,0.206,0.266,0.307
			C8.919,31.985,9,32.077,9.083,32.167l5.268-4.671C14.661,27.222,14.845,26.844,14.87,26.431z"/>
		<path class="st0" d="M33.813,8.214c-7.984-1.331-13.936,2.472-13.996,2.511l-0.028,0.017l-6.723,3.882
			c-0.536,0.31-0.905,0.838-1.014,1.45c-0.108,0.611,0.061,1.237,0.464,1.719c0.622,0.744,1.741,0.933,2.658,0.449l0.019-0.01
			l10.615-5.316c0.025-0.012,0.071-0.01,0.094,0.006l13.049,8.624c0.003-0.054,0.009-0.108,0.012-0.162
			c0.014-0.289,0.022-0.579,0.022-0.871C38.984,15.694,37.003,11.34,33.813,8.214z"/>
	</g>
	<path class="st0" d="M7.183,2.501C7.06,2.164,6.688,1.991,6.351,2.113L4.26,2.874V0.649C4.26,0.291,3.969,0,3.611,0
		C3.253,0,2.962,0.291,2.962,0.649v2.225l-2.09-0.761C0.535,1.991,0.162,2.164,0.039,2.501S0.091,3.21,0.427,3.333l2.09,0.761
		l-1.43,1.704c-0.23,0.275-0.194,0.684,0.08,0.915c0.122,0.102,0.27,0.152,0.417,0.152c0.185,0,0.369-0.079,0.498-0.232l1.528-1.822
		L5.14,6.633c0.128,0.153,0.312,0.232,0.498,0.232c0.147,0,0.296-0.05,0.417-0.152c0.275-0.23,0.311-0.64,0.08-0.915l-1.43-1.704
		l2.09-0.761C7.132,3.21,7.306,2.838,7.183,2.501z"/>
	<g>
		<g>
			<polygon class="st0" points="64.348,13.693 61.909,13.693 61.909,6.755 60.506,6.755 60.506,23.69 61.909,23.69 61.909,14.987 
				64.348,14.987 			"/>
			<rect x="64.272" y="18.417" class="st0" width="11.871" height="1.294"/>
			<rect x="77.583" y="6.754" class="st0" width="1.402" height="16.935"/>
			<polygon class="st0" points="49.731,7.108 48.329,7.108 48.329,19.711 58.394,19.711 58.394,18.417 49.731,18.417 			"/>
			<path class="st0" d="M93.679,7.108h-1.402v3.293h-5.186V7.108h-1.403V16.3h7.991V7.108z M92.276,15.006h-5.186v-3.332h5.186
				V15.006z"/>
			<polygon class="st0" points="98.231,19.573 99.633,19.573 99.633,6.755 98.231,6.755 98.231,9.264 94.677,9.264 94.677,10.537 
				98.231,10.537 98.231,13.125 94.677,13.125 94.677,14.418 98.231,14.418 			"/>
			<polygon class="st0" points="87.628,18.358 86.226,18.358 86.226,23.493 100.036,23.493 100.036,22.2 87.628,22.2 			"/>
			<polygon class="st0" points="110.274,19.083 108.891,19.083 108.891,22.2 101.63,22.2 101.63,23.493 117.516,23.493 
				117.516,22.2 110.274,22.2 			"/>
			<path class="st0" d="M104.79,13.487c0,2.724,1.997,4.763,4.782,4.763c2.804,0,4.783-2.038,4.783-4.763
				c0-1.388-0.524-2.593-1.41-3.439h3.801V8.753h-6.511V6.755h-1.46v1.999h-6.377v1.294h3.809
				C105.319,10.894,104.79,12.099,104.79,13.487z M109.345,10.047h0.455c1.942,0.106,3.172,1.553,3.172,3.439
				c0,1.999-1.325,3.469-3.4,3.469c-2.074,0-3.361-1.47-3.361-3.469C106.211,11.6,107.406,10.154,109.345,10.047z"/>
			<path class="st0" d="M69.63,16.3c2.804,0,4.783-2.038,4.783-4.763c0-2.705-1.979-4.723-4.783-4.723
				c-2.785,0-4.782,2.019-4.782,4.723C64.848,14.262,66.845,16.3,69.63,16.3z M69.63,8.088c2.075,0,3.4,1.49,3.4,3.449
				c0,1.999-1.325,3.469-3.4,3.469c-2.074,0-3.361-1.47-3.361-3.469C66.269,9.577,67.556,8.088,69.63,8.088z"/>
			<polygon class="st0" points="132.69,13.693 132.69,6.755 131.288,6.755 131.288,23.69 132.69,23.69 132.69,14.986 
				135.129,14.986 135.129,13.693 			"/>
			<polygon class="st0" points="128.961,18.305 125.106,7.093 125.097,7.097 125.097,7.094 123.337,7.094 123.337,7.095 
				123.331,7.093 119.142,19.278 119.15,19.281 118.995,19.725 120.438,19.725 120.438,19.724 120.44,19.725 124.219,8.736 
				127.997,19.725 128.009,19.721 128.01,19.725 129.452,19.725 128.962,18.305 			"/>
		</g>
		<g>
			<path class="st0" d="M74.35,29.048h0.708l0.999,2.832c0.125,0.368,0.243,0.736,0.368,1.104h0.035
				c0.125-0.368,0.236-0.736,0.354-1.104l0.993-2.832h0.708v5.183H77.98v-2.995c0-0.439,0.042-1.048,0.069-1.501h-0.028
				l-0.403,1.176l-0.992,2.789h-0.395l-0.999-2.789l-0.403-1.176h-0.028c0.028,0.453,0.069,1.062,0.069,1.501v2.995h-0.52V29.048z"
				/>
			<path class="st0" d="M80.617,32.198l-1.527-3.15h0.611l0.68,1.501c0.174,0.382,0.326,0.743,0.514,1.133h0.028
				c0.18-0.39,0.354-0.751,0.513-1.133l0.687-1.501h0.59l-1.527,3.15v2.032h-0.569V32.198z"/>
			<path class="st0" d="M84.705,29.048h0.576v4.687h2.242v0.495h-2.818V29.048z"/>
			<path class="st0" d="M90.632,32.595h-1.895l-0.52,1.636h-0.576l1.735-5.183h0.631l1.742,5.183h-0.611L90.632,32.595z
				 M90.486,32.135l-0.264-0.843c-0.194-0.588-0.354-1.147-0.527-1.756h-0.028c-0.166,0.616-0.333,1.168-0.52,1.756l-0.264,0.843
				H90.486z"/>
			<path class="st0" d="M91.826,29.048h0.59l0.562,2.882c0.104,0.552,0.208,1.111,0.312,1.678h0.028
				c0.118-0.566,0.243-1.126,0.368-1.678l0.722-2.882h0.534l0.729,2.882c0.125,0.545,0.25,1.111,0.375,1.678h0.035
				c0.097-0.566,0.194-1.126,0.298-1.678l0.555-2.882h0.555l-1.069,5.183h-0.68l-0.812-3.228c-0.083-0.403-0.166-0.772-0.25-1.175
				h-0.035c-0.076,0.403-0.173,0.772-0.257,1.175l-0.791,3.228h-0.673L91.826,29.048z"/>
			<path class="st0" d="M99.079,32.198l-1.527-3.15h0.611l0.68,1.501c0.174,0.382,0.326,0.743,0.514,1.133h0.028
				c0.18-0.39,0.354-0.751,0.513-1.133l0.687-1.501h0.59l-1.527,3.15v2.032h-0.569V32.198z"/>
			<path class="st0" d="M101.751,29.048h2.894v0.496h-2.318v1.706h1.95v0.495h-1.95v1.99h2.395v0.495h-2.97V29.048z"/>
			<path class="st0" d="M108.462,34.23l-1.27-2.237h-0.951v2.237h-0.576v-5.183h1.555c1.034,0,1.756,0.375,1.756,1.437
				c0,0.814-0.465,1.288-1.18,1.451l1.312,2.294H108.462z M106.241,31.512h0.888c0.819,0,1.27-0.333,1.27-1.026
				c0-0.708-0.451-0.963-1.27-0.963h-0.888V31.512z"/>
		</g>
	</g>
</g>
</svg>
