<?xml version="1.0" encoding="utf-8"?>
<!-- Generator: Adobe Illustrator 26.0.3, SVG Export Plug-In . SVG Version: 6.00 Build 0)  -->
<svg version="1.1" id="Layer_1" xmlns="http://www.w3.org/2000/svg" xmlns:xlink="http://www.w3.org/1999/xlink" x="0px" y="0px"
	 viewBox="0 0 30 30" style="enable-background:new 0 0 30 30;" xml:space="preserve">
<g>
	<path d="M6.277,9.395c1.653,0,2.998-1.345,2.998-2.999S7.93,3.397,6.277,3.397c-1.654,0-2.999,1.345-2.999,2.999
		S4.624,9.395,6.277,9.395z M6.277,4.467c1.063,0,1.928,0.865,1.928,1.929S7.341,8.325,6.277,8.325
		c-1.064,0-1.929-0.865-1.929-1.929S5.214,4.467,6.277,4.467z"/>
	<path d="M23.723,9.395c1.654,0,2.999-1.345,2.999-2.999s-1.345-2.999-2.999-2.999c-1.654,0-2.999,1.345-2.999,2.999
		S22.07,9.395,23.723,9.395z M23.723,4.467c1.064,0,1.929,0.865,1.929,1.929s-0.866,1.929-1.929,1.929
		c-1.064,0-1.929-0.865-1.929-1.929S22.66,4.467,23.723,4.467z"/>
	<path d="M23.723,10.009c-1.762,0-3.231,0.879-4.307,2.437c-1.154-0.787-2.873-1.279-4.829-1.279c-1.652,0-3.133,0.353-4.25,0.936
		c-1.05-1.345-2.43-2.094-4.06-2.094C2.464,10.009,0,14.083,0,20.387v0.535h8.249v1.99c0,2.07,2.784,3.691,6.338,3.691
		c3.554,0,6.338-1.622,6.339-3.691v-1.99H30v-0.535C30,14.082,27.536,10.009,23.723,10.009z M19.854,22.912
		c0,1.42-2.413,2.621-5.268,2.621s-5.268-1.2-5.268-2.621v-0.607c1.128,0.98,3.048,1.614,5.269,1.614
		c1.111,0,2.146-0.158,3.045-0.439c0.897-0.281,1.658-0.683,2.222-1.172V22.912z M14.587,12.237c1.87,0,3.361,0.482,4.276,1.134
		c0.357,0.255,0.617,0.533,0.781,0.823c0.024,0.043,0.058,0.085,0.078,0.128c0.081,0.178,0.133,0.357,0.133,0.535
		c0,0.177-0.038,0.352-0.109,0.52c-0.002,0.005-0.007,0.01-0.009,0.015c-0.066,0.15-0.162,0.296-0.279,0.436
		c-0.108,0.13-0.246,0.252-0.393,0.371c-0.045,0.036-0.076,0.077-0.125,0.112c-0.329,0.24-0.747,0.445-1.211,0.621
		c-0.034,0.013-0.065,0.029-0.1,0.041c-0.029,0.01-0.052,0.024-0.081,0.034c-0.295,0.102-0.609,0.191-0.941,0.262
		c-0.626,0.134-1.309,0.209-2.019,0.209c-0.711,0-1.394-0.075-2.02-0.208c-0.088-0.019-0.165-0.047-0.25-0.068
		c-0.238-0.059-0.474-0.12-0.691-0.195c-0.029-0.01-0.053-0.023-0.081-0.034c-0.134-0.048-0.256-0.103-0.38-0.157
		c-0.412-0.179-0.767-0.385-1.055-0.617c-0.147-0.119-0.285-0.241-0.393-0.371c-0.117-0.141-0.213-0.286-0.279-0.436
		c-0.002-0.005-0.007-0.01-0.009-0.015c-0.071-0.169-0.109-0.343-0.109-0.52c0-0.178,0.052-0.357,0.133-0.535
		c0.117-0.257,0.321-0.507,0.591-0.742c0.243-0.211,0.54-0.406,0.892-0.581C11.849,12.546,13.096,12.237,14.587,12.237z
		 M9.428,17.022c0.23,0.188,0.489,0.361,0.775,0.52c0,0,0.001,0,0.001,0c0.19,0.105,0.391,0.202,0.603,0.292
		c0.175,0.075,0.357,0.145,0.546,0.209c0.033,0.011,0.065,0.023,0.098,0.034c0.026,0.008,0.05,0.018,0.075,0.026
		c0.295,0.093,0.608,0.169,0.93,0.234c0.664,0.134,1.378,0.211,2.13,0.211c1.082,0,2.09-0.152,2.973-0.419
		c0.029-0.009,0.059-0.016,0.088-0.025c0.026-0.008,0.05-0.018,0.076-0.027c0.225-0.073,0.438-0.155,0.644-0.243
		c0.111-0.047,0.222-0.095,0.327-0.146c0.095-0.047,0.186-0.096,0.276-0.146c0,0,0.001,0,0.001,0
		c0.286-0.158,0.545-0.332,0.775-0.52c0.006-0.005,0.012-0.01,0.018-0.014c0.029-0.024,0.062-0.046,0.09-0.07v0.07v0.53v0.004v0.001
		c0,0.17-0.045,0.342-0.119,0.512c-0.003,0.008-0.011,0.016-0.014,0.023c-0.066,0.146-0.153,0.29-0.27,0.431
		c-0.108,0.129-0.24,0.254-0.387,0.375c-0.149,0.122-0.325,0.236-0.512,0.347c-0.291,0.172-0.619,0.329-0.994,0.461
		c-0.03,0.01-0.065,0.018-0.095,0.028c-0.804,0.271-1.771,0.444-2.876,0.444c0,0,0,0,0,0c-0.745,0-1.427-0.081-2.043-0.213
		c-0.331-0.071-0.642-0.158-0.929-0.259c-0.05-0.018-0.099-0.035-0.147-0.053c-0.551-0.209-1.008-0.467-1.358-0.754
		c-0.148-0.121-0.279-0.246-0.387-0.375c-0.117-0.141-0.205-0.285-0.271-0.432c-0.003-0.008-0.01-0.015-0.014-0.022
		c-0.074-0.17-0.119-0.342-0.119-0.513v-0.001v-0.534v-0.072c0.029,0.025,0.062,0.047,0.092,0.072
		C9.416,17.013,9.422,17.018,9.428,17.022z M9.318,19.852v-0.16v-0.071c0.028,0.025,0.061,0.047,0.091,0.071
		c0.009,0.008,0.019,0.015,0.029,0.023c0.057,0.046,0.115,0.093,0.175,0.137c0.181,0.133,0.379,0.258,0.59,0.375
		c0.374,0.207,0.791,0.387,1.245,0.535c0.179,0.058,0.364,0.112,0.554,0.16c0.786,0.2,1.658,0.312,2.585,0.312
		c1.036,0,2.004-0.141,2.859-0.388c0.061-0.018,0.126-0.033,0.186-0.051c0.032-0.01,0.062-0.022,0.094-0.033
		c0.455-0.148,0.872-0.328,1.245-0.535c0.211-0.117,0.409-0.242,0.59-0.375c0.061-0.045,0.118-0.091,0.175-0.137
		c0.009-0.008,0.02-0.015,0.029-0.023c0.029-0.023,0.061-0.045,0.088-0.069v0.069v0.16v0.369v0.006c0,0.183-0.043,0.362-0.118,0.535
		c-0.024,0.055-0.071,0.106-0.102,0.16c-0.061,0.106-0.114,0.214-0.201,0.314c-0.812,0.937-2.705,1.613-4.846,1.613
		c-2.371,0-4.415-0.832-5.047-1.927c-0.031-0.054-0.078-0.105-0.102-0.16c-0.076-0.173-0.118-0.352-0.118-0.535V19.852z
		 M1.076,19.852c0.126-5.349,2.139-8.773,5.201-8.773c1.247,0,2.315,0.576,3.158,1.61c-0.579,0.47-0.969,1.026-1.115,1.634H8.249
		v0.535v2.15v0.535v2.149v0.16H1.076z M20.926,19.852v-0.16v-2.149v-0.535v-2.685h-0.072c-0.101-0.419-0.314-0.813-0.629-1.172
		c0.886-1.326,2.077-2.072,3.499-2.072c3.062,0,5.075,3.424,5.2,8.773H20.926z"/>
</g>
</svg>
