<?xml version="1.0" encoding="utf-8"?>
<!-- Generator: Adobe Illustrator 26.0.3, SVG Export Plug-In . SVG Version: 6.00 Build 0)  -->
<svg version="1.1" id="Layer_1" xmlns="http://www.w3.org/2000/svg" xmlns:xlink="http://www.w3.org/1999/xlink" x="0px" y="0px"
	 viewBox="0 0 11 12" style="enable-background:new 0 0 11 12;" xml:space="preserve">
<style type="text/css">
	.st0{fill:#743D90;}
</style>
<path id="synchronization-3_00000127032988531454096940000017950114102029341593_" class="st0" d="M11,6
	c0,0.521-0.077,1.022-0.212,1.5h-1.05C9.904,7.03,10,6.526,10,6c0-2.481-2.019-4.5-4.5-4.5c-0.853,0-1.648,0.242-2.327,0.657
	L4.102,3.5H0.604L1.681,0l0.925,1.337C3.447,0.812,4.435,0.5,5.5,0.5C8.537,0.5,11,2.963,11,6z M7.823,9.846
	C7.145,10.259,6.351,10.5,5.5,10.5C3.019,10.5,1,8.481,1,6c0-0.527,0.096-1.03,0.263-1.5h-1.05C0.077,4.978,0,5.479,0,6
	c0,3.037,2.462,5.5,5.5,5.5c1.063,0,2.049-0.311,2.89-0.834L9.316,12l1.076-3.495H6.896L7.823,9.846z"/>
</svg>
