<?xml version="1.0" encoding="utf-8"?>
<!-- Generator: Adobe Illustrator 26.0.3, SVG Export Plug-In . SVG Version: 6.00 Build 0)  -->
<svg version="1.1" id="Layer_1" xmlns="http://www.w3.org/2000/svg" xmlns:xlink="http://www.w3.org/1999/xlink" x="0px" y="0px"
	 viewBox="0 0 24 24" style="enable-background:new 0 0 24 24;" xml:space="preserve">
<style type="text/css">
	.st0{fill:#743D90;}
</style>
<path class="st0" d="M13.473,7.196c-0.425-0.439-0.401-1.127,0.035-1.552l4.461-4.326C18.187,1.107,18.467,1,18.744,1
	c0.282,0,0.563,0.11,0.776,0.331C19.52,1.331,13.473,7.196,13.473,7.196z M6.139,18.217C6.047,18.306,6,18.425,6,18.544
	C6,18.794,6.203,19,6.455,19c0.115,0,0.229-0.042,0.318-0.128l0.748-0.729l-0.633-0.654L6.139,18.217z M14.351,11.735l-2.57,2.481
	c-0.824,0.799-1.607,1.328-2.705,1.79c0.496-1.084,1.05-1.852,1.873-2.65l2.569-2.479l-1.049-1.083l-2.564,2.485
	c-1.378,1.336-2.08,2.63-2.73,4.437l1.133,1.169c1.824-0.593,3.14-1.255,4.518-2.591l2.563-2.486L14.351,11.735z M22.229,4.492
	l-5.527,5.359l-1.239-1.279l5.529-5.361C21.816,2.408,23.079,3.667,22.229,4.492z M21.586,1.456c-0.572,0-1.156,0.209-1.64,0.678
	l-6.604,6.405l3.326,3.434l6.604-6.403C23.757,5.1,24,4.476,24,3.851C24,2.425,22.819,1.456,21.586,1.456z M18,13.466V21H2V9h8.013
	l2.058-2H0v16h20V11.527L18,13.466z"/>
</svg>
