<?xml version="1.0" encoding="utf-8"?>
<!-- Generator: Adobe Illustrator 26.0.3, SVG Export Plug-In . SVG Version: 6.00 Build 0)  -->
<svg version="1.1" id="Layer_1" xmlns="http://www.w3.org/2000/svg" xmlns:xlink="http://www.w3.org/1999/xlink" x="0px" y="0px"
	 viewBox="0 0 24 24" style="enable-background:new 0 0 24 24;" xml:space="preserve">
<style type="text/css">
	.st0{fill:#FFFFFF;}
</style>
<path class="st0" d="M14,19h-4c-0.276,0-0.5,0.224-0.5,0.5S9.724,20,10,20h4c0.276,0,0.5-0.224,0.5-0.5S14.276,19,14,19z M14,21h-4
	c-0.276,0-0.5,0.224-0.5,0.5S9.724,22,10,22h4c0.276,0,0.5-0.224,0.5-0.5S14.276,21,14,21z M14.25,23h-4.5l1.188,0.782
	C11.092,23.92,11.318,24,11.553,24h0.895c0.234,0,0.461-0.08,0.615-0.218L14.25,23z M18,9.201c0,3.569-3.214,5.983-3.214,8.799
	h-1.989c-0.003-1.858,0.87-3.389,1.721-4.867C15.279,11.808,16,10.556,16,9.201c0-2.592-2.075-3.772-4.003-3.772
	C10.072,5.429,8,6.609,8,9.201c0,1.355,0.721,2.607,1.482,3.932c0.851,1.478,1.725,3.009,1.72,4.867H9.214
	C9.214,15.184,6,12.77,6,9.201c0-3.723,2.998-5.772,5.997-5.772C14.998,3.429,18,5.48,18,9.201z M22,8.51v1.372h-2.538
	c0.02-0.223,0.038-0.448,0.038-0.681c0-0.237-0.017-0.464-0.035-0.69H22V8.51z M11.352,1.957V0h1.371v1.964
	c-0.242-0.022-0.484-0.035-0.726-0.035C11.782,1.929,11.567,1.939,11.352,1.957z M7.609,3.251l-1.04-1.94l1.208-0.648l1.037,1.933
	C8.396,2.777,7.992,2.997,7.609,3.251z M18.195,4.986l1.942-1.394l0.799,1.115L18.882,6.18C18.691,5.75,18.459,5.353,18.195,4.986z
	 M15.185,2.597l1.038-1.934l1.208,0.648L16.39,3.252C16.008,2.998,15.604,2.779,15.185,2.597z M5.117,6.18L3.063,4.708l0.799-1.115
	l1.942,1.393C5.54,5.352,5.309,5.749,5.117,6.18z M18.824,12.403l2.354,0.954l-0.514,1.271l-2.425-0.982
	C18.449,13.249,18.647,12.834,18.824,12.403z M5.716,13.558l-2.356,1.06l-0.562-1.251l2.34-1.052
	C5.311,12.748,5.509,13.16,5.716,13.558z M4.538,9.882H2V8.51h2.535C4.517,8.736,4.5,8.964,4.5,9.201
	C4.5,9.434,4.518,9.659,4.538,9.882z"/>
</svg>
