<?xml version="1.0" encoding="utf-8"?>
<!-- Generator: Adobe Illustrator 26.0.3, SVG Export Plug-In . SVG Version: 6.00 Build 0)  -->
<svg version="1.1" id="iconmonstr" xmlns="http://www.w3.org/2000/svg" xmlns:xlink="http://www.w3.org/1999/xlink" x="0px" y="0px"
	 viewBox="0 0 24 24" style="enable-background:new 0 0 24 24;" xml:space="preserve">
<style type="text/css">
	.st0{fill:#743D90;}
</style>
<path id="help-2" class="st0" d="M12,0C5.373,0,0,5.373,0,12c0,6.627,5.373,12,12,12s12-5.373,12-12C24,5.373,18.627,0,12,0z
	 M12,18.251c-0.69,0-1.25-0.561-1.25-1.251s0.56-1.251,1.25-1.251c0.691,0,1.25,0.561,1.25,1.251S12.691,18.251,12,18.251z
	 M13.961,12.322c-0.904,0.975-0.947,1.514-0.935,2.178h-2.005c-0.007-1.475,0.02-2.125,1.431-3.468
	c0.573-0.544,1.025-0.975,0.962-1.821c-0.058-0.805-0.73-1.226-1.365-1.226c-0.709,0-1.538,0.527-1.538,2.013h-2.01
	c0-2.4,1.409-3.95,3.59-3.95c1.036,0,1.942,0.339,2.55,0.955c0.57,0.578,0.865,1.372,0.854,2.298
	C15.479,10.684,14.638,11.592,13.961,12.322z"/>
</svg>
