<?xml version="1.0" encoding="utf-8"?>
<!-- Generator: Adobe Illustrator 26.0.3, SVG Export Plug-In . SVG Version: 6.00 Build 0)  -->
<svg version="1.1" id="Layer_1" xmlns="http://www.w3.org/2000/svg" xmlns:xlink="http://www.w3.org/1999/xlink" x="0px" y="0px"
	 viewBox="0 0 30 30" style="enable-background:new 0 0 30 30;" xml:space="preserve">
<g>
	<path d="M7.118,11.818c1.865,0,3.384-1.519,3.384-3.384c0-1.865-1.519-3.383-3.384-3.383S3.735,6.568,3.735,8.434
		C3.735,10.3,5.252,11.818,7.118,11.818z M7.118,6.205c1.229,0,2.229,1,2.229,2.229s-1,2.229-2.229,2.229s-2.229-1-2.229-2.229
		S5.889,6.205,7.118,6.205z"/>
	<path d="M7.118,12.582C2.794,12.582,0,17.21,0,24.372v0.577h14.236v-0.577C14.236,17.21,11.442,12.582,7.118,12.582z M8.697,14.04
		l-1.579,2.94l-1.579-2.94c0.495-0.192,1.02-0.303,1.579-0.303S8.203,13.847,8.697,14.04z M1.161,23.795
		c0.098-4.452,1.346-7.732,3.365-9.2l2.592,4.825l2.591-4.825c2.019,1.468,3.267,4.748,3.366,9.2H1.161z"/>
	<path d="M22.882,11.818c1.866,0,3.383-1.519,3.383-3.384c0-1.865-1.518-3.383-3.383-3.383s-3.383,1.517-3.383,3.383
		C19.499,10.3,21.016,11.818,22.882,11.818z M22.882,6.205c1.229,0,2.229,1,2.229,2.229s-1,2.229-2.229,2.229s-2.229-1-2.229-2.229
		S21.653,6.205,22.882,6.205z"/>
	<path d="M27.45,14.918l0.025-0.015l-0.27-0.277c-0.858-0.979-1.892-1.626-3.069-1.894c-0.089-0.021-0.178-0.04-0.269-0.057
		c-0.104-0.018-0.207-0.036-0.312-0.049c-0.222-0.027-0.445-0.046-0.672-0.046s-0.451,0.018-0.672,0.046
		c-0.106,0.012-0.209,0.031-0.313,0.049c-0.09,0.017-0.18,0.036-0.268,0.057c-1.179,0.268-2.213,0.916-3.072,1.897l-0.267,0.273
		l0.025,0.014c-1.617,2.043-2.551,5.323-2.551,9.455v0.577H30v-0.577C30,20.241,29.066,16.961,27.45,14.918z M25.522,14.642
		c-1.669,0.713-3.611,0.713-5.28,0C21.822,13.452,23.942,13.452,25.522,14.642z M16.925,23.795c0.082-3.708,0.963-6.602,2.42-8.316
		c1.1,0.554,2.309,0.86,3.537,0.86c1.227,0,2.436-0.306,3.537-0.86c1.457,1.715,2.338,4.608,2.42,8.316H16.925z"/>
</g>
</svg>
