<?xml version="1.0" encoding="utf-8"?>
<!-- Generator: Adobe Illustrator 26.0.3, SVG Export Plug-In . SVG Version: 6.00 Build 0)  -->
<svg version="1.1" id="Layer_1" xmlns="http://www.w3.org/2000/svg" xmlns:xlink="http://www.w3.org/1999/xlink" x="0px" y="0px"
	 viewBox="0 0 24 24" style="enable-background:new 0 0 24 24;" xml:space="preserve">
<style type="text/css">
	.st0{fill:url(#SVGID_1_);}
	.st1{fill:url(#SVGID_00000134240537807454488870000016710795539383473568_);}
	.st2{fill:#FFFFFF;}
</style>
<g>
	
		<radialGradient id="SVGID_1_" cx="-347.366" cy="-494.8737" r="12.9976" gradientTransform="matrix(0 -1.83 -1.7021 0 -835.9304 -609.8377)" gradientUnits="userSpaceOnUse">
		<stop  offset="0" style="stop-color:#FFDD55"/>
		<stop  offset="0.1" style="stop-color:#FFDD55"/>
		<stop  offset="0.5" style="stop-color:#FF543E"/>
		<stop  offset="1" style="stop-color:#C837AB"/>
	</radialGradient>
	<path class="st0" d="M12.004,0c-5.01,0-6.475,0.005-6.76,0.029C4.216,0.114,3.576,0.276,2.879,0.623
		C2.342,0.89,1.918,1.199,1.5,1.633C0.739,2.423,0.278,3.396,0.11,4.552c-0.081,0.561-0.105,0.676-0.11,3.543
		c-0.002,0.956,0,2.213,0,3.9c0,5.007,0.006,6.471,0.03,6.756c0.083,1.001,0.24,1.63,0.572,2.319
		c0.635,1.318,1.848,2.308,3.276,2.677c0.495,0.127,1.041,0.198,1.742,0.231C5.918,23.991,8.947,24,11.978,24
		s6.062-0.004,6.351-0.018c0.812-0.038,1.284-0.102,1.805-0.236c1.438-0.371,2.628-1.346,3.276-2.683
		c0.326-0.672,0.491-1.326,0.566-2.274C23.993,18.582,24,15.285,24,11.992c0-3.293-0.007-6.584-0.024-6.791
		c-0.076-0.964-0.241-1.612-0.577-2.297c-0.276-0.561-0.582-0.979-1.027-1.408c-0.794-0.758-1.765-1.22-2.922-1.387
		C18.89,0.029,18.778,0.005,15.91,0H12.004z"/>
	
		<radialGradient id="SVGID_00000075867182685495216960000004841473877491260040_" cx="162.8417" cy="-90.6138" r="12.9976" gradientTransform="matrix(0.1606 0.8021 3.3063 -0.6622 269.4285 -188.8925)" gradientUnits="userSpaceOnUse">
		<stop  offset="0" style="stop-color:#3771C8"/>
		<stop  offset="0.128" style="stop-color:#3771C8"/>
		<stop  offset="1" style="stop-color:#6600FF;stop-opacity:0"/>
	</radialGradient>
	<path style="fill:url(#SVGID_00000075867182685495216960000004841473877491260040_);" d="M12.004,0c-5.01,0-6.475,0.005-6.76,0.029
		C4.216,0.114,3.576,0.276,2.879,0.623C2.342,0.89,1.918,1.199,1.5,1.633C0.739,2.423,0.278,3.396,0.11,4.552
		c-0.081,0.561-0.105,0.676-0.11,3.543c-0.002,0.956,0,2.213,0,3.9c0,5.007,0.006,6.471,0.03,6.756
		c0.083,1.001,0.24,1.63,0.572,2.319c0.635,1.318,1.848,2.308,3.276,2.677c0.495,0.127,1.041,0.198,1.742,0.231
		C5.918,23.991,8.947,24,11.978,24s6.062-0.004,6.351-0.018c0.812-0.038,1.284-0.102,1.805-0.236
		c1.438-0.371,2.628-1.346,3.276-2.683c0.326-0.672,0.491-1.326,0.566-2.274C23.993,18.582,24,15.285,24,11.992
		c0-3.293-0.007-6.584-0.024-6.791c-0.076-0.964-0.241-1.612-0.577-2.297c-0.276-0.561-0.582-0.979-1.027-1.408
		c-0.794-0.758-1.765-1.22-2.922-1.387C18.89,0.029,18.778,0.005,15.91,0H12.004z"/>
	<path class="st2" d="M11.998,3.139c-2.406,0-2.708,0.011-3.653,0.054c-0.943,0.043-1.587,0.193-2.15,0.412
		C5.612,3.83,5.118,4.133,4.625,4.626C4.132,5.119,3.83,5.613,3.603,6.196c-0.22,0.564-0.369,1.208-0.412,2.151
		c-0.042,0.945-0.053,1.248-0.053,3.654s0.011,2.708,0.054,3.653c0.043,0.943,0.193,1.587,0.412,2.151
		c0.226,0.583,0.529,1.077,1.022,1.57c0.492,0.493,0.987,0.796,1.569,1.023c0.564,0.219,1.208,0.369,2.151,0.412
		c0.945,0.043,1.247,0.054,3.653,0.054c2.406,0,2.707-0.011,3.652-0.054c0.943-0.043,1.588-0.193,2.151-0.412
		c0.583-0.226,1.076-0.53,1.568-1.023c0.493-0.493,0.796-0.987,1.023-1.57c0.218-0.564,0.367-1.208,0.412-2.151
		c0.042-0.945,0.054-1.247,0.054-3.653s-0.011-2.709-0.054-3.654c-0.044-0.943-0.194-1.587-0.412-2.151
		c-0.227-0.583-0.53-1.077-1.023-1.57c-0.493-0.493-0.986-0.796-1.569-1.022c-0.565-0.219-1.209-0.369-2.152-0.412
		c-0.945-0.043-1.246-0.054-3.653-0.054L11.998,3.139z M11.204,4.736c0.236,0,0.499,0,0.795,0c2.366,0,2.646,0.008,3.58,0.051
		c0.864,0.04,1.333,0.184,1.645,0.305c0.413,0.161,0.708,0.353,1.018,0.663c0.31,0.31,0.502,0.606,0.663,1.019
		c0.121,0.312,0.266,0.781,0.305,1.645c0.042,0.934,0.052,1.215,0.052,3.58s-0.009,2.646-0.052,3.58
		c-0.039,0.864-0.184,1.333-0.305,1.645c-0.161,0.414-0.353,0.708-0.663,1.018c-0.31,0.31-0.605,0.502-1.018,0.663
		c-0.312,0.122-0.781,0.266-1.645,0.305c-0.934,0.042-1.215,0.052-3.58,0.052c-2.366,0-2.646-0.009-3.58-0.052
		c-0.864-0.04-1.333-0.184-1.645-0.306c-0.413-0.161-0.709-0.353-1.019-0.663c-0.31-0.31-0.502-0.605-0.663-1.019
		c-0.121-0.312-0.266-0.781-0.305-1.645c-0.042-0.934-0.051-1.215-0.051-3.581s0.008-2.646,0.051-3.58
		c0.04-0.864,0.184-1.333,0.305-1.645c0.161-0.414,0.353-0.709,0.663-1.019c0.31-0.31,0.605-0.502,1.019-0.663
		c0.312-0.122,0.781-0.266,1.645-0.306c0.817-0.037,1.134-0.048,2.785-0.05L11.204,4.736z M16.728,6.207
		c-0.587,0-1.063,0.476-1.063,1.063c0,0.587,0.476,1.063,1.063,1.063c0.587,0,1.063-0.476,1.063-1.063S17.315,6.207,16.728,6.207
		L16.728,6.207z M11.998,7.45c-2.513,0-4.55,2.038-4.55,4.551s2.037,4.55,4.55,4.55c2.513,0,4.549-2.037,4.549-4.55
		S14.511,7.45,11.998,7.45L11.998,7.45z M11.998,9.047c1.631,0,2.953,1.323,2.953,2.954c0,1.631-1.322,2.954-2.953,2.954
		c-1.631,0-2.953-1.323-2.953-2.954C9.045,10.369,10.367,9.047,11.998,9.047z"/>
</g>
</svg>
