<?xml version="1.0" encoding="utf-8"?>
<!-- Generator: Adobe Illustrator 26.0.3, SVG Export Plug-In . SVG Version: 6.00 Build 0)  -->
<svg version="1.1" id="Layer_1" xmlns="http://www.w3.org/2000/svg" xmlns:xlink="http://www.w3.org/1999/xlink" x="0px" y="0px"
	 viewBox="0 0 24 24" style="enable-background:new 0 0 24 24;" xml:space="preserve">
<style type="text/css">
	.st0{fill:#FAE300;}
	.st1{fill:#391B1B;}
</style>
<path class="st0" d="M18,24H6c-3.314,0-6-2.686-6-6V6c0-3.314,2.686-6,6-6h12c3.314,0,6,2.686,6,6v12C24,21.314,21.314,24,18,24z"/>
<path class="st1" d="M3.927,9.862c0,1.512,0.685,2.376,1.359,3.183c0.025,0.807,0.069,1.347-0.269,2.57
	c1.411-0.45,1.645-0.628,2.428-1.109c0.807,0.197,1.19,0.308,2.108,0.396c-0.076,0.572-0.065,1.029,0.044,1.633
	c-0.607-0.048-1.234-0.144-1.881-0.302c-1.128,0.692-3.617,1.393-5.368,1.707c0.655-1.288,1.379-3.056,1.341-4.288
	c-0.88-1.054-1.376-2.409-1.376-3.79C2.312,5.966,6.122,3.12,10.385,3.12c4.228,0,8.054,2.813,8.071,6.715
	c-0.52-0.141-1.067-0.224-1.632-0.253c-0.185-2.696-2.997-4.847-6.44-4.847C6.824,4.734,3.927,7.035,3.927,9.862z M20.785,18.072
	c-0.023,0.808,0.45,1.966,0.878,2.809c-1.146-0.208-2.775-0.665-3.513-1.118c-0.623,0.152-1.222,0.221-1.787,0.221
	c-3.12,0-5.246-2.134-5.246-4.393c0-2.562,2.511-4.413,5.284-4.413c2.791,0,5.284,1.864,5.284,4.413
	C21.687,16.494,21.362,17.383,20.785,18.072z M14.68,15.633c0-0.366-0.297-0.662-0.662-0.662s-0.662,0.296-0.662,0.662
	s0.297,0.662,0.662,0.662S14.68,15.998,14.68,15.633z M17.102,15.633c0-0.366-0.297-0.662-0.662-0.662
	c-0.365,0-0.662,0.296-0.662,0.662s0.297,0.662,0.662,0.662C16.805,16.295,17.102,15.998,17.102,15.633z M19.523,15.633
	c0-0.366-0.297-0.662-0.662-0.662c-0.365,0-0.662,0.296-0.662,0.662s0.297,0.662,0.662,0.662
	C19.226,16.295,19.523,15.998,19.523,15.633z"/>
</svg>
