<?xml version="1.0" encoding="utf-8"?>
<!-- Generator: Adobe Illustrator 26.0.3, SVG Export Plug-In . SVG Version: 6.00 Build 0)  -->
<svg version="1.1" id="Layer_1" xmlns="http://www.w3.org/2000/svg" xmlns:xlink="http://www.w3.org/1999/xlink" x="0px" y="0px"
	 viewBox="0 0 30 30" style="enable-background:new 0 0 30 30;" xml:space="preserve">
<g>
	<g>
		<path d="M15,6.898c-4.467,0-8.102,3.634-8.102,8.102s3.635,8.102,8.102,8.102s8.102-3.634,8.102-8.102S19.467,6.898,15,6.898z
			 M16.45,21.64c-0.354,0.242-0.731,0.4-1.125,0.456v-0.313v-2.484h2.881C17.758,20.342,17.152,21.159,16.45,21.64z M11.794,19.299
			h2.881v2.484v0.313c-0.394-0.056-0.771-0.213-1.125-0.456C12.848,21.159,12.242,20.342,11.794,19.299z M13.55,8.359
			c0.354-0.242,0.731-0.4,1.125-0.456v0.313v2.484h-2.881C12.242,9.657,12.848,8.84,13.55,8.359z M18.207,10.701h-2.881V8.216V7.904
			c0.394,0.056,0.771,0.213,1.125,0.456C17.152,8.84,17.758,9.657,18.207,10.701z M14.675,11.352v3.323h-3.696
			c0.031-1.211,0.233-2.342,0.565-3.323H14.675z M14.675,15.325v3.323h-3.13c-0.333-0.981-0.534-2.112-0.565-3.323H14.675z
			 M15.326,18.648v-3.323h3.696c-0.031,1.211-0.233,2.342-0.565,3.323H15.326z M15.326,14.674v-3.323h3.13
			c0.333,0.981,0.534,2.112,0.565,3.323H15.326z M12.164,8.828c-0.412,0.524-0.773,1.154-1.061,1.873H9.737
			C10.389,9.905,11.219,9.264,12.164,8.828z M9.271,11.352h1.597c-0.321,0.998-0.51,2.127-0.54,3.323H8.217
			C8.275,13.455,8.652,12.321,9.271,11.352z M10.329,15.325c0.03,1.196,0.219,2.325,0.54,3.323H9.271
			c-0.619-0.969-0.996-2.104-1.055-3.323H10.329z M11.103,19.299c0.288,0.719,0.649,1.349,1.061,1.873
			c-0.944-0.436-1.775-1.077-2.426-1.873H11.103z M17.837,21.172c0.412-0.524,0.773-1.154,1.061-1.873h1.365
			C19.612,20.095,18.781,20.736,17.837,21.172z M20.729,18.648h-1.597c0.321-0.998,0.51-2.127,0.54-3.323h2.112
			C21.725,16.544,21.348,17.679,20.729,18.648z M19.672,14.674c-0.03-1.196-0.219-2.325-0.54-3.323h1.597
			c0.619,0.969,0.996,2.104,1.055,3.323H19.672z M18.898,10.701c-0.288-0.719-0.649-1.349-1.061-1.873
			c0.944,0.436,1.775,1.077,2.426,1.873H18.898z"/>
		<path d="M27.341,12.074C26.015,6.482,20.992,2.305,15,2.305S3.985,6.482,2.659,12.074C1.17,12.225,0,13.472,0,15
			s1.17,2.774,2.659,2.926c1.326,5.592,6.35,9.769,12.341,9.769s11.015-4.177,12.341-9.769C28.83,17.774,30,16.528,30,15
			S28.83,12.225,27.341,12.074z M27.59,16.554c-0.172,0.061-0.354,0.1-0.546,0.1c-0.043,0-0.083-0.009-0.125-0.013
			c-0.227-0.017-0.439-0.079-0.631-0.179C25.758,16.187,25.39,15.638,25.39,15c0-0.638,0.367-1.187,0.898-1.463
			c0.192-0.1,0.404-0.161,0.631-0.179c0.042-0.003,0.082-0.013,0.125-0.013c0.192,0,0.374,0.039,0.546,0.1
			c0.643,0.227,1.108,0.834,1.108,1.554C28.698,15.72,28.233,16.327,27.59,16.554z M15,26.393c-5.326,0-9.797-3.679-11.039-8.625
			C5.095,17.354,5.912,16.275,5.912,15s-0.817-2.355-1.951-2.768C5.203,7.285,9.674,3.607,15,3.607
			c5.326,0,9.797,3.678,11.039,8.625c-1.134,0.414-1.951,1.493-1.951,2.768s0.817,2.355,1.951,2.768
			C24.797,22.715,20.326,26.393,15,26.393z M1.302,15c0-0.72,0.465-1.327,1.108-1.554c0.172-0.061,0.354-0.1,0.546-0.1
			c0.043,0,0.083,0.009,0.125,0.013c0.227,0.017,0.439,0.079,0.631,0.179C4.242,13.813,4.61,14.361,4.61,15
			c0,0.638-0.367,1.187-0.898,1.463c-0.192,0.1-0.404,0.161-0.631,0.179c-0.042,0.003-0.082,0.013-0.125,0.013
			c-0.192,0-0.374-0.039-0.546-0.1C1.767,16.327,1.302,15.72,1.302,15z"/>
	</g>
</g>
</svg>
