<?xml version="1.0" encoding="utf-8"?>
<!-- Generator: Adobe Illustrator 26.0.3, SVG Export Plug-In . SVG Version: 6.00 Build 0)  -->
<svg version="1.1" id="Layer_1" xmlns="http://www.w3.org/2000/svg" xmlns:xlink="http://www.w3.org/1999/xlink" x="0px" y="0px"
	 viewBox="0 0 30 30" style="enable-background:new 0 0 30 30;" xml:space="preserve">
<g>
	<path d="M14.266,8.989c0.252-0.176,0.358-0.505,0.225-0.791c-0.134-0.288-0.453-0.417-0.749-0.333l-0.442-0.949
		c-0.468-1.005-1.755-1.473-2.76-1.004L9.005,6.628C7.021,5.439,4.541,5.499,2.591,6.814c-2.166,1.461-3.129,4.323-2.289,6.806
		c0.546,1.615,1.751,2.923,3.306,3.588c0.1,0.043,0.203,0.084,0.305,0.121c1.48,0.539,3.122,0.471,4.556-0.198
		c1.778-0.829,3.007-2.443,3.343-4.364l1.582-0.738c0.502-0.235,0.884-0.65,1.074-1.172c0.19-0.522,0.165-1.084-0.07-1.587
		L14.266,8.989z M12.85,10.866l-2.22,1.035l-0.041,0.356c-0.187,1.633-1.182,3.02-2.663,3.711c-1.204,0.561-2.597,0.583-3.816,0.061
		c-0.973-0.416-1.747-1.128-2.247-2.037l1.021-0.476c0.431,0.74,1.086,1.288,1.848,1.565c0.857,0.312,1.835,0.299,2.725-0.117
		c1.782-0.831,2.555-2.956,1.725-4.738c-0.83-1.78-2.955-2.555-4.737-1.724c-1.682,0.784-2.447,2.721-1.83,4.433L1.594,13.41
		c-0.026-0.068-0.056-0.133-0.08-0.203c-0.658-1.946,0.095-4.19,1.792-5.334C4.585,7.012,6.152,6.834,7.541,7.34
		c0.367,0.134,0.72,0.315,1.054,0.544l0.302,0.206l2.185-1.019c0.385-0.179,0.877,0,1.057,0.385l1.097,2.352
		c0.09,0.193,0.099,0.408,0.026,0.608S13.043,10.776,12.85,10.866z M4.715,9.082c0.73-0.341,1.532-0.353,2.236-0.097
		c0.703,0.256,1.31,0.781,1.651,1.511c0.681,1.461,0.046,3.205-1.415,3.886C5.726,15.064,3.983,14.43,3.3,12.968
		S3.253,9.763,4.715,9.082z"/>
	<path d="M15.73,7.36c-0.355,0.021-0.629,0.323-0.608,0.679c0.019,0.266,0.193,0.479,0.423,0.563
		c0.084,0.031,0.167,0.048,0.258,0.04c0.356-0.021,0.623-0.325,0.6-0.674C16.382,7.611,16.077,7.342,15.73,7.36z"/>
	<path d="M17.862,7.645c-0.342-0.11-0.701,0.072-0.816,0.406c-0.107,0.329,0.065,0.684,0.39,0.802
		c0.006,0.002,0.012,0.004,0.018,0.006c0.335,0.109,0.701-0.072,0.81-0.408C18.377,8.119,18.197,7.754,17.862,7.645z"/>
	<path d="M19.816,9.597c0.228-0.272,0.193-0.68-0.078-0.908c-0.272-0.228-0.674-0.191-0.902,0.08
		c-0.228,0.272-0.191,0.673,0.08,0.902c0.055,0.054,0.12,0.084,0.192,0.111C19.355,9.872,19.638,9.804,19.816,9.597z"/>
	<circle cx="10.873" cy="8.395" r="0.453"/>
	<path d="M29.78,16.709c-0.649-2.26-2.51-3.901-4.794-4.266l-0.715-1.535c-0.468-1.005-1.755-1.473-2.76-1.004l-0.575,0.268
		c-0.194-0.161-0.474-0.198-0.711-0.072c-0.214,0.113-0.325,0.33-0.327,0.556l-0.74,0.345c-0.503,0.235-0.884,0.65-1.074,1.171
		s-0.165,1.085,0.069,1.588l0.738,1.582c-0.978,1.688-1.074,3.715-0.245,5.492c0.669,1.434,1.883,2.541,3.363,3.08
		c0.102,0.037,0.207,0.072,0.311,0.103c1.619,0.49,3.382,0.262,4.839-0.624C29.4,22.031,30.502,19.22,29.78,16.709z M26.495,22.301
		c-0.062,0.038-0.128,0.068-0.191,0.104l-0.475-1.019c1.574-0.916,2.232-2.891,1.448-4.573c-0.831-1.782-2.957-2.554-4.737-1.724
		c-1.782,0.831-2.555,2.956-1.725,4.738c0.415,0.89,1.155,1.529,2.012,1.841c0.762,0.277,1.615,0.28,2.421-0.011l0.476,1.021
		c-0.968,0.376-2.018,0.423-3.031,0.117c-1.274-0.382-2.323-1.295-2.884-2.499c-0.691-1.481-0.562-3.184,0.344-4.555l0.197-0.299
		l-1.036-2.22c-0.09-0.193-0.1-0.409-0.027-0.609c0.073-0.2,0.219-0.359,0.411-0.449l2.352-1.097c0.193-0.09,0.409-0.1,0.609-0.027
		c0.2,0.073,0.359,0.219,0.449,0.412l1.019,2.185l0.364,0.036c1.928,0.188,3.52,1.52,4.057,3.391
		C29.114,19.029,28.25,21.232,26.495,22.301z M21.394,19.554c-0.681-1.461-0.046-3.205,1.415-3.886
		c1.461-0.68,3.205-0.046,3.886,1.415c0.681,1.461,0.046,3.205-1.415,3.886C23.82,21.65,22.075,21.015,21.394,19.554z"/>
	<circle cx="22.419" cy="12.597" r="0.453"/>
</g>
</svg>
