<?xml version="1.0" encoding="utf-8"?>
<!-- Generator: Adobe Illustrator 26.0.3, SVG Export Plug-In . SVG Version: 6.00 Build 0)  -->
<svg version="1.1" id="Layer_1" xmlns="http://www.w3.org/2000/svg" xmlns:xlink="http://www.w3.org/1999/xlink" x="0px" y="0px"
	 viewBox="0 0 24 24" style="enable-background:new 0 0 24 24;" xml:space="preserve">
<style type="text/css">
	.st0{fill:#FFFFFF;}
</style>
<path class="st0" d="M7,11c-0.828,0-1.5-0.671-1.5-1.5S6.172,8,7,8c0.829,0,1.5,0.671,1.5,1.5S7.829,11,7,11z M12,11
	c-0.828,0-1.5-0.671-1.5-1.5S11.172,8,12,8c0.829,0,1.5,0.671,1.5,1.5S12.829,11,12,11z M17,11c-0.828,0-1.5-0.671-1.5-1.5
	S16.172,8,17,8c0.829,0,1.5,0.671,1.5,1.5S17.829,11,17,11z M22,3v13H10.357L6,19.105V16H2V3H22z M24,1H0v16.981h4V23l7-5.019h13V1z
	"/>
</svg>
