<?xml version="1.0" encoding="utf-8"?>
<!-- Generator: Adobe Illustrator 26.0.3, SVG Export Plug-In . SVG Version: 6.00 Build 0)  -->
<svg version="1.1" id="Layer_1" xmlns="http://www.w3.org/2000/svg" xmlns:xlink="http://www.w3.org/1999/xlink" x="0px" y="0px"
	 viewBox="0 0 30 30" style="enable-background:new 0 0 30 30;" xml:space="preserve">
<path d="M26.782,22.611v-1.782h-2.393v-8.661h2.393V9.12h-3.619L15,4.34L6.837,9.12H3.218v3.049h2.393v8.661H3.218v1.782H0v3.049h30
	v-3.049H26.782z M28.734,24.394H1.266v-0.516h1.952h23.564h1.952V24.394z M4.484,22.095h1.127h3.269h1.9h3.269h1.9h3.269h1.9h3.269
	h1.127v0.516H4.484V22.095z M4.484,10.386h0.19h20.65h0.19v0.516h-1.127h-3.269h-1.9H15.95h-1.9h-3.269h-1.9H5.611H4.484V10.386z
	 M20.657,9.12H9.343L15,5.807L20.657,9.12z M8.881,12.168h1.9v8.661h-1.9V12.168z M12.047,12.168h0.737v8.661h-0.737V12.168z
	 M14.05,12.168h1.9v8.661h-1.9V12.168z M17.216,12.168h0.737v8.661h-0.737V12.168z M19.219,12.168h1.9v8.661h-1.9V12.168z
	 M23.122,20.829h-0.737v-8.661h0.737V20.829z M6.878,12.168h0.737v8.661H6.878V12.168z"/>
</svg>
