<?xml version="1.0" encoding="utf-8"?>
<!-- Generator: Adobe Illustrator 26.0.3, SVG Export Plug-In . SVG Version: 6.00 Build 0)  -->
<svg version="1.1" id="Layer_1" xmlns="http://www.w3.org/2000/svg" xmlns:xlink="http://www.w3.org/1999/xlink" x="0px" y="0px"
	 viewBox="0 0 30 30" style="enable-background:new 0 0 30 30;" xml:space="preserve">
<g>
	<path d="M17.969,3.327H3.357v3.879h14.612V3.327z M17.33,6.567H3.997V3.966H17.33V6.567z"/>
	<path d="M29.923,17.023c-0.523-2.416-3.966-4.232-8.293-4.265V0.172H0V23.22h13.028v1.702c0,2.751,3.728,4.907,8.486,4.907
		S30,27.673,30,24.921v-3.63v-0.639v-2.99v-0.639H29.923z M28.721,24.921c0,1.966-3.301,3.628-7.207,3.628s-7.207-1.662-7.207-3.628
		v-1.013c1.485,1.384,4.126,2.291,7.207,2.291s5.723-0.907,7.207-2.291V24.921z M28.721,17.662
		C28.721,17.662,28.721,17.662,28.721,17.662c0,0.218-0.047,0.431-0.124,0.64c-0.023,0.063-0.051,0.125-0.081,0.186
		c-0.091,0.187-0.206,0.37-0.353,0.545c-0.129,0.154-0.283,0.301-0.451,0.443c-0.549,0.465-1.293,0.869-2.177,1.175
		c-1.127,0.39-2.473,0.624-3.905,0.636c-0.039,0-0.077,0.003-0.116,0.003c-0.176,0-0.349-0.007-0.523-0.014
		c-0.216-0.008-0.429-0.022-0.639-0.04c-1.039-0.089-2.012-0.291-2.86-0.585c-0.699-0.242-1.308-0.546-1.806-0.891
		c-0.132-0.092-0.256-0.186-0.371-0.284c-0.014-0.012-0.03-0.023-0.043-0.035c-0.119-0.104-0.229-0.21-0.328-0.32
		c-0.027-0.029-0.055-0.058-0.08-0.088c-0.147-0.176-0.263-0.358-0.353-0.545c-0.03-0.062-0.057-0.124-0.081-0.186
		c-0.077-0.208-0.124-0.422-0.124-0.639c0,0,0,0,0,0c0-0.218,0.047-0.431,0.124-0.639c0.05-0.136,0.112-0.27,0.193-0.4
		c0.067-0.109,0.145-0.215,0.232-0.32c0.091-0.109,0.192-0.216,0.302-0.32c0.527-0.493,1.276-0.92,2.172-1.249
		c0.105-0.039,0.211-0.076,0.32-0.112c0.105-0.034,0.212-0.067,0.32-0.099c0.729-0.213,1.532-0.362,2.382-0.435
		c0.211-0.018,0.424-0.032,0.639-0.04c0.173-0.007,0.347-0.014,0.523-0.014c0.039,0,0.077,0.003,0.116,0.003
		c3.424,0.029,6.353,1.331,6.967,2.986C28.674,17.231,28.721,17.444,28.721,17.662z M28.597,21.931
		c-0.621,1.674-3.609,2.989-7.083,2.989c-2.511,0-4.765-0.688-6.06-1.7c-0.258-0.201-0.476-0.415-0.651-0.64
		c-0.161-0.206-0.286-0.419-0.369-0.639c-0.001-0.003-0.002-0.007-0.003-0.01c-0.077-0.208-0.124-0.422-0.124-0.639c0,0,0,0,0,0
		v-0.639v-0.373c0.067,0.063,0.133,0.126,0.205,0.187c0.076,0.064,0.159,0.125,0.24,0.186c0.303,0.231,0.64,0.444,1.009,0.64
		c0.462,0.244,0.969,0.459,1.519,0.639c0.01,0.003,0.019,0.007,0.029,0.01c1.092,0.354,2.341,0.569,3.683,0.614
		c0.174,0.006,0.346,0.015,0.523,0.015c0.039,0,0.077-0.003,0.116-0.003c1.509-0.011,2.909-0.24,4.118-0.636
		c0.55-0.18,1.057-0.395,1.519-0.639c0.369-0.195,0.706-0.409,1.009-0.64c0.081-0.062,0.164-0.122,0.24-0.186
		c0.072-0.061,0.137-0.124,0.205-0.187v0.373v0.639c0,0,0,0,0,0C28.721,21.509,28.674,21.722,28.597,21.931z M13.53,15.983h-0.218
		v-2.5h3.709C15.409,14.056,14.174,14.93,13.53,15.983z M8.654,13.483h4.018v2.5H8.654V13.483z M17.33,12.844h-4.018v-2.499h4.018
		V12.844z M12.672,12.844H8.654v-2.499h4.018V12.844z M8.015,12.844H3.997v-2.499h4.018V12.844z M3.997,13.483h4.018v2.5H3.997
		V13.483z M3.997,16.622h4.018v2.499H3.997V16.622z M8.654,16.622h4.018v2.499H8.654V16.622z M1.279,1.451h19.072v11.353
		c-0.843,0.064-1.642,0.196-2.382,0.389v-0.348V9.705h-4.658h-0.639H8.654H8.015H3.357v3.138v0.639v2.5v0.639v3.138h4.657h0.639
		h4.018h0.355v0.891v0.639v0.649H1.279V1.451z"/>
</g>
</svg>
