<?xml version="1.0" encoding="utf-8"?>
<!-- Generator: Adobe Illustrator 26.0.3, SVG Export Plug-In . SVG Version: 6.00 Build 0)  -->
<svg version="1.1" id="Layer_1" xmlns="http://www.w3.org/2000/svg" xmlns:xlink="http://www.w3.org/1999/xlink" x="0px" y="0px"
	 viewBox="0 0 30 30" style="enable-background:new 0 0 30 30;" xml:space="preserve">
<g>
	<path d="M21.132,15.778c1.812-1.663,2.957-4.042,2.957-6.689C24.089,4.077,20.011,0,15,0S5.911,4.077,5.911,9.089
		c0,2.647,1.145,5.026,2.957,6.689C8.62,16.182,8.47,16.653,8.47,17.16c0,0.762,0.325,1.445,0.838,1.932
		c-0.513,0.487-0.838,1.17-0.838,1.932c0,0.761,0.325,1.444,0.838,1.931c-0.513,0.487-0.838,1.17-0.838,1.932
		c0,1.471,1.197,2.668,2.668,2.668h0.893C12.26,28.939,13.457,30,14.905,30s2.645-1.061,2.874-2.446h1.083
		c1.471,0,2.668-1.197,2.668-2.668c0-0.761-0.325-1.445-0.838-1.932c0.513-0.486,0.838-1.17,0.838-1.931
		c0-0.762-0.325-1.445-0.838-1.932c0.513-0.487,0.838-1.17,0.838-1.932C21.53,16.653,21.38,16.182,21.132,15.778z M20.067,17.16
		c0,0.649-0.516,1.175-1.158,1.2c-0.016,0-0.03-0.005-0.046-0.005h-7.725c-0.016,0-0.03,0.004-0.046,0.005
		c-0.642-0.025-1.158-0.551-1.158-1.2c0-0.167,0.035-0.327,0.097-0.471c0.1-0.233,0.273-0.425,0.487-0.555
		c0.182-0.11,0.393-0.177,0.62-0.177h0.57h6.585h0.57c0.228,0,0.439,0.067,0.62,0.177c0.215,0.13,0.388,0.322,0.487,0.555
		C20.032,16.834,20.067,16.993,20.067,17.16z M20.067,21.024c0,0.648-0.516,1.175-1.158,1.199c-0.016,0-0.03-0.005-0.046-0.005
		h-7.725c-0.016,0-0.03,0.004-0.046,0.005c-0.642-0.025-1.158-0.551-1.158-1.199c0-0.649,0.516-1.175,1.158-1.2
		c0.016-0.001,0.03-0.005,0.046-0.005h7.725c0.016,0,0.03,0.004,0.046,0.005C19.551,19.848,20.067,20.375,20.067,21.024z
		 M20.067,24.886c0,0.664-0.54,1.205-1.204,1.205h-1.218h-0.793h-0.878h-2.137h-0.878h-0.793h-1.029
		c-0.664,0-1.204-0.54-1.204-1.205c0-0.649,0.516-1.175,1.158-1.2c0.016-0.001,0.03-0.005,0.046-0.005h7.725
		c0.016,0,0.03,0.004,0.046,0.005C19.551,23.711,20.067,24.238,20.067,24.886z M14.905,28.537c-0.637,0-1.174-0.412-1.373-0.982
		h2.745C16.079,28.124,15.542,28.537,14.905,28.537z M7.375,9.089c0-4.205,3.421-7.625,7.625-7.625s7.625,3.421,7.625,7.625
		c0,2.266-0.999,4.299-2.574,5.697c-0.36-0.181-0.76-0.292-1.189-0.292h-7.725c-0.429,0-0.829,0.112-1.189,0.292
		C8.374,13.388,7.375,11.355,7.375,9.089z"/>
</g>
</svg>
