<?xml version="1.0" encoding="utf-8"?>
<!-- Generator: Adobe Illustrator 26.0.3, SVG Export Plug-In . SVG Version: 6.00 Build 0)  -->
<svg version="1.1" id="Layer_1" xmlns="http://www.w3.org/2000/svg" xmlns:xlink="http://www.w3.org/1999/xlink" x="0px" y="0px"
	 viewBox="0 0 24 22.261" style="enable-background:new 0 0 24 22.261;" xml:space="preserve">
<style type="text/css">
	.st0{fill:#5CB433;}
</style>
<g>
	<path class="st0" d="M5.237,8.214c-0.456,0-0.826,0.37-0.826,0.826s0.37,0.826,0.826,0.826c0.456,0,0.826-0.37,0.826-0.826
		S5.694,8.214,5.237,8.214z"/>
	<circle class="st0" cx="13.4" cy="9.018" r="0.89"/>
	<path class="st0" d="M20.789,0H3.21C1.437,0,0,1.437,0,3.21v10.433c0,1.773,1.437,3.211,3.21,3.211h6.209l2.112,4.975
		c0,0,0.145,0.432,0.497,0.432c0,0,0,0,0,0c0.352,0,0.497-0.432,0.497-0.432l2.112-4.975h6.152c1.773,0,3.211-1.438,3.211-3.211
		V3.21C24,1.437,22.562,0,20.789,0z M7.54,9.222c-0.01,1.907-1.982,1.962-1.982,1.962c-0.762,0-1.193-0.506-1.193-0.506v0.344H2.929
		V5.1c-0.006-0.001-0.006-0.002,0-0.003V5.1c0.089,0.014,1.436-0.003,1.436-0.003v2.265c0.338-0.576,1.315-0.566,1.315-0.566
		C7.806,6.994,7.54,9.222,7.54,9.222z M10.068,6.977v4.055H8.663V7.018c0-0.546-0.678-0.698-0.678-0.698V4.904
		C10.23,4.995,10.068,6.977,10.068,6.977z M13.4,11.187c-1.301,0-2.356-0.971-2.356-2.169s1.055-2.169,2.356-2.169
		c1.301,0,2.356,0.971,2.356,2.169S14.701,11.187,13.4,11.187z M21.101,11.187c0,0,0.02,2.06-2.073,2.06h-0.637v-1.335h0.384
		c0,0,0.88,0.081,0.87-1.274c0,0-0.172,0.549-1.406,0.549c0,0-1.749-0.126-1.749-1.833V8.707c0,0,0.04-1.77,1.962-1.911
		c0,0,0.758-0.081,1.224,0.546V6.907h1.426V11.187z"/>
	<circle class="st0" cx="18.866" cy="9.018" r="0.87"/>
</g>
</svg>
