<?xml version="1.0" encoding="utf-8"?>
<!-- Generator: Adobe Illustrator 26.0.3, SVG Export Plug-In . SVG Version: 6.00 Build 0)  -->
<svg version="1.1" id="Layer_1" xmlns="http://www.w3.org/2000/svg" xmlns:xlink="http://www.w3.org/1999/xlink" x="0px" y="0px"
	 viewBox="0 0 30 30" style="enable-background:new 0 0 30 30;" xml:space="preserve">
<path d="M26.248,16.316H30l-6.739-6.739l-6.739,6.739h3.752v9.106h-5.143V15.66V5.028c0-0.225-0.105-0.437-0.285-0.574
	c-1.371-1.04-4.668-2.37-7.333,0.04c-2.462,2.23-5.302,0.412-5.419,0.335C1.853,4.667,1.538,4.667,1.296,4.829
	C1.054,4.991,0.933,5.282,0.989,5.567c0.612,3.114,0.819,7.884-0.635,8.743c-0.197,0.117-0.328,0.32-0.351,0.549
	c-0.023,0.228,0.064,0.453,0.235,0.607c0.929,0.837,2.691,1.848,4.677,1.847c1.259,0,2.608-0.406,3.891-1.519
	c1.704-1.476,4.071-0.248,4.885,0.254v9.374H1.862v1.44h18.413h5.973h3.692v-1.44h-3.692V16.316z M7.863,14.706
	c-2.386,2.07-4.879,0.913-6.023,0.165c1.448-1.893,1.124-5.93,0.797-8.197C4.224,7.219,6.51,7.344,8.48,5.562
	c2.028-1.836,4.398-0.654,5.211-0.151v8.988C12.29,13.706,9.866,12.967,7.863,14.706z M21.715,25.422V14.875H20l3.261-3.261
	l3.261,3.261h-1.715v10.546H21.715z"/>
</svg>
