<?xml version="1.0" encoding="utf-8"?>
<!-- Generator: Adobe Illustrator 26.0.3, SVG Export Plug-In . SVG Version: 6.00 Build 0)  -->
<svg version="1.1" id="Layer_1" xmlns="http://www.w3.org/2000/svg" xmlns:xlink="http://www.w3.org/1999/xlink" x="0px" y="0px"
	 viewBox="0 0 24 24" style="enable-background:new 0 0 24 24;" xml:space="preserve">
<style type="text/css">
	.st0{fill-rule:evenodd;clip-rule:evenodd;fill:#999999;}
</style>
<path class="st0" d="M14.757,20.171C13.966,20.694,13.019,21,12,21c-2.76,0-5-2.24-5-5s2.24-5,5-5s5,2.24,5,5
	c0,1.019-0.306,1.966-0.829,2.757L19,21.586L17.586,23L14.757,20.171z M5.675,19C2.237,19,0,16.371,0,13.5
	c0-2.702,1.951-4.945,4.521-5.408C4.733,4.141,7.994,1,12,1s7.267,3.141,7.479,7.092C22.049,8.555,24,10.798,24,13.5
	c0,2.855-2.218,5.5-5.675,5.5c0.3-0.63,0.508-1.31,0.608-2.026C20.659,16.76,22,15.283,22,13.5c0-2.969-2.688-3.766-4.432-3.72
	C17.891,5.797,15.453,3,12,3C8.641,3,6.266,5.562,6.433,9.78C4.479,9.667,2,10.703,2,13.5c0,1.783,1.341,3.26,3.068,3.474
	C5.167,17.69,5.375,18.37,5.675,19 M12,13c1.655,0,3,1.345,3,3s-1.345,3-3,3c-1.656,0-3-1.345-3-3S10.344,13,12,13"/>
</svg>
