<?xml version="1.0" encoding="utf-8"?>
<!-- Generator: Adobe Illustrator 26.0.3, SVG Export Plug-In . SVG Version: 6.00 Build 0)  -->
<svg version="1.1" id="Layer_1" xmlns="http://www.w3.org/2000/svg" xmlns:xlink="http://www.w3.org/1999/xlink" x="0px" y="0px"
	 viewBox="0 0 24 24" style="enable-background:new 0 0 24 24;" xml:space="preserve">
<style type="text/css">
	.st0{fill:#743D90;}
</style>
<path class="st0" d="M12,0C5.373,0,0,5.373,0,12s5.373,12,12,12s12-5.373,12-12S18.627,0,12,0z M13.359,18.559
	c-0.373,0.364-0.817,0.546-1.332,0.546c-0.515,0-0.959-0.182-1.332-0.546s-0.56-0.804-0.56-1.319c0-0.515,0.187-0.955,0.56-1.319
	s0.817-0.546,1.332-0.546c0.515,0,0.959,0.182,1.332,0.546s0.56,0.804,0.56,1.319C13.918,17.755,13.732,18.194,13.359,18.559z
	 M13.448,12.586c-0.219,0.663-0.37,1.063-0.453,1.199c-0.231,0.367-0.583,0.551-1.057,0.551c-0.397,0-0.719-0.204-0.968-0.613
	c-0.071-0.124-0.228-0.503-0.471-1.137c-0.811-2.125-1.217-3.745-1.217-4.858c0-1.024,0.222-1.752,0.666-2.185
	c0.444-0.432,1.178-0.648,2.203-0.648c1.711,0,2.567,0.989,2.567,2.966C14.718,8.43,14.294,10.005,13.448,12.586z"/>
</svg>
