<?xml version="1.0" encoding="utf-8"?>
<!-- Generator: Adobe Illustrator 26.0.3, SVG Export Plug-In . SVG Version: 6.00 Build 0)  -->
<svg version="1.1" id="Layer_1" xmlns="http://www.w3.org/2000/svg" xmlns:xlink="http://www.w3.org/1999/xlink" x="0px" y="0px"
	 viewBox="0 0 20 10" style="enable-background:new 0 0 20 10;" xml:space="preserve">
<style type="text/css">
	.st0{fill:#70368B;}
</style>
<path class="st0" d="M1.07,6.07h15.276l-2.103,2.103c-0.418,0.418-0.418,1.095,0,1.513s1.095,0.418,1.513,0l3.929-3.929
	c0.098-0.098,0.177-0.215,0.231-0.345C19.971,5.283,20,5.143,20,5s-0.029-0.283-0.083-0.412c-0.054-0.13-0.133-0.247-0.231-0.345
	l-3.929-3.929C15.547,0.105,15.273,0,14.999,0s-0.548,0.105-0.757,0.314c-0.418,0.418-0.418,1.095,0,1.513l2.103,2.103H1.07
	C0.479,3.93,0,4.408,0,5S0.479,6.07,1.07,6.07z"/>
</svg>
