<?xml version="1.0" encoding="utf-8"?>
<!-- Generator: Adobe Illustrator 26.0.3, SVG Export Plug-In . SVG Version: 6.00 Build 0)  -->
<svg version="1.1" id="Layer_1" xmlns="http://www.w3.org/2000/svg" xmlns:xlink="http://www.w3.org/1999/xlink" x="0px" y="0px"
	 viewBox="0 0 20 10" style="enable-background:new 0 0 20 10;" xml:space="preserve">
<style type="text/css">
	.st0{fill:#70368B;}
</style>
<path class="st0" d="M18.93,3.93H3.654l2.103-2.103c0.418-0.418,0.418-1.095,0-1.513c-0.418-0.418-1.095-0.418-1.513,0L0.314,4.242
	C0.216,4.34,0.138,4.458,0.083,4.588C0.029,4.717,0,4.857,0,5s0.029,0.283,0.083,0.412c0.054,0.13,0.133,0.247,0.231,0.345
	l3.929,3.929C4.453,9.895,4.727,10,5.001,10s0.548-0.105,0.757-0.314c0.418-0.418,0.418-1.095,0-1.513L3.654,6.07H18.93
	C19.521,6.07,20,5.592,20,5S19.521,3.93,18.93,3.93z"/>
</svg>
